# Created by FreeCAD <https://www.freecad.org>
v 17.500000 0.000000 0.000000
v 17.404133 1.829248 0.000000
v 17.500000 0.000000 2.000000
v 17.404133 1.829248 2.000000
v 17.117582 3.638455 0.000000
v 17.117582 3.638455 2.000000
v 16.643490 5.407797 0.000000
v 16.643490 5.407797 2.000000
v 15.987045 7.117891 0.000000
v 15.987045 7.117891 2.000000
v 15.155444 8.750000 0.000000
v 15.155444 8.750000 2.000000
v 14.157798 10.286242 0.000000
v 14.157798 10.286242 2.000000
v 13.005034 11.709785 0.000000
v 13.005034 11.709785 2.000000
v 11.709785 13.005034 0.000000
v 11.709785 13.005034 2.000000
v 10.286242 14.157798 0.000000
v 10.286242 14.157798 2.000000
v 8.750000 15.155444 0.000000
v 8.750000 15.155444 2.000000
v 7.117891 15.987045 0.000000
v 7.117891 15.987045 2.000000
v 5.407797 16.643490 0.000000
v 5.407797 16.643490 2.000000
v 3.638455 17.117582 0.000000
v 3.638455 17.117582 2.000000
v 1.829248 17.404133 0.000000
v 1.829248 17.404133 2.000000
v 0.000000 17.500000 0.000000
v 0.000000 17.500000 2.000000
v -1.829248 17.404133 0.000000
v -1.829248 17.404133 2.000000
v -3.638455 17.117582 0.000000
v -3.638455 17.117582 2.000000
v -5.407797 16.643490 0.000000
v -5.407797 16.643490 2.000000
v -7.117891 15.987045 0.000000
v -7.117891 15.987045 2.000000
v -8.750000 15.155444 0.000000
v -8.750000 15.155444 2.000000
v -10.286242 14.157798 2.000000
v -10.286242 14.157798 0.000000
v -11.709785 13.005034 0.000000
v -11.709785 13.005034 2.000000
v -13.005034 11.709785 0.000000
v -13.005034 11.709785 2.000000
v -14.157798 10.286242 0.000000
v -14.157798 10.286242 2.000000
v -15.155444 8.750000 2.000000
v -15.155444 8.750000 0.000000
v -15.987045 7.117891 0.000000
v -15.987045 7.117891 2.000000
v -16.643490 5.407797 2.000000
v -16.643490 5.407797 0.000000
v -17.117582 3.638455 0.000000
v -17.117582 3.638455 2.000000
v -17.404133 1.829248 2.000000
v -17.404133 1.829248 0.000000
v -17.500000 -0.000000 0.000000
v -17.500000 -0.000000 2.000000
v -17.404133 -1.829248 0.000000
v -17.404133 -1.829248 2.000000
v -17.117582 -3.638455 0.000000
v -17.117582 -3.638455 2.000000
v -16.643490 -5.407797 0.000000
v -16.643490 -5.407797 2.000000
v -15.987045 -7.117891 0.000000
v -15.987045 -7.117891 2.000000
v -15.155444 -8.750000 0.000000
v -15.155444 -8.750000 2.000000
v -14.157798 -10.286242 2.000000
v -14.157798 -10.286242 0.000000
v -13.005034 -11.709785 2.000000
v -13.005034 -11.709785 0.000000
v -11.709785 -13.005034 0.000000
v -11.709785 -13.005034 2.000000
v -10.286242 -14.157798 2.000000
v -10.286242 -14.157798 0.000000
v -8.750000 -15.155444 2.000000
v -8.750000 -15.155444 0.000000
v -7.117891 -15.987045 0.000000
v -7.117891 -15.987045 2.000000
v -5.407797 -16.643490 0.000000
v -5.407797 -16.643490 2.000000
v -3.638455 -17.117582 0.000000
v -3.638455 -17.117582 2.000000
v -1.829248 -17.404133 2.000000
v -1.829248 -17.404133 0.000000
v -0.000000 -17.500000 0.000000
v -0.000000 -17.500000 2.000000
v 1.829248 -17.404133 2.000000
v 1.829248 -17.404133 0.000000
v 3.638455 -17.117582 0.000000
v 3.638455 -17.117582 2.000000
v 5.407797 -16.643490 2.000000
v 5.407797 -16.643490 0.000000
v 7.117891 -15.987045 0.000000
v 7.117891 -15.987045 2.000000
v 8.750000 -15.155444 0.000000
v 8.750000 -15.155444 2.000000
v 10.286242 -14.157798 0.000000
v 10.286242 -14.157798 2.000000
v 11.709785 -13.005034 2.000000
v 11.709785 -13.005034 0.000000
v 13.005034 -11.709785 0.000000
v 13.005034 -11.709785 2.000000
v 14.157798 -10.286242 0.000000
v 14.157798 -10.286242 2.000000
v 15.155444 -8.750000 0.000000
v 15.155444 -8.750000 2.000000
v 15.987045 -7.117891 0.000000
v 15.987045 -7.117891 2.000000
v 16.643490 -5.407797 0.000000
v 16.643490 -5.407797 2.000000
v 17.117582 -3.638455 2.000000
v 17.117582 -3.638455 0.000000
v 17.404133 -1.829248 0.000000
v 17.404133 -1.829248 2.000000
v 11.674640 10.869847 0.000000
v 11.706603 10.606600 0.000000
v 11.706603 10.606600 2.000000
v 11.674640 10.869847 2.000000
v 11.580606 11.117796 0.000000
v 11.580606 11.117796 2.000000
v 11.429965 11.336035 0.000000
v 11.429965 11.336035 2.000000
v 11.231475 11.511882 0.000000
v 11.231475 11.511882 2.000000
v 10.996669 11.635118 0.000000
v 10.996669 11.635118 2.000000
v 10.739194 11.698580 0.000000
v 10.739194 11.698580 2.000000
v 10.474013 11.698580 0.000000
v 10.474013 11.698580 2.000000
v 10.216538 11.635118 0.000000
v 10.216538 11.635118 2.000000
v 9.981732 11.511882 0.000000
v 9.981732 11.511882 2.000000
v 9.783241 11.336035 0.000000
v 9.783241 11.336035 2.000000
v 9.632602 11.117796 0.000000
v 9.632602 11.117796 2.000000
v 9.538568 10.869847 0.000000
v 9.538568 10.869847 2.000000
v 9.506603 10.606600 2.000000
v 9.506603 10.606600 0.000000
v 9.538568 10.343352 0.000000
v 9.538568 10.343352 2.000000
v 9.632602 10.095405 0.000000
v 9.632602 10.095405 2.000000
v 9.783241 9.877165 0.000000
v 9.783241 9.877165 2.000000
v 9.981732 9.701318 0.000000
v 9.981732 9.701318 2.000000
v 10.216538 9.578082 2.000000
v 10.216538 9.578082 0.000000
v 10.474013 9.514620 0.000000
v 10.474013 9.514620 2.000000
v 10.739194 9.514620 0.000000
v 10.739194 9.514620 2.000000
v 10.996669 9.578082 0.000000
v 10.996669 9.578082 2.000000
v 11.231475 9.701318 0.000000
v 11.231475 9.701318 2.000000
v 11.429965 9.877165 0.000000
v 11.429965 9.877165 2.000000
v 11.580606 10.095405 0.000000
v 11.580606 10.095405 2.000000
v 11.674640 10.343352 2.000000
v 11.674640 10.343352 0.000000
v -9.538568 -10.343352 0.000000
v -9.506603 -10.606600 0.000000
v -9.506603 -10.606600 2.000000
v -9.538568 -10.343352 2.000000
v -9.632602 -10.095405 0.000000
v -9.632602 -10.095405 2.000000
v -9.783241 -9.877165 0.000000
v -9.783241 -9.877165 2.000000
v -9.981732 -9.701318 0.000000
v -9.981732 -9.701318 2.000000
v -10.216538 -9.578082 0.000000
v -10.216538 -9.578082 2.000000
v -10.474013 -9.514620 0.000000
v -10.474013 -9.514620 2.000000
v -10.739194 -9.514620 0.000000
v -10.739194 -9.514620 2.000000
v -10.996669 -9.578082 0.000000
v -10.996669 -9.578082 2.000000
v -11.231475 -9.701318 0.000000
v -11.231475 -9.701318 2.000000
v -11.429965 -9.877165 0.000000
v -11.429965 -9.877165 2.000000
v -11.580606 -10.095405 0.000000
v -11.580606 -10.095405 2.000000
v -11.674640 -10.343352 0.000000
v -11.674640 -10.343352 2.000000
v -11.706603 -10.606600 2.000000
v -11.706603 -10.606600 0.000000
v -11.674640 -10.869847 0.000000
v -11.674640 -10.869847 2.000000
v -11.580606 -11.117796 0.000000
v -11.580606 -11.117796 2.000000
v -11.429965 -11.336035 0.000000
v -11.429965 -11.336035 2.000000
v -11.231475 -11.511882 0.000000
v -11.231475 -11.511882 2.000000
v -10.996669 -11.635118 2.000000
v -10.996669 -11.635118 0.000000
v -10.739194 -11.698580 0.000000
v -10.739194 -11.698580 2.000000
v -10.474013 -11.698580 0.000000
v -10.474013 -11.698580 2.000000
v -10.216538 -11.635118 0.000000
v -10.216538 -11.635118 2.000000
v -9.981732 -11.511882 0.000000
v -9.981732 -11.511882 2.000000
v -9.783241 -11.336035 0.000000
v -9.783241 -11.336035 2.000000
v -9.632602 -11.117796 0.000000
v -9.632602 -11.117796 2.000000
v -9.538568 -10.869847 2.000000
v -9.538568 -10.869847 0.000000
vn 0.998630 0.052336 -0.000000
vn 0.998630 0.052336 0.000000
vn 0.987688 0.156435 0.000000
vn 0.987688 0.156435 -0.000000
vn 0.965926 0.258818 0.000000
vn 0.965926 0.258818 -0.000000
vn 0.933580 0.358368 0.000000
vn 0.933580 0.358368 -0.000000
vn 0.891006 0.453991 0.000000
vn 0.891006 0.453991 -0.000000
vn 0.838671 0.544639 0.000000
vn 0.838671 0.544639 -0.000000
vn 0.777146 0.629321 0.000000
vn 0.777146 0.629321 -0.000000
vn 0.707107 0.707107 0.000000
vn 0.707107 0.707107 -0.000000
vn 0.629321 0.777146 0.000000
vn 0.629321 0.777146 -0.000000
vn 0.544639 0.838671 0.000000
vn 0.544639 0.838671 -0.000000
vn 0.453991 0.891006 0.000000
vn 0.453991 0.891006 -0.000000
vn 0.358368 0.933580 0.000000
vn 0.358368 0.933580 -0.000000
vn 0.258818 0.965926 0.000000
vn 0.258818 0.965926 -0.000000
vn 0.156435 0.987688 0.000000
vn 0.156435 0.987688 -0.000000
vn 0.052336 0.998630 0.000000
vn 0.052336 0.998630 -0.000000
vn -0.052336 0.998630 0.000000
vn -0.052336 0.998630 0.000000
vn -0.156435 0.987688 0.000000
vn -0.156435 0.987688 0.000000
vn -0.258818 0.965926 0.000000
vn -0.258818 0.965926 0.000000
vn -0.358368 0.933580 0.000000
vn -0.358368 0.933580 0.000000
vn -0.453991 0.891006 0.000000
vn -0.453991 0.891006 0.000000
vn -0.544639 0.838671 0.000000
vn -0.544639 0.838671 0.000000
vn -0.629321 0.777146 0.000000
vn -0.629321 0.777146 0.000000
vn -0.707107 0.707107 0.000000
vn -0.707107 0.707107 0.000000
vn -0.777146 0.629321 0.000000
vn -0.777146 0.629321 0.000000
vn -0.838671 0.544639 0.000000
vn -0.838671 0.544639 0.000000
vn -0.891006 0.453991 0.000000
vn -0.933580 0.358368 0.000000
vn -0.891006 0.453991 0.000000
vn -0.933580 0.358368 0.000000
vn -0.965926 0.258818 0.000000
vn -0.987688 0.156435 0.000000
vn -0.965926 0.258818 0.000000
vn -0.987688 0.156435 0.000000
vn -0.998630 0.052336 0.000000
vn -0.998630 0.052336 0.000000
vn -0.998630 -0.052336 0.000000
vn -0.998630 -0.052336 0.000000
vn -0.987688 -0.156435 0.000000
vn -0.987688 -0.156435 0.000000
vn -0.965926 -0.258818 0.000000
vn -0.965926 -0.258818 0.000000
vn -0.933580 -0.358368 0.000000
vn -0.933580 -0.358368 0.000000
vn -0.891006 -0.453991 0.000000
vn -0.838671 -0.544639 -0.000000
vn -0.891006 -0.453991 0.000000
vn -0.777146 -0.629321 -0.000000
vn -0.838671 -0.544639 0.000000
vn -0.777146 -0.629321 0.000000
vn -0.707107 -0.707107 0.000000
vn -0.629321 -0.777146 -0.000000
vn -0.707107 -0.707107 0.000000
vn -0.544639 -0.838671 -0.000000
vn -0.629321 -0.777146 0.000000
vn -0.544639 -0.838671 0.000000
vn -0.453991 -0.891006 0.000000
vn -0.453991 -0.891006 0.000000
vn -0.358368 -0.933580 0.000000
vn -0.358368 -0.933580 0.000000
vn -0.258818 -0.965926 0.000000
vn -0.156435 -0.987688 -0.000000
vn -0.258818 -0.965926 0.000000
vn -0.156435 -0.987688 0.000000
vn -0.052336 -0.998630 0.000000
vn -0.052336 -0.998630 0.000000
vn 0.052336 -0.998630 0.000000
vn 0.052336 -0.998630 0.000000
vn 0.156435 -0.987688 0.000000
vn 0.156435 -0.987688 0.000000
vn 0.258818 -0.965926 0.000000
vn 0.258818 -0.965926 0.000000
vn 0.358368 -0.933580 0.000000
vn 0.358368 -0.933580 0.000000
vn 0.453991 -0.891006 0.000000
vn 0.453991 -0.891006 0.000000
vn 0.544639 -0.838671 0.000000
vn 0.544639 -0.838671 0.000000
vn 0.629321 -0.777146 0.000000
vn 0.629321 -0.777146 0.000000
vn 0.707107 -0.707107 0.000000
vn 0.707107 -0.707107 0.000000
vn 0.777146 -0.629321 0.000000
vn 0.777146 -0.629321 0.000000
vn 0.838671 -0.544639 0.000000
vn 0.838671 -0.544639 0.000000
vn 0.891006 -0.453991 0.000000
vn 0.891006 -0.453991 0.000000
vn 0.933580 -0.358368 0.000000
vn 0.933580 -0.358368 0.000000
vn 0.965926 -0.258818 0.000000
vn 0.965926 -0.258818 0.000000
vn 0.987688 -0.156435 0.000000
vn 0.987688 -0.156435 0.000000
vn 0.998630 -0.052336 0.000000
vn 0.998630 -0.052336 0.000000
vn -0.992709 -0.120534 0.000000
vn -0.992709 -0.120534 0.000000
vn -0.935017 -0.354604 0.000000
vn -0.935017 -0.354604 0.000000
vn -0.822982 -0.568068 0.000000
vn -0.822982 -0.568068 0.000000
vn -0.663123 -0.748510 0.000000
vn -0.663123 -0.748510 0.000000
vn -0.464723 -0.885456 0.000000
vn -0.464723 -0.885456 0.000000
vn -0.239317 -0.970942 0.000000
vn -0.239317 -0.970942 0.000000
vn 0.000000 -1.000000 0.000000
vn 0.000000 -1.000000 0.000000
vn 0.239317 -0.970942 0.000000
vn 0.239317 -0.970942 0.000000
vn 0.464723 -0.885456 0.000000
vn 0.464723 -0.885456 0.000000
vn 0.663121 -0.748512 0.000000
vn 0.663121 -0.748512 0.000000
vn 0.822984 -0.568065 0.000000
vn 0.822984 -0.568065 0.000000
vn 0.935017 -0.354604 0.000000
vn 0.935017 -0.354604 0.000000
vn 0.992709 -0.120538 0.000000
vn 0.992709 -0.120538 0.000000
vn 0.992709 0.120538 -0.000000
vn 0.992709 0.120538 0.000000
vn 0.935016 0.354605 -0.000000
vn 0.935016 0.354605 0.000000
vn 0.822985 0.568063 -0.000000
vn 0.822985 0.568063 0.000000
vn 0.663121 0.748512 -0.000000
vn 0.464723 0.885456 -0.000000
vn 0.663121 0.748512 0.000000
vn 0.464723 0.885456 -0.000000
vn 0.239317 0.970942 -0.000000
vn 0.239317 0.970942 0.000000
vn 0.000000 1.000000 -0.000000
vn 0.000000 1.000000 0.000000
vn -0.239317 0.970942 0.000000
vn -0.239317 0.970942 0.000000
vn -0.464723 0.885456 0.000000
vn -0.464723 0.885456 0.000000
vn -0.663123 0.748510 0.000000
vn -0.663123 0.748510 0.000000
vn -0.822983 0.568066 0.000000
vn -0.935016 0.354605 0.000000
vn -0.822983 0.568066 0.000000
vn -0.935016 0.354605 0.000000
vn -0.992709 0.120534 0.000000
vn -0.992709 0.120534 0.000000
vn -0.992709 -0.120538 0.000000
vn -0.992709 -0.120538 0.000000
vn -0.935016 -0.354605 0.000000
vn -0.935016 -0.354605 0.000000
vn -0.822985 -0.568063 0.000000
vn -0.822985 -0.568063 0.000000
vn -0.663121 -0.748512 0.000000
vn -0.663121 -0.748512 0.000000
vn -0.464723 -0.885456 0.000000
vn -0.464723 -0.885456 0.000000
vn -0.239317 -0.970942 0.000000
vn -0.239317 -0.970942 0.000000
vn 0.000000 -1.000000 0.000000
vn 0.000000 -1.000000 0.000000
vn 0.239317 -0.970942 0.000000
vn 0.239317 -0.970942 0.000000
vn 0.464723 -0.885456 0.000000
vn 0.464723 -0.885456 0.000000
vn 0.663123 -0.748510 0.000000
vn 0.663123 -0.748510 0.000000
vn 0.822983 -0.568066 0.000000
vn 0.822983 -0.568066 0.000000
vn 0.935016 -0.354605 0.000000
vn 0.935016 -0.354605 0.000000
vn 0.992709 -0.120534 0.000000
vn 0.992709 -0.120534 0.000000
vn 0.992709 0.120534 -0.000000
vn 0.992709 0.120534 0.000000
vn 0.935017 0.354604 -0.000000
vn 0.935017 0.354604 0.000000
vn 0.822982 0.568068 -0.000000
vn 0.822982 0.568068 0.000000
vn 0.663123 0.748510 -0.000000
vn 0.464723 0.885456 -0.000000
vn 0.663123 0.748510 0.000000
vn 0.464723 0.885456 -0.000000
vn 0.239317 0.970942 -0.000000
vn 0.239317 0.970942 0.000000
vn 0.000000 1.000000 -0.000000
vn 0.000000 1.000000 0.000000
vn -0.239317 0.970942 0.000000
vn -0.239317 0.970942 0.000000
vn -0.464723 0.885456 0.000000
vn -0.464723 0.885456 0.000000
vn -0.663121 0.748512 0.000000
vn -0.663121 0.748512 0.000000
vn -0.822984 0.568065 0.000000
vn -0.935017 0.354604 0.000000
vn -0.822984 0.568065 0.000000
vn -0.935017 0.354604 0.000000
vn -0.992709 0.120538 0.000000
vn -0.992709 0.120538 0.000000
vn 0.000000 0.000000 -1.000000
vn 0.000000 -0.000000 -1.000000
vn 0.000000 0.000000 -1.000000
vn 0.000000 -0.000000 -1.000000
vn 0.000000 0.000000 -1.000000
vn 0.000000 -0.000000 -1.000000
vn 0.000000 0.000000 -1.000000
vn 0.000000 0.000000 -1.000000
vn 0.000000 0.000000 -1.000000
vn 0.000000 -0.000000 -1.000000
vn 0.000000 0.000000 -1.000000
vn 0.000000 0.000000 -1.000000
vn 0.000000 0.000000 -1.000000
vn 0.000000 -0.000000 -1.000000
vn 0.000000 0.000000 -1.000000
vn 0.000000 0.000000 -1.000000
vn 0.000000 0.000000 -1.000000
vn 0.000000 -0.000000 -1.000000
vn 0.000000 0.000000 -1.000000
vn 0.000000 0.000000 -1.000000
vn 0.000000 0.000000 -1.000000
vn 0.000000 0.000000 -1.000000
vn 0.000000 0.000000 -1.000000
vn 0.000000 0.000000 -1.000000
vn 0.000000 0.000000 -1.000000
vn 0.000000 0.000000 -1.000000
vn 0.000000 0.000000 -1.000000
vn 0.000000 0.000000 -1.000000
vn 0.000000 0.000000 -1.000000
vn 0.000000 0.000000 -1.000000
vn 0.000000 0.000000 -1.000000
vn 0.000000 0.000000 -1.000000
vn 0.000000 0.000000 -1.000000
vn 0.000000 0.000000 -1.000000
vn 0.000000 0.000000 -1.000000
vn 0.000000 0.000000 -1.000000
vn 0.000000 0.000000 -1.000000
vn 0.000000 0.000000 -1.000000
vn 0.000000 0.000000 -1.000000
vn 0.000000 0.000000 -1.000000
vn 0.000000 0.000000 -1.000000
vn 0.000000 0.000000 -1.000000
vn 0.000000 0.000000 -1.000000
vn 0.000000 0.000000 -1.000000
vn 0.000000 0.000000 -1.000000
vn 0.000000 0.000000 -1.000000
vn 0.000000 0.000000 -1.000000
vn 0.000000 0.000000 -1.000000
vn 0.000000 0.000000 -1.000000
vn 0.000000 0.000000 -1.000000
vn 0.000000 0.000000 -1.000000
vn 0.000000 0.000000 -1.000000
vn 0.000000 0.000000 -1.000000
vn 0.000000 0.000000 -1.000000
vn 0.000000 0.000000 -1.000000
vn 0.000000 0.000000 -1.000000
vn 0.000000 0.000000 -1.000000
vn 0.000000 0.000000 -1.000000
vn 0.000000 0.000000 -1.000000
vn 0.000000 0.000000 -1.000000
vn 0.000000 -0.000000 -1.000000
vn 0.000000 0.000000 -1.000000
vn 0.000000 -0.000000 -1.000000
vn 0.000000 -0.000000 -1.000000
vn 0.000000 -0.000000 -1.000000
vn 0.000000 -0.000000 -1.000000
vn 0.000000 -0.000000 -1.000000
vn 0.000000 -0.000000 -1.000000
vn 0.000000 0.000000 -1.000000
vn 0.000000 0.000000 -1.000000
vn 0.000000 0.000000 -1.000000
vn 0.000000 0.000000 -1.000000
vn 0.000000 0.000000 -1.000000
vn 0.000000 0.000000 -1.000000
vn 0.000000 0.000000 -1.000000
vn -0.000000 -0.000000 -1.000000
vn 0.000000 -0.000000 -1.000000
vn 0.000000 0.000000 -1.000000
vn 0.000000 0.000000 -1.000000
vn 0.000000 0.000000 -1.000000
vn 0.000000 0.000000 -1.000000
vn 0.000000 0.000000 -1.000000
vn 0.000000 0.000000 -1.000000
vn 0.000000 0.000000 -1.000000
vn -0.000000 -0.000000 -1.000000
vn 0.000000 0.000000 -1.000000
vn 0.000000 0.000000 -1.000000
vn 0.000000 0.000000 -1.000000
vn 0.000000 -0.000000 -1.000000
vn 0.000000 0.000000 -1.000000
vn 0.000000 0.000000 -1.000000
vn 0.000000 0.000000 -1.000000
vn 0.000000 0.000000 -1.000000
vn 0.000000 -0.000000 -1.000000
vn 0.000000 -0.000000 -1.000000
vn 0.000000 0.000000 -1.000000
vn 0.000000 0.000000 -1.000000
vn 0.000000 0.000000 -1.000000
vn 0.000000 0.000000 -1.000000
vn 0.000000 0.000000 -1.000000
vn 0.000000 0.000000 -1.000000
vn 0.000000 -0.000000 -1.000000
vn 0.000000 -0.000000 -1.000000
vn 0.000000 -0.000000 -1.000000
vn 0.000000 0.000000 -1.000000
vn 0.000000 0.000000 -1.000000
vn 0.000000 0.000000 -1.000000
vn 0.000000 0.000000 -1.000000
vn 0.000000 0.000000 -1.000000
vn 0.000000 0.000000 -1.000000
vn 0.000000 0.000000 -1.000000
vn 0.000000 0.000000 -1.000000
vn 0.000000 0.000000 -1.000000
vn 0.000000 0.000000 -1.000000
vn 0.000000 0.000000 1.000000
vn 0.000000 0.000000 1.000000
vn 0.000000 0.000000 1.000000
vn 0.000000 0.000000 1.000000
vn 0.000000 0.000000 1.000000
vn 0.000000 0.000000 1.000000
vn 0.000000 0.000000 1.000000
vn 0.000000 0.000000 1.000000
vn 0.000000 0.000000 1.000000
vn 0.000000 0.000000 1.000000
vn 0.000000 0.000000 1.000000
vn 0.000000 0.000000 1.000000
vn 0.000000 0.000000 1.000000
vn 0.000000 0.000000 1.000000
vn 0.000000 0.000000 1.000000
vn 0.000000 0.000000 1.000000
vn 0.000000 0.000000 1.000000
vn 0.000000 0.000000 1.000000
vn 0.000000 0.000000 1.000000
vn 0.000000 0.000000 1.000000
vn 0.000000 0.000000 1.000000
vn 0.000000 0.000000 1.000000
vn 0.000000 0.000000 1.000000
vn 0.000000 0.000000 1.000000
vn 0.000000 0.000000 1.000000
vn 0.000000 0.000000 1.000000
vn 0.000000 0.000000 1.000000
vn 0.000000 0.000000 1.000000
vn 0.000000 0.000000 1.000000
vn 0.000000 0.000000 1.000000
vn 0.000000 0.000000 1.000000
vn 0.000000 0.000000 1.000000
vn 0.000000 0.000000 1.000000
vn 0.000000 0.000000 1.000000
vn 0.000000 0.000000 1.000000
vn 0.000000 0.000000 1.000000
vn 0.000000 0.000000 1.000000
vn 0.000000 0.000000 1.000000
vn 0.000000 0.000000 1.000000
vn 0.000000 0.000000 1.000000
vn 0.000000 0.000000 1.000000
vn 0.000000 0.000000 1.000000
vn 0.000000 0.000000 1.000000
vn 0.000000 0.000000 1.000000
vn 0.000000 0.000000 1.000000
vn 0.000000 0.000000 1.000000
vn 0.000000 0.000000 1.000000
vn 0.000000 0.000000 1.000000
vn 0.000000 0.000000 1.000000
vn 0.000000 0.000000 1.000000
vn 0.000000 0.000000 1.000000
vn 0.000000 0.000000 1.000000
vn 0.000000 0.000000 1.000000
vn 0.000000 0.000000 1.000000
vn 0.000000 0.000000 1.000000
vn 0.000000 0.000000 1.000000
vn 0.000000 0.000000 1.000000
vn 0.000000 0.000000 1.000000
vn 0.000000 0.000000 1.000000
vn 0.000000 0.000000 1.000000
vn 0.000000 0.000000 1.000000
vn 0.000000 0.000000 1.000000
vn 0.000000 0.000000 1.000000
vn 0.000000 0.000000 1.000000
vn 0.000000 0.000000 1.000000
vn 0.000000 0.000000 1.000000
vn 0.000000 0.000000 1.000000
vn 0.000000 0.000000 1.000000
vn 0.000000 0.000000 1.000000
vn 0.000000 0.000000 1.000000
vn 0.000000 0.000000 1.000000
vn 0.000000 0.000000 1.000000
vn 0.000000 0.000000 1.000000
vn 0.000000 0.000000 1.000000
vn 0.000000 0.000000 1.000000
vn 0.000000 0.000000 1.000000
vn 0.000000 0.000000 1.000000
vn 0.000000 0.000000 1.000000
vn 0.000000 0.000000 1.000000
vn 0.000000 0.000000 1.000000
vn 0.000000 0.000000 1.000000
vn 0.000000 0.000000 1.000000
vn 0.000000 0.000000 1.000000
vn 0.000000 0.000000 1.000000
vn 0.000000 0.000000 1.000000
vn 0.000000 0.000000 1.000000
vn 0.000000 0.000000 1.000000
vn 0.000000 0.000000 1.000000
vn 0.000000 0.000000 1.000000
vn 0.000000 0.000000 1.000000
vn 0.000000 0.000000 1.000000
vn 0.000000 0.000000 1.000000
vn 0.000000 0.000000 1.000000
vn 0.000000 0.000000 1.000000
vn 0.000000 0.000000 1.000000
vn 0.000000 0.000000 1.000000
vn 0.000000 0.000000 1.000000
vn 0.000000 0.000000 1.000000
vn 0.000000 0.000000 1.000000
vn 0.000000 0.000000 1.000000
vn 0.000000 0.000000 1.000000
vn 0.000000 0.000000 1.000000
vn 0.000000 0.000000 1.000000
vn 0.000000 0.000000 1.000000
vn 0.000000 0.000000 1.000000
vn 0.000000 0.000000 1.000000
vn 0.000000 0.000000 1.000000
vn 0.000000 0.000000 1.000000
vn 0.000000 0.000000 1.000000
vn 0.000000 0.000000 1.000000
vn 0.000000 0.000000 1.000000
vn 0.000000 0.000000 1.000000
vn 0.000000 0.000000 1.000000
vn 0.000000 0.000000 1.000000
f 1//1 2//1 3//1
f 3//2 2//2 4//2
f 4//3 5//3 6//3
f 2//4 5//4 4//4
f 6//5 7//5 8//5
f 5//6 7//6 6//6
f 8//7 9//7 10//7
f 7//8 9//8 8//8
f 10//9 11//9 12//9
f 9//10 11//10 10//10
f 12//11 13//11 14//11
f 11//12 13//12 12//12
f 14//13 15//13 16//13
f 13//14 15//14 14//14
f 16//15 17//15 18//15
f 15//16 17//16 16//16
f 18//17 19//17 20//17
f 17//18 19//18 18//18
f 20//19 21//19 22//19
f 19//20 21//20 20//20
f 22//21 23//21 24//21
f 21//22 23//22 22//22
f 24//23 25//23 26//23
f 23//24 25//24 24//24
f 26//25 27//25 28//25
f 25//26 27//26 26//26
f 28//27 29//27 30//27
f 27//28 29//28 28//28
f 30//29 31//29 32//29
f 29//30 31//30 30//30
f 32//31 33//31 34//31
f 31//32 33//32 32//32
f 34//33 35//33 36//33
f 33//34 35//34 34//34
f 36//35 37//35 38//35
f 35//36 37//36 36//36
f 38//37 39//37 40//37
f 37//38 39//38 38//38
f 39//39 41//39 40//39
f 40//40 41//40 42//40
f 42//41 41//41 43//41
f 41//42 44//42 43//42
f 44//43 45//43 43//43
f 43//44 45//44 46//44
f 45//45 47//45 46//45
f 46//46 47//46 48//46
f 47//47 49//47 48//47
f 48//48 49//48 50//48
f 50//49 49//49 51//49
f 49//50 52//50 51//50
f 51//51 53//51 54//51
f 54//52 53//52 55//52
f 52//53 53//53 51//53
f 53//54 56//54 55//54
f 55//55 57//55 58//55
f 58//56 57//56 59//56
f 56//57 57//57 55//57
f 57//58 60//58 59//58
f 59//59 61//59 62//59
f 60//60 61//60 59//60
f 62//61 63//61 64//61
f 61//62 63//62 62//62
f 64//63 65//63 66//63
f 63//64 65//64 64//64
f 66//65 67//65 68//65
f 65//66 67//66 66//66
f 68//67 69//67 70//67
f 67//68 69//68 68//68
f 70//69 71//69 72//69
f 72//70 71//70 73//70
f 69//71 71//71 70//71
f 73//72 74//72 75//72
f 71//73 74//73 73//73
f 74//74 76//74 75//74
f 75//75 77//75 78//75
f 78//76 77//76 79//76
f 76//77 77//77 75//77
f 79//78 80//78 81//78
f 77//79 80//79 79//79
f 80//80 82//80 81//80
f 81//81 83//81 84//81
f 82//82 83//82 81//82
f 84//83 85//83 86//83
f 83//84 85//84 84//84
f 86//85 87//85 88//85
f 88//86 87//86 89//86
f 85//87 87//87 86//87
f 87//88 90//88 89//88
f 90//89 91//89 89//89
f 89//90 91//90 92//90
f 92//91 91//91 93//91
f 91//92 94//92 93//92
f 94//93 95//93 93//93
f 93//94 95//94 96//94
f 96//95 95//95 97//95
f 95//96 98//96 97//96
f 98//97 99//97 97//97
f 97//98 99//98 100//98
f 99//99 101//99 100//99
f 100//100 101//100 102//100
f 101//101 103//101 102//101
f 102//102 103//102 104//102
f 104//103 103//103 105//103
f 103//104 106//104 105//104
f 106//105 107//105 105//105
f 105//106 107//106 108//106
f 107//107 109//107 108//107
f 108//108 109//108 110//108
f 109//109 111//109 110//109
f 110//110 111//110 112//110
f 111//111 113//111 112//111
f 112//112 113//112 114//112
f 113//113 115//113 114//113
f 114//114 115//114 116//114
f 116//115 115//115 117//115
f 115//116 118//116 117//116
f 117//117 119//117 120//117
f 118//118 119//118 117//118
f 120//119 119//119 3//119
f 119//120 1//120 3//120
f 121//121 122//121 123//121
f 121//122 123//122 124//122
f 125//123 124//123 126//123
f 125//124 121//124 124//124
f 127//125 126//125 128//125
f 127//126 125//126 126//126
f 129//127 128//127 130//127
f 129//128 127//128 128//128
f 131//129 130//129 132//129
f 131//130 129//130 130//130
f 133//131 132//131 134//131
f 133//132 131//132 132//132
f 135//133 134//133 136//133
f 135//134 133//134 134//134
f 137//135 136//135 138//135
f 137//136 135//136 136//136
f 139//137 138//137 140//137
f 139//138 137//138 138//138
f 141//139 140//139 142//139
f 141//140 139//140 140//140
f 143//141 142//141 144//141
f 143//142 141//142 142//142
f 145//143 143//143 144//143
f 145//144 144//144 146//144
f 145//145 146//145 147//145
f 148//146 145//146 147//146
f 149//147 147//147 150//147
f 149//148 148//148 147//148
f 151//149 150//149 152//149
f 151//150 149//150 150//150
f 153//151 152//151 154//151
f 153//152 151//152 152//152
f 155//153 154//153 156//153
f 155//154 156//154 157//154
f 155//155 153//155 154//155
f 158//156 155//156 157//156
f 159//157 157//157 160//157
f 159//158 158//158 157//158
f 161//159 160//159 162//159
f 161//160 159//160 160//160
f 163//161 162//161 164//161
f 163//162 161//162 162//162
f 165//163 164//163 166//163
f 165//164 163//164 164//164
f 167//165 166//165 168//165
f 167//166 165//166 166//166
f 169//167 168//167 170//167
f 169//168 170//168 171//168
f 169//169 167//169 168//169
f 172//170 169//170 171//170
f 122//171 171//171 123//171
f 122//172 172//172 171//172
f 173//173 174//173 175//173
f 173//174 175//174 176//174
f 177//175 176//175 178//175
f 177//176 173//176 176//176
f 179//177 178//177 180//177
f 179//178 177//178 178//178
f 181//179 180//179 182//179
f 181//180 179//180 180//180
f 183//181 182//181 184//181
f 183//182 181//182 182//182
f 185//183 184//183 186//183
f 185//184 183//184 184//184
f 187//185 186//185 188//185
f 187//186 185//186 186//186
f 189//187 188//187 190//187
f 189//188 187//188 188//188
f 191//189 190//189 192//189
f 191//190 189//190 190//190
f 193//191 192//191 194//191
f 193//192 191//192 192//192
f 195//193 194//193 196//193
f 195//194 193//194 194//194
f 197//195 195//195 196//195
f 197//196 196//196 198//196
f 197//197 198//197 199//197
f 200//198 197//198 199//198
f 201//199 199//199 202//199
f 201//200 200//200 199//200
f 203//201 202//201 204//201
f 203//202 201//202 202//202
f 205//203 204//203 206//203
f 205//204 203//204 204//204
f 207//205 206//205 208//205
f 207//206 208//206 209//206
f 207//207 205//207 206//207
f 210//208 207//208 209//208
f 211//209 209//209 212//209
f 211//210 210//210 209//210
f 213//211 212//211 214//211
f 213//212 211//212 212//212
f 215//213 214//213 216//213
f 215//214 213//214 214//214
f 217//215 216//215 218//215
f 217//216 215//216 216//216
f 219//217 218//217 220//217
f 219//218 217//218 218//218
f 221//219 220//219 222//219
f 221//220 222//220 223//220
f 221//221 219//221 220//221
f 224//222 221//222 223//222
f 174//223 223//223 175//223
f 174//224 224//224 223//224
f 76//225 205//225 77//225
f 205//226 207//226 77//226
f 76//227 203//227 205//227
f 207//228 210//228 77//228
f 76//229 201//229 203//229
f 210//230 211//230 77//230
f 74//231 200//231 76//231
f 76//232 200//232 201//232
f 77//233 213//233 80//233
f 211//234 213//234 77//234
f 74//235 197//235 200//235
f 213//236 215//236 80//236
f 74//237 195//237 197//237
f 215//238 217//238 80//238
f 71//239 193//239 74//239
f 74//240 193//240 195//240
f 80//241 219//241 82//241
f 217//242 219//242 80//242
f 71//243 191//243 193//243
f 219//244 221//244 82//244
f 82//245 221//245 83//245
f 69//246 189//246 71//246
f 71//247 189//247 191//247
f 83//248 224//248 85//248
f 221//249 224//249 83//249
f 67//250 187//250 69//250
f 69//251 187//251 189//251
f 85//252 174//252 87//252
f 224//253 174//253 85//253
f 65//254 185//254 67//254
f 67//255 185//255 187//255
f 174//256 173//256 87//256
f 65//257 63//257 185//257
f 173//258 90//258 87//258
f 63//259 61//259 185//259
f 185//260 61//260 183//260
f 173//261 91//261 90//261
f 61//262 60//262 183//262
f 173//263 94//263 91//263
f 177//264 94//264 173//264
f 177//265 95//265 94//265
f 60//266 57//266 183//266
f 177//267 98//267 95//267
f 57//268 56//268 183//268
f 177//269 99//269 98//269
f 56//270 53//270 183//270
f 183//271 53//271 181//271
f 177//272 101//272 99//272
f 53//273 52//273 181//273
f 177//274 103//274 101//274
f 52//275 49//275 181//275
f 177//276 106//276 103//276
f 49//277 47//277 181//277
f 47//278 45//278 181//278
f 181//279 153//279 179//279
f 177//280 155//280 106//280
f 106//281 155//281 107//281
f 107//282 155//282 109//282
f 109//283 155//283 111//283
f 111//284 155//284 113//284
f 153//285 155//285 179//285
f 179//286 155//286 177//286
f 33//287 151//287 35//287
f 35//288 151//288 37//288
f 37//289 151//289 39//289
f 39//290 151//290 41//290
f 41//291 151//291 44//291
f 44//292 151//292 45//292
f 45//293 151//293 181//293
f 181//294 151//294 153//294
f 155//295 158//295 113//295
f 113//296 158//296 115//296
f 115//297 158//297 118//297
f 118//298 158//298 119//298
f 119//299 158//299 1//299
f 29//300 149//300 31//300
f 31//301 149//301 33//301
f 33//302 149//302 151//302
f 1//303 159//303 2//303
f 158//304 159//304 1//304
f 29//305 27//305 149//305
f 149//306 27//306 148//306
f 159//307 5//307 2//307
f 159//308 7//308 5//308
f 161//309 7//309 159//309
f 148//310 25//310 145//310
f 27//311 25//311 148//311
f 161//312 9//312 7//312
f 163//313 9//313 161//313
f 25//314 23//314 145//314
f 145//315 23//315 143//315
f 23//316 21//316 143//316
f 143//317 21//317 141//317
f 165//318 11//318 163//318
f 167//319 11//319 165//319
f 163//320 11//320 9//320
f 21//321 19//321 141//321
f 137//322 19//322 135//322
f 139//323 19//323 137//323
f 141//324 19//324 139//324
f 167//325 13//325 11//325
f 169//326 13//326 167//326
f 172//327 13//327 169//327
f 122//328 13//328 172//328
f 122//329 15//329 13//329
f 121//330 15//330 122//330
f 125//331 15//331 121//331
f 127//332 15//332 125//332
f 19//333 17//333 135//333
f 127//334 17//334 15//334
f 129//335 17//335 127//335
f 131//336 17//336 129//336
f 133//337 17//337 131//337
f 135//338 17//338 133//338
f 206//339 75//339 78//339
f 208//340 206//340 78//340
f 204//341 75//341 206//341
f 209//342 208//342 78//342
f 202//343 75//343 204//343
f 212//344 209//344 78//344
f 199//345 73//345 75//345
f 199//346 75//346 202//346
f 214//347 78//347 79//347
f 214//348 212//348 78//348
f 198//349 73//349 199//349
f 216//350 214//350 79//350
f 196//351 73//351 198//351
f 218//352 216//352 79//352
f 194//353 72//353 73//353
f 194//354 73//354 196//354
f 220//355 79//355 81//355
f 220//356 218//356 79//356
f 192//357 72//357 194//357
f 222//358 220//358 81//358
f 222//359 81//359 84//359
f 190//360 70//360 72//360
f 190//361 72//361 192//361
f 223//362 84//362 86//362
f 223//363 222//363 84//363
f 188//364 68//364 70//364
f 188//365 70//365 190//365
f 175//366 86//366 88//366
f 175//367 223//367 86//367
f 186//368 66//368 68//368
f 186//369 68//369 188//369
f 176//370 175//370 88//370
f 64//371 66//371 186//371
f 89//372 176//372 88//372
f 62//373 64//373 186//373
f 62//374 186//374 184//374
f 92//375 176//375 89//375
f 59//376 62//376 184//376
f 93//377 176//377 92//377
f 93//378 178//378 176//378
f 96//379 178//379 93//379
f 58//380 59//380 184//380
f 97//381 178//381 96//381
f 55//382 58//382 184//382
f 100//383 178//383 97//383
f 54//384 55//384 184//384
f 54//385 184//385 182//385
f 102//386 178//386 100//386
f 51//387 54//387 182//387
f 104//388 178//388 102//388
f 50//389 51//389 182//389
f 105//390 178//390 104//390
f 48//391 50//391 182//391
f 46//392 48//392 182//392
f 154//393 182//393 180//393
f 156//394 178//394 105//394
f 156//395 105//395 108//395
f 156//396 108//396 110//396
f 156//397 110//397 112//397
f 156//398 112//398 114//398
f 156//399 154//399 180//399
f 156//400 180//400 178//400
f 152//401 34//401 36//401
f 152//402 36//402 38//402
f 152//403 38//403 40//403
f 152//404 40//404 42//404
f 152//405 42//405 43//405
f 152//406 43//406 46//406
f 152//407 46//407 182//407
f 152//408 182//408 154//408
f 157//409 156//409 114//409
f 157//410 114//410 116//410
f 157//411 116//411 117//411
f 157//412 117//412 120//412
f 157//413 120//413 3//413
f 150//414 30//414 32//414
f 150//415 32//415 34//415
f 150//416 34//416 152//416
f 160//417 3//417 4//417
f 160//418 157//418 3//418
f 28//419 30//419 150//419
f 28//420 150//420 147//420
f 6//421 160//421 4//421
f 8//422 160//422 6//422
f 8//423 162//423 160//423
f 26//424 147//424 146//424
f 26//425 28//425 147//425
f 10//426 162//426 8//426
f 10//427 164//427 162//427
f 24//428 26//428 146//428
f 24//429 146//429 144//429
f 22//430 24//430 144//430
f 22//431 144//431 142//431
f 12//432 166//432 164//432
f 12//433 168//433 166//433
f 12//434 164//434 10//434
f 20//435 22//435 142//435
f 20//436 138//436 136//436
f 20//437 140//437 138//437
f 20//438 142//438 140//438
f 14//439 168//439 12//439
f 14//440 170//440 168//440
f 14//441 171//441 170//441
f 14//442 123//442 171//442
f 16//443 123//443 14//443
f 16//444 124//444 123//444
f 16//445 126//445 124//445
f 16//446 128//446 126//446
f 18//447 20//447 136//447
f 18//448 128//448 16//448
f 18//449 130//449 128//449
f 18//450 132//450 130//450
f 18//451 134//451 132//451
f 18//452 136//452 134//452
