# Created by FreeCAD <https://www.freecad.org>
v 17.500000 0.000000 0.000000
v 17.404133 1.829248 0.000000
v 17.500000 0.000000 2.500000
v 17.404133 1.829248 2.500000
v 17.117582 3.638455 0.000000
v 17.117582 3.638455 2.500000
v 16.643490 5.407797 0.000000
v 16.643490 5.407797 2.500000
v 15.987045 7.117891 0.000000
v 15.987045 7.117891 2.500000
v 15.155444 8.750000 0.000000
v 15.155444 8.750000 2.500000
v 14.157798 10.286242 2.500000
v 14.157798 10.286242 0.000000
v 13.005034 11.709785 0.000000
v 13.005034 11.709785 2.500000
v 11.709785 13.005034 0.000000
v 11.709785 13.005034 2.500000
v 10.286242 14.157798 2.500000
v 10.286242 14.157798 0.000000
v 8.750000 15.155444 0.000000
v 8.750000 15.155444 2.500000
v 7.117891 15.987045 2.500000
v 7.117891 15.987045 0.000000
v 5.407797 16.643490 0.000000
v 5.407797 16.643490 2.500000
v 3.638455 17.117582 0.000000
v 3.638455 17.117582 2.500000
v 1.829248 17.404133 2.500000
v 1.829248 17.404133 0.000000
v 0.000000 17.500000 0.000000
v 0.000000 17.500000 2.500000
v -1.829248 17.404133 0.000000
v -1.829248 17.404133 2.500000
v -3.638455 17.117582 0.000000
v -3.638455 17.117582 2.500000
v -5.407797 16.643490 0.000000
v -5.407797 16.643490 2.500000
v -7.117891 15.987045 0.000000
v -7.117891 15.987045 2.500000
v -8.750000 15.155444 0.000000
v -8.750000 15.155444 2.500000
v -10.286242 14.157798 0.000000
v -10.286242 14.157798 2.500000
v -11.709785 13.005034 0.000000
v -11.709785 13.005034 2.500000
v -13.005034 11.709785 0.000000
v -13.005034 11.709785 2.500000
v -14.157798 10.286242 2.500000
v -14.157798 10.286242 0.000000
v -15.155444 8.750000 0.000000
v -15.155444 8.750000 2.500000
v -15.987045 7.117891 2.500000
v -15.987045 7.117891 0.000000
v -16.643490 5.407797 0.000000
v -16.643490 5.407797 2.500000
v -17.117582 3.638455 0.000000
v -17.117582 3.638455 2.500000
v -17.404133 1.829248 2.500000
v -17.404133 1.829248 0.000000
v -17.500000 -0.000000 0.000000
v -17.500000 -0.000000 2.500000
v -17.404133 -1.829248 0.000000
v -17.404133 -1.829248 2.500000
v -17.117582 -3.638455 0.000000
v -17.117582 -3.638455 2.500000
v -16.643490 -5.407797 2.500000
v -16.643490 -5.407797 0.000000
v -15.987045 -7.117891 0.000000
v -15.987045 -7.117891 2.500000
v -15.155444 -8.750000 0.000000
v -15.155444 -8.750000 2.500000
v -14.157798 -10.286242 0.000000
v -14.157798 -10.286242 2.500000
v -13.005034 -11.709785 2.500000
v -13.005034 -11.709785 0.000000
v -11.709785 -13.005034 0.000000
v -11.709785 -13.005034 2.500000
v -10.286242 -14.157798 0.000000
v -10.286242 -14.157798 2.500000
v -8.750000 -15.155444 0.000000
v -8.750000 -15.155444 2.500000
v -7.117891 -15.987045 0.000000
v -7.117891 -15.987045 2.500000
v -5.407797 -16.643490 0.000000
v -5.407797 -16.643490 2.500000
v -3.638455 -17.117582 0.000000
v -3.638455 -17.117582 2.500000
v -1.829248 -17.404133 0.000000
v -1.829248 -17.404133 2.500000
v -0.000000 -17.500000 2.500000
v -0.000000 -17.500000 0.000000
v 1.829248 -17.404133 0.000000
v 1.829248 -17.404133 2.500000
v 3.638455 -17.117582 0.000000
v 3.638455 -17.117582 2.500000
v 5.407797 -16.643490 0.000000
v 5.407797 -16.643490 2.500000
v 7.117891 -15.987045 0.000000
v 7.117891 -15.987045 2.500000
v 8.750000 -15.155444 0.000000
v 8.750000 -15.155444 2.500000
v 10.286242 -14.157798 0.000000
v 10.286242 -14.157798 2.500000
v 11.709785 -13.005034 0.000000
v 11.709785 -13.005034 2.500000
v 13.005034 -11.709785 0.000000
v 13.005034 -11.709785 2.500000
v 14.157798 -10.286242 0.000000
v 14.157798 -10.286242 2.500000
v 15.155444 -8.750000 2.500000
v 15.155444 -8.750000 0.000000
v 15.987045 -7.117891 0.000000
v 15.987045 -7.117891 2.500000
v 16.643490 -5.407797 0.000000
v 16.643490 -5.407797 2.500000
v 17.117582 -3.638455 0.000000
v 17.117582 -3.638455 2.500000
v 17.404133 -1.829248 2.500000
v 17.404133 -1.829248 0.000000
v 4.157127 0.883625 0.000000
v 4.250000 0.000000 0.000000
v 4.250000 0.000000 2.500000
v 4.157127 0.883625 2.500000
v 3.882568 1.728631 0.000000
v 3.882568 1.728631 2.500000
v 3.438322 2.498087 0.000000
v 3.438322 2.498087 2.500000
v 2.843805 3.158365 0.000000
v 2.843805 3.158365 2.500000
v 2.125000 3.680608 2.500000
v 2.125000 3.680608 0.000000
v 1.313322 4.041990 0.000000
v 1.313322 4.041990 2.500000
v 0.444246 4.226718 0.000000
v 0.444246 4.226718 2.500000
v -0.444246 4.226718 0.000000
v -0.444246 4.226718 2.500000
v -1.313322 4.041990 2.500000
v -1.313322 4.041990 0.000000
v -2.125000 3.680608 0.000000
v -2.125000 3.680608 2.500000
v -2.843805 3.158365 0.000000
v -2.843805 3.158365 2.500000
v -3.438322 2.498087 0.000000
v -3.438322 2.498087 2.500000
v -3.882568 1.728631 2.500000
v -3.882568 1.728631 0.000000
v -4.157127 0.883625 0.000000
v -4.157127 0.883625 2.500000
v -4.250000 0.000000 0.000000
v -4.250000 0.000000 2.500000
v -4.157127 -0.883625 0.000000
v -4.157127 -0.883625 2.500000
v -3.882568 -1.728631 0.000000
v -3.882568 -1.728631 2.500000
v -3.438322 -2.498087 0.000000
v -3.438322 -2.498087 2.500000
v -2.843805 -3.158365 0.000000
v -2.843805 -3.158365 2.500000
v -2.125000 -3.680608 0.000000
v -2.125000 -3.680608 2.500000
v -1.313322 -4.041990 0.000000
v -1.313322 -4.041990 2.500000
v -0.444246 -4.226718 0.000000
v -0.444246 -4.226718 2.500000
v 0.444246 -4.226718 0.000000
v 0.444246 -4.226718 2.500000
v 1.313322 -4.041990 0.000000
v 1.313322 -4.041990 2.500000
v 2.125000 -3.680608 2.500000
v 2.125000 -3.680608 0.000000
v 2.843805 -3.158365 0.000000
v 2.843805 -3.158365 2.500000
v 3.438322 -2.498087 0.000000
v 3.438322 -2.498087 2.500000
v 3.882568 -1.728631 0.000000
v 3.882568 -1.728631 2.500000
v 4.157127 -0.883625 0.000000
v 4.157127 -0.883625 2.500000
v 11.674640 10.869847 0.000000
v 11.706603 10.606600 0.000000
v 11.706603 10.606600 2.500000
v 11.674640 10.869847 2.500000
v 11.580606 11.117796 0.000000
v 11.580606 11.117796 2.500000
v 11.429965 11.336035 0.000000
v 11.429965 11.336035 2.500000
v 11.231475 11.511882 0.000000
v 11.231475 11.511882 2.500000
v 10.996669 11.635118 2.500000
v 10.996669 11.635118 0.000000
v 10.739194 11.698580 0.000000
v 10.739194 11.698580 2.500000
v 10.474013 11.698580 2.500000
v 10.474013 11.698580 0.000000
v 10.216538 11.635118 0.000000
v 10.216538 11.635118 2.500000
v 9.981732 11.511882 0.000000
v 9.981732 11.511882 2.500000
v 9.783241 11.336035 0.000000
v 9.783241 11.336035 2.500000
v 9.632602 11.117796 0.000000
v 9.632602 11.117796 2.500000
v 9.538568 10.869847 0.000000
v 9.538568 10.869847 2.500000
v 9.506603 10.606600 2.500000
v 9.506603 10.606600 0.000000
v 9.538568 10.343352 0.000000
v 9.538568 10.343352 2.500000
v 9.632602 10.095405 0.000000
v 9.632602 10.095405 2.500000
v 9.783241 9.877165 0.000000
v 9.783241 9.877165 2.500000
v 9.981732 9.701318 0.000000
v 9.981732 9.701318 2.500000
v 10.216538 9.578082 0.000000
v 10.216538 9.578082 2.500000
v 10.474013 9.514620 0.000000
v 10.474013 9.514620 2.500000
v 10.739194 9.514620 0.000000
v 10.739194 9.514620 2.500000
v 10.996669 9.578082 0.000000
v 10.996669 9.578082 2.500000
v 11.231475 9.701318 0.000000
v 11.231475 9.701318 2.500000
v 11.429965 9.877165 0.000000
v 11.429965 9.877165 2.500000
v 11.580606 10.095405 0.000000
v 11.580606 10.095405 2.500000
v 11.674640 10.343352 0.000000
v 11.674640 10.343352 2.500000
v -9.538567 -10.343352 0.000000
v -9.506603 -10.606600 0.000000
v -9.506603 -10.606600 2.500000
v -9.538567 -10.343352 2.500000
v -9.632602 -10.095405 0.000000
v -9.632602 -10.095405 2.500000
v -9.783241 -9.877165 0.000000
v -9.783241 -9.877165 2.500000
v -9.981731 -9.701318 0.000000
v -9.981731 -9.701318 2.500000
v -10.216537 -9.578082 2.500000
v -10.216537 -9.578082 0.000000
v -10.474012 -9.514620 0.000000
v -10.474012 -9.514620 2.500000
v -10.739193 -9.514620 2.500000
v -10.739193 -9.514620 0.000000
v -10.996669 -9.578082 0.000000
v -10.996669 -9.578082 2.500000
v -11.231474 -9.701318 0.000000
v -11.231474 -9.701318 2.500000
v -11.429965 -9.877165 0.000000
v -11.429965 -9.877165 2.500000
v -11.580605 -10.095405 0.000000
v -11.580605 -10.095405 2.500000
v -11.674639 -10.343352 0.000000
v -11.674639 -10.343352 2.500000
v -11.706603 -10.606600 2.500000
v -11.706603 -10.606600 0.000000
v -11.674639 -10.869847 0.000000
v -11.674639 -10.869847 2.500000
v -11.580605 -11.117796 0.000000
v -11.580605 -11.117796 2.500000
v -11.429965 -11.336035 0.000000
v -11.429965 -11.336035 2.500000
v -11.231474 -11.511882 0.000000
v -11.231474 -11.511882 2.500000
v -10.996669 -11.635118 0.000000
v -10.996669 -11.635118 2.500000
v -10.739193 -11.698580 0.000000
v -10.739193 -11.698580 2.500000
v -10.474012 -11.698580 0.000000
v -10.474012 -11.698580 2.500000
v -10.216537 -11.635118 0.000000
v -10.216537 -11.635118 2.500000
v -9.981731 -11.511882 0.000000
v -9.981731 -11.511882 2.500000
v -9.783241 -11.336035 0.000000
v -9.783241 -11.336035 2.500000
v -9.632602 -11.117796 0.000000
v -9.632602 -11.117796 2.500000
v -9.538567 -10.869847 0.000000
v -9.538567 -10.869847 2.500000
v 7.500000 8.500000 5.500000
v 7.500000 -8.500000 2.500000
v 7.500000 -8.500000 5.500000
v 7.500000 8.500000 2.500000
v -7.500000 8.500000 2.500000
v -7.500000 8.500000 5.500000
v -7.500000 -8.500000 5.500000
v -7.500000 -8.500000 2.500000
v -5.036088 -8.500000 2.500000
v -5.036088 -8.500000 5.500000
v -5.036088 -16.759708 2.500000
v -5.036088 -16.759708 5.500000
v 5.000000 -16.770510 2.500000
v 6.708547 -16.163088 2.500000
v 5.000000 -16.770510 5.500000
v 6.708547 -16.163088 5.500000
v 8.345067 -15.382128 2.500000
v 8.345067 -15.382128 5.500000
v 9.891990 -14.436015 2.500000
v 9.891990 -14.436015 5.500000
v 11.332705 -13.334909 2.500000
v 11.332705 -13.334909 5.500000
v 12.651745 -12.090631 2.500000
v 12.651745 -12.090631 5.500000
v 13.834948 -10.716539 2.500000
v 13.834948 -10.716539 5.500000
v 14.869610 -9.227388 5.500000
v 14.869610 -9.227388 2.500000
v 15.744622 -7.639166 2.500000
v 15.744622 -7.639166 5.500000
v 16.450590 -5.968925 2.500000
v 16.450590 -5.968925 5.500000
v 16.979935 -4.234598 5.500000
v 16.979935 -4.234598 2.500000
v 17.326971 -2.454806 5.500000
v 17.326971 -2.454806 2.500000
v 17.487974 -0.648657 2.500000
v 17.487974 -0.648657 5.500000
v 17.461216 1.164457 5.500000
v 17.461216 1.164457 2.500000
v 17.246981 2.965068 2.500000
v 17.246981 2.965068 5.500000
v 16.847572 4.733844 2.500000
v 16.847572 4.733844 5.500000
v 16.267279 6.451794 2.500000
v 16.267279 6.451794 5.500000
v 15.512328 8.100474 5.500000
v 15.512328 8.100474 2.500000
v 14.590827 9.662182 2.500000
v 14.590827 9.662182 5.500000
v 13.512670 11.120151 2.500000
v 13.512670 11.120151 5.500000
v 12.289432 12.458727 2.500000
v 12.289432 12.458727 5.500000
v 10.934246 13.663537 2.500000
v 10.934246 13.663537 5.500000
v 9.461664 14.721647 5.500000
v 9.461664 14.721647 2.500000
v 7.887496 15.621696 2.500000
v 7.887496 15.621696 5.500000
v 6.228642 16.354021 2.500000
v 6.228642 16.354021 5.500000
v 4.502913 16.910759 5.500000
v 4.502913 16.910759 2.500000
v 2.728838 17.285933 2.500000
v 2.728838 17.285933 5.500000
v 0.925465 17.475512 2.500000
v 0.925465 17.475512 5.500000
v -0.887845 17.477463 5.500000
v -0.887845 17.477463 2.500000
v -2.691622 17.291765 2.500000
v -2.691622 17.291765 5.500000
v -4.466501 16.920412 2.500000
v -4.466501 16.920412 5.500000
v -6.193424 16.367392 5.500000
v -6.193424 16.367392 2.500000
v -7.853850 15.638639 2.500000
v -7.853850 15.638639 5.500000
v -9.429953 14.741981 2.500000
v -9.429953 14.741981 5.500000
v -10.904809 13.687042 2.500000
v -10.904809 13.687042 5.500000
v -12.262585 12.485151 2.500000
v -12.262585 12.485151 5.500000
v -13.488702 11.149212 2.500000
v -13.488702 11.149212 5.500000
v -14.569995 9.693568 2.500000
v -14.569995 9.693568 5.500000
v -15.494855 8.133847 2.500000
v -15.494855 8.133847 5.500000
v -16.253353 6.486796 2.500000
v -16.253353 6.486796 5.500000
v -16.837345 4.770099 5.500000
v -16.837345 4.770099 2.500000
v -17.240559 3.002186 2.500000
v -17.240559 3.002186 5.500000
v -17.458668 1.202041 2.500000
v -17.458668 1.202041 5.500000
v -17.489330 -0.611011 5.500000
v -17.489330 -0.611011 2.500000
v -17.332214 -2.417502 2.500000
v -17.332214 -2.417502 5.500000
v -16.989010 -4.198038 2.500000
v -16.989010 -4.198038 5.500000
v -16.463402 -5.933500 2.500000
v -16.463402 -5.933500 5.500000
v -15.761030 -7.605257 2.500000
v -15.761030 -7.605257 5.500000
v -14.889439 -9.195359 2.500000
v -14.889439 -9.195359 5.500000
v -13.857985 -10.686733 5.500000
v -13.857985 -10.686733 2.500000
v -12.677742 -12.063369 2.500000
v -12.677742 -12.063369 5.500000
v -11.361383 -13.310484 2.500000
v -11.361383 -13.310484 5.500000
v -9.923041 -14.414689 2.500000
v -9.923041 -14.414689 5.500000
v -8.378160 -15.364128 2.500000
v -8.378160 -15.364128 5.500000
v -6.743324 -16.148609 2.500000
v -6.743324 -16.148609 5.500000
v 5.000000 -8.500000 2.500000
v 5.000000 -8.500000 5.500000
v 11.674640 10.869847 2.500000
v 11.706603 10.606600 2.500000
v 11.706603 10.606600 5.500000
v 11.674640 10.869847 5.500000
v 11.580606 11.117796 2.500000
v 11.580606 11.117796 5.500000
v 11.429965 11.336035 2.500000
v 11.429965 11.336035 5.500000
v 11.231475 11.511882 2.500000
v 11.231475 11.511882 5.500000
v 10.996669 11.635118 5.500000
v 10.996669 11.635118 2.500000
v 10.739194 11.698580 2.500000
v 10.739194 11.698580 5.500000
v 10.474013 11.698580 5.500000
v 10.474013 11.698580 2.500000
v 10.216538 11.635118 2.500000
v 10.216538 11.635118 5.500000
v 9.981732 11.511882 5.500000
v 9.981732 11.511882 2.500000
v 9.783241 11.336035 2.500000
v 9.783241 11.336035 5.500000
v 9.632602 11.117796 5.500000
v 9.632602 11.117796 2.500000
v 9.538568 10.869847 2.500000
v 9.538568 10.869847 5.500000
v 9.506603 10.606600 2.500000
v 9.506603 10.606600 5.500000
v 9.538568 10.343352 2.500000
v 9.538568 10.343352 5.500000
v 9.632602 10.095405 2.500000
v 9.632602 10.095405 5.500000
v 9.783241 9.877165 5.500000
v 9.783241 9.877165 2.500000
v 9.981732 9.701318 2.500000
v 9.981732 9.701318 5.500000
v 10.216538 9.578082 2.500000
v 10.216538 9.578082 5.500000
v 10.474013 9.514620 2.500000
v 10.474013 9.514620 5.500000
v 10.739194 9.514620 5.500000
v 10.739194 9.514620 2.500000
v 10.996669 9.578082 2.500000
v 10.996669 9.578082 5.500000
v 11.231475 9.701318 5.500000
v 11.231475 9.701318 2.500000
v 11.429965 9.877165 2.500000
v 11.429965 9.877165 5.500000
v 11.580606 10.095405 2.500000
v 11.580606 10.095405 5.500000
v 11.674640 10.343352 2.500000
v 11.674640 10.343352 5.500000
v -9.538567 -10.343352 2.500000
v -9.506603 -10.606600 2.500000
v -9.506603 -10.606600 5.500000
v -9.538567 -10.343352 5.500000
v -9.632602 -10.095405 2.500000
v -9.632602 -10.095405 5.500000
v -9.783241 -9.877165 2.500000
v -9.783241 -9.877165 5.500000
v -9.981731 -9.701318 2.500000
v -9.981731 -9.701318 5.500000
v -10.216537 -9.578082 5.500000
v -10.216537 -9.578082 2.500000
v -10.474012 -9.514620 2.500000
v -10.474012 -9.514620 5.500000
v -10.739193 -9.514620 5.500000
v -10.739193 -9.514620 2.500000
v -10.996669 -9.578082 2.500000
v -10.996669 -9.578082 5.500000
v -11.231474 -9.701318 5.500000
v -11.231474 -9.701318 2.500000
v -11.429965 -9.877165 2.500000
v -11.429965 -9.877165 5.500000
v -11.580605 -10.095405 5.500000
v -11.580605 -10.095405 2.500000
v -11.674639 -10.343352 2.500000
v -11.674639 -10.343352 5.500000
v -11.706603 -10.606600 2.500000
v -11.706603 -10.606600 5.500000
v -11.674639 -10.869847 2.500000
v -11.674639 -10.869847 5.500000
v -11.580605 -11.117796 2.500000
v -11.580605 -11.117796 5.500000
v -11.429965 -11.336035 5.500000
v -11.429965 -11.336035 2.500000
v -11.231474 -11.511882 2.500000
v -11.231474 -11.511882 5.500000
v -10.996669 -11.635118 2.500000
v -10.996669 -11.635118 5.500000
v -10.739193 -11.698580 2.500000
v -10.739193 -11.698580 5.500000
v -10.474012 -11.698580 5.500000
v -10.474012 -11.698580 2.500000
v -10.216537 -11.635118 2.500000
v -10.216537 -11.635118 5.500000
v -9.981731 -11.511882 5.500000
v -9.981731 -11.511882 2.500000
v -9.783241 -11.336035 2.500000
v -9.783241 -11.336035 5.500000
v -9.632602 -11.117796 2.500000
v -9.632602 -11.117796 5.500000
v -9.538567 -10.869847 2.500000
v -9.538567 -10.869847 5.500000
vn 0.998630 0.052336 -0.000000
vn 0.998630 0.052336 0.000000
vn 0.987688 0.156435 0.000000
vn 0.987688 0.156435 -0.000000
vn 0.965926 0.258818 0.000000
vn 0.965926 0.258818 -0.000000
vn 0.933580 0.358368 0.000000
vn 0.933580 0.358368 -0.000000
vn 0.891006 0.453991 0.000000
vn 0.838671 0.544639 0.000000
vn 0.891006 0.453991 -0.000000
vn 0.838671 0.544639 0.000000
vn 0.777146 0.629321 0.000000
vn 0.777146 0.629321 -0.000000
vn 0.707107 0.707107 0.000000
vn 0.629321 0.777146 0.000000
vn 0.707107 0.707107 -0.000000
vn 0.629321 0.777146 0.000000
vn 0.544639 0.838671 0.000000
vn 0.453991 0.891006 0.000000
vn 0.544639 0.838671 -0.000000
vn 0.453991 0.891006 0.000000
vn 0.358368 0.933580 0.000000
vn 0.358368 0.933580 -0.000000
vn 0.258818 0.965926 0.000000
vn 0.156435 0.987688 0.000000
vn 0.258818 0.965926 -0.000000
vn 0.156435 0.987688 0.000000
vn 0.052336 0.998630 0.000000
vn 0.052336 0.998630 -0.000000
vn -0.052336 0.998630 0.000000
vn -0.052336 0.998630 0.000000
vn -0.156435 0.987688 0.000000
vn -0.156435 0.987688 0.000000
vn -0.258818 0.965926 0.000000
vn -0.258818 0.965926 0.000000
vn -0.358368 0.933580 0.000000
vn -0.358368 0.933580 0.000000
vn -0.453991 0.891006 0.000000
vn -0.453991 0.891006 0.000000
vn -0.544639 0.838671 0.000000
vn -0.544639 0.838671 0.000000
vn -0.629321 0.777146 0.000000
vn -0.629321 0.777146 0.000000
vn -0.707107 0.707107 0.000000
vn -0.707107 0.707107 0.000000
vn -0.777146 0.629321 0.000000
vn -0.777146 0.629321 0.000000
vn -0.838671 0.544639 0.000000
vn -0.838671 0.544639 0.000000
vn -0.891006 0.453991 0.000000
vn -0.891006 0.453991 0.000000
vn -0.933580 0.358368 0.000000
vn -0.933580 0.358368 0.000000
vn -0.965926 0.258818 0.000000
vn -0.987688 0.156435 0.000000
vn -0.965926 0.258818 0.000000
vn -0.987688 0.156435 0.000000
vn -0.998630 0.052336 0.000000
vn -0.998630 0.052336 0.000000
vn -0.998630 -0.052336 0.000000
vn -0.998630 -0.052336 0.000000
vn -0.987688 -0.156435 0.000000
vn -0.965926 -0.258818 -0.000000
vn -0.987688 -0.156435 0.000000
vn -0.965926 -0.258818 0.000000
vn -0.933580 -0.358368 0.000000
vn -0.933580 -0.358368 0.000000
vn -0.891006 -0.453991 0.000000
vn -0.891006 -0.453991 0.000000
vn -0.838671 -0.544639 0.000000
vn -0.777146 -0.629321 -0.000000
vn -0.838671 -0.544639 0.000000
vn -0.777146 -0.629321 0.000000
vn -0.707107 -0.707107 0.000000
vn -0.707107 -0.707107 0.000000
vn -0.629321 -0.777146 0.000000
vn -0.629321 -0.777146 0.000000
vn -0.544639 -0.838671 0.000000
vn -0.544639 -0.838671 0.000000
vn -0.453991 -0.891006 0.000000
vn -0.453991 -0.891006 0.000000
vn -0.358368 -0.933580 0.000000
vn -0.358368 -0.933580 0.000000
vn -0.258818 -0.965926 0.000000
vn -0.258818 -0.965926 0.000000
vn -0.156435 -0.987688 0.000000
vn -0.156435 -0.987688 0.000000
vn -0.052336 -0.998630 -0.000000
vn -0.052336 -0.998630 0.000000
vn 0.052336 -0.998630 0.000000
vn 0.052336 -0.998630 0.000000
vn 0.156435 -0.987688 0.000000
vn 0.156435 -0.987688 0.000000
vn 0.258818 -0.965926 0.000000
vn 0.258818 -0.965926 0.000000
vn 0.358368 -0.933580 0.000000
vn 0.358368 -0.933580 0.000000
vn 0.453991 -0.891006 0.000000
vn 0.453991 -0.891006 0.000000
vn 0.544639 -0.838671 0.000000
vn 0.544639 -0.838671 0.000000
vn 0.629321 -0.777146 0.000000
vn 0.629321 -0.777146 0.000000
vn 0.707107 -0.707107 0.000000
vn 0.707107 -0.707107 0.000000
vn 0.777146 -0.629321 0.000000
vn 0.777146 -0.629321 0.000000
vn 0.838671 -0.544639 0.000000
vn 0.838671 -0.544639 0.000000
vn 0.891006 -0.453991 0.000000
vn 0.891006 -0.453991 0.000000
vn 0.933580 -0.358368 0.000000
vn 0.933580 -0.358368 0.000000
vn 0.965926 -0.258818 0.000000
vn 0.965926 -0.258818 0.000000
vn 0.987688 -0.156435 0.000000
vn 0.987688 -0.156435 0.000000
vn 0.998630 -0.052336 0.000000
vn 0.998630 -0.052336 0.000000
vn -0.994522 -0.104528 0.000000
vn -0.994522 -0.104528 0.000000
vn -0.951056 -0.309017 0.000000
vn -0.951056 -0.309017 0.000000
vn -0.866026 -0.500000 0.000000
vn -0.866026 -0.500000 0.000000
vn -0.743145 -0.669131 0.000000
vn -0.587785 -0.809017 0.000000
vn -0.743145 -0.669131 0.000000
vn -0.587785 -0.809017 0.000000
vn -0.406737 -0.913545 0.000000
vn -0.406737 -0.913545 0.000000
vn -0.207912 -0.978148 0.000000
vn -0.207912 -0.978148 0.000000
vn 0.000000 -1.000000 0.000000
vn 0.207912 -0.978148 0.000000
vn 0.000000 -1.000000 0.000000
vn 0.207912 -0.978148 0.000000
vn 0.406737 -0.913545 0.000000
vn 0.406737 -0.913545 0.000000
vn 0.587785 -0.809017 0.000000
vn 0.587785 -0.809017 0.000000
vn 0.743145 -0.669131 0.000000
vn 0.743145 -0.669131 0.000000
vn 0.866026 -0.500000 0.000000
vn 0.866026 -0.500000 0.000000
vn 0.951056 -0.309017 0.000000
vn 0.951056 -0.309017 0.000000
vn 0.994522 -0.104528 0.000000
vn 0.994522 -0.104528 0.000000
vn 0.994522 0.104528 -0.000000
vn 0.994522 0.104528 0.000000
vn 0.951056 0.309017 -0.000000
vn 0.951056 0.309017 0.000000
vn 0.866026 0.500000 -0.000000
vn 0.866026 0.500000 0.000000
vn 0.743145 0.669131 -0.000000
vn 0.743145 0.669131 0.000000
vn 0.587785 0.809017 -0.000000
vn 0.587785 0.809017 0.000000
vn 0.406737 0.913545 -0.000000
vn 0.406737 0.913545 0.000000
vn 0.207912 0.978148 -0.000000
vn 0.207912 0.978148 0.000000
vn 0.000000 1.000000 -0.000000
vn 0.000000 1.000000 0.000000
vn -0.207912 0.978148 0.000000
vn -0.406737 0.913545 0.000000
vn -0.207912 0.978148 0.000000
vn -0.406737 0.913545 0.000000
vn -0.587785 0.809017 0.000000
vn -0.587785 0.809017 0.000000
vn -0.743145 0.669131 0.000000
vn -0.743145 0.669131 0.000000
vn -0.866026 0.500000 0.000000
vn -0.866026 0.500000 0.000000
vn -0.951056 0.309017 0.000000
vn -0.951056 0.309017 0.000000
vn -0.994522 0.104528 0.000000
vn -0.994522 0.104528 0.000000
vn -0.992709 -0.120534 0.000000
vn -0.992709 -0.120534 0.000000
vn -0.935017 -0.354604 0.000000
vn -0.935017 -0.354604 0.000000
vn -0.822982 -0.568068 0.000000
vn -0.822982 -0.568068 0.000000
vn -0.663123 -0.748511 0.000000
vn -0.464723 -0.885456 0.000000
vn -0.663123 -0.748511 0.000000
vn -0.464723 -0.885456 0.000000
vn -0.239317 -0.970941 0.000000
vn 0.000000 -1.000000 0.000000
vn -0.239317 -0.970941 0.000000
vn 0.000000 -1.000000 0.000000
vn 0.239317 -0.970941 0.000000
vn 0.239317 -0.970941 0.000000
vn 0.464723 -0.885456 0.000000
vn 0.464723 -0.885456 0.000000
vn 0.663121 -0.748512 0.000000
vn 0.663121 -0.748512 0.000000
vn 0.822984 -0.568065 0.000000
vn 0.822984 -0.568065 0.000000
vn 0.935017 -0.354604 0.000000
vn 0.935017 -0.354604 0.000000
vn 0.992709 -0.120538 0.000000
vn 0.992709 -0.120538 0.000000
vn 0.992709 0.120538 -0.000000
vn 0.992709 0.120538 0.000000
vn 0.935016 0.354605 -0.000000
vn 0.935016 0.354605 0.000000
vn 0.822985 0.568063 -0.000000
vn 0.822985 0.568063 0.000000
vn 0.663121 0.748512 -0.000000
vn 0.663121 0.748512 0.000000
vn 0.464723 0.885456 -0.000000
vn 0.464723 0.885456 0.000000
vn 0.239317 0.970941 -0.000000
vn 0.239317 0.970941 0.000000
vn 0.000000 1.000000 -0.000000
vn 0.000000 1.000000 0.000000
vn -0.239317 0.970941 0.000000
vn -0.239317 0.970941 0.000000
vn -0.464723 0.885456 0.000000
vn -0.464723 0.885456 0.000000
vn -0.663123 0.748511 0.000000
vn -0.663123 0.748511 0.000000
vn -0.822983 0.568066 0.000000
vn -0.822983 0.568066 0.000000
vn -0.935016 0.354605 0.000000
vn -0.935016 0.354605 0.000000
vn -0.992709 0.120534 0.000000
vn -0.992709 0.120534 0.000000
vn -0.992709 -0.120534 0.000000
vn -0.992709 -0.120534 0.000000
vn -0.935015 -0.354608 0.000000
vn -0.935015 -0.354608 0.000000
vn -0.822985 -0.568063 0.000000
vn -0.822985 -0.568063 0.000000
vn -0.663123 -0.748511 0.000000
vn -0.464723 -0.885456 0.000000
vn -0.663123 -0.748511 0.000000
vn -0.464723 -0.885456 0.000000
vn -0.239317 -0.970941 0.000000
vn 0.000000 -1.000000 0.000000
vn -0.239317 -0.970941 0.000000
vn 0.000000 -1.000000 0.000000
vn 0.239316 -0.970942 0.000000
vn 0.239316 -0.970942 0.000000
vn 0.464725 -0.885455 0.000000
vn 0.464725 -0.885455 0.000000
vn 0.663121 -0.748512 0.000000
vn 0.663121 -0.748512 0.000000
vn 0.822985 -0.568063 0.000000
vn 0.822985 -0.568063 0.000000
vn 0.935016 -0.354605 0.000000
vn 0.935016 -0.354605 0.000000
vn 0.992709 -0.120538 0.000000
vn 0.992709 -0.120538 0.000000
vn 0.992709 0.120538 -0.000000
vn 0.992709 0.120538 0.000000
vn 0.935017 0.354604 -0.000000
vn 0.935017 0.354604 0.000000
vn 0.822984 0.568065 -0.000000
vn 0.822984 0.568065 0.000000
vn 0.663121 0.748512 -0.000000
vn 0.663121 0.748512 0.000000
vn 0.464725 0.885455 -0.000000
vn 0.464725 0.885455 0.000000
vn 0.239316 0.970942 -0.000000
vn 0.239316 0.970942 0.000000
vn 0.000000 1.000000 -0.000000
vn 0.000000 1.000000 0.000000
vn -0.239317 0.970941 0.000000
vn -0.239317 0.970941 0.000000
vn -0.464723 0.885456 0.000000
vn -0.464723 0.885456 0.000000
vn -0.663123 0.748511 0.000000
vn -0.663123 0.748511 0.000000
vn -0.822984 0.568065 0.000000
vn -0.822984 0.568065 0.000000
vn -0.935015 0.354607 0.000000
vn -0.935015 0.354607 0.000000
vn -0.992709 0.120534 0.000000
vn -0.992709 0.120534 0.000000
vn 0.000000 0.000000 -1.000000
vn 0.000000 -0.000000 -1.000000
vn 0.000000 0.000000 -1.000000
vn 0.000000 -0.000000 -1.000000
vn 0.000000 0.000000 -1.000000
vn 0.000000 -0.000000 -1.000000
vn 0.000000 0.000000 -1.000000
vn 0.000000 0.000000 -1.000000
vn 0.000000 0.000000 -1.000000
vn 0.000000 -0.000000 -1.000000
vn 0.000000 0.000000 -1.000000
vn 0.000000 0.000000 -1.000000
vn 0.000000 0.000000 -1.000000
vn 0.000000 -0.000000 -1.000000
vn 0.000000 0.000000 -1.000000
vn 0.000000 0.000000 -1.000000
vn 0.000000 0.000000 -1.000000
vn 0.000000 -0.000000 -1.000000
vn 0.000000 0.000000 -1.000000
vn 0.000000 0.000000 -1.000000
vn 0.000000 0.000000 -1.000000
vn 0.000000 0.000000 -1.000000
vn 0.000000 0.000000 -1.000000
vn 0.000000 0.000000 -1.000000
vn 0.000000 0.000000 -1.000000
vn 0.000000 0.000000 -1.000000
vn 0.000000 0.000000 -1.000000
vn 0.000000 0.000000 -1.000000
vn 0.000000 0.000000 -1.000000
vn 0.000000 0.000000 -1.000000
vn 0.000000 0.000000 -1.000000
vn 0.000000 0.000000 -1.000000
vn 0.000000 0.000000 -1.000000
vn 0.000000 -0.000000 -1.000000
vn 0.000000 0.000000 -1.000000
vn 0.000000 0.000000 -1.000000
vn 0.000000 0.000000 -1.000000
vn 0.000000 0.000000 -1.000000
vn 0.000000 0.000000 -1.000000
vn 0.000000 0.000000 -1.000000
vn 0.000000 -0.000000 -1.000000
vn 0.000000 0.000000 -1.000000
vn 0.000000 0.000000 -1.000000
vn 0.000000 0.000000 -1.000000
vn 0.000000 0.000000 -1.000000
vn 0.000000 -0.000000 -1.000000
vn 0.000000 0.000000 -1.000000
vn 0.000000 0.000000 -1.000000
vn 0.000000 0.000000 -1.000000
vn 0.000000 -0.000000 -1.000000
vn 0.000000 0.000000 -1.000000
vn 0.000000 0.000000 -1.000000
vn 0.000000 0.000000 -1.000000
vn 0.000000 0.000000 -1.000000
vn 0.000000 0.000000 -1.000000
vn 0.000000 -0.000000 -1.000000
vn 0.000000 -0.000000 -1.000000
vn 0.000000 0.000000 -1.000000
vn 0.000000 0.000000 -1.000000
vn 0.000000 0.000000 -1.000000
vn 0.000000 -0.000000 -1.000000
vn 0.000000 -0.000000 -1.000000
vn 0.000000 0.000000 -1.000000
vn 0.000000 0.000000 -1.000000
vn 0.000000 0.000000 -1.000000
vn 0.000000 0.000000 -1.000000
vn 0.000000 -0.000000 -1.000000
vn 0.000000 -0.000000 -1.000000
vn 0.000000 0.000000 -1.000000
vn 0.000000 0.000000 -1.000000
vn 0.000000 0.000000 -1.000000
vn 0.000000 0.000000 -1.000000
vn 0.000000 0.000000 -1.000000
vn 0.000000 -0.000000 -1.000000
vn 0.000000 0.000000 -1.000000
vn 0.000000 0.000000 -1.000000
vn 0.000000 0.000000 -1.000000
vn 0.000000 0.000000 -1.000000
vn 0.000000 0.000000 -1.000000
vn 0.000000 -0.000000 -1.000000
vn 0.000000 0.000000 -1.000000
vn 0.000000 0.000000 -1.000000
vn 0.000000 0.000000 -1.000000
vn 0.000000 0.000000 -1.000000
vn 0.000000 -0.000000 -1.000000
vn 0.000000 0.000000 -1.000000
vn 0.000000 0.000000 -1.000000
vn 0.000000 0.000000 -1.000000
vn 0.000000 0.000000 -1.000000
vn 0.000000 0.000000 -1.000000
vn 0.000000 0.000000 -1.000000
vn 0.000000 -0.000000 -1.000000
vn 0.000000 0.000000 -1.000000
vn 0.000000 0.000000 -1.000000
vn 0.000000 0.000000 -1.000000
vn 0.000000 0.000000 -1.000000
vn 0.000000 0.000000 -1.000000
vn 0.000000 0.000000 -1.000000
vn 0.000000 0.000000 -1.000000
vn 0.000000 -0.000000 -1.000000
vn 0.000000 0.000000 -1.000000
vn 0.000000 0.000000 -1.000000
vn 0.000000 0.000000 -1.000000
vn 0.000000 -0.000000 -1.000000
vn 0.000000 0.000000 -1.000000
vn 0.000000 0.000000 -1.000000
vn 0.000000 0.000000 -1.000000
vn 0.000000 -0.000000 -1.000000
vn 0.000000 0.000000 -1.000000
vn 0.000000 0.000000 -1.000000
vn 0.000000 -0.000000 -1.000000
vn 0.000000 0.000000 -1.000000
vn 0.000000 0.000000 -1.000000
vn -0.000000 -0.000000 -1.000000
vn 0.000000 0.000000 -1.000000
vn 0.000000 -0.000000 -1.000000
vn 0.000000 0.000000 -1.000000
vn 0.000000 0.000000 -1.000000
vn 0.000000 -0.000000 -1.000000
vn 0.000000 -0.000000 -1.000000
vn 0.000000 0.000000 -1.000000
vn 0.000000 0.000000 -1.000000
vn 0.000000 0.000000 -1.000000
vn 0.000000 0.000000 -1.000000
vn 0.000000 0.000000 -1.000000
vn 0.000000 -0.000000 -1.000000
vn 0.000000 -0.000000 -1.000000
vn 0.000000 0.000000 -1.000000
vn 0.000000 0.000000 -1.000000
vn 0.000000 0.000000 -1.000000
vn 0.000000 0.000000 -1.000000
vn 0.000000 0.000000 -1.000000
vn 0.000000 0.000000 -1.000000
vn 0.000000 -0.000000 -1.000000
vn 0.000000 -0.000000 -1.000000
vn 0.000000 -0.000000 -1.000000
vn 0.000000 0.000000 -1.000000
vn 0.000000 0.000000 -1.000000
vn 0.000000 0.000000 -1.000000
vn 0.000000 0.000000 -1.000000
vn 0.000000 0.000000 -1.000000
vn 0.000000 0.000000 -1.000000
vn 0.000000 0.000000 -1.000000
vn 0.000000 0.000000 -1.000000
vn 0.000000 0.000000 -1.000000
vn 0.000000 0.000000 -1.000000
vn 0.000000 0.000000 1.000000
vn 0.000000 0.000000 1.000000
vn 0.000000 0.000000 1.000000
vn 0.000000 0.000000 1.000000
vn 0.000000 0.000000 1.000000
vn 0.000000 0.000000 1.000000
vn 0.000000 0.000000 1.000000
vn 0.000000 0.000000 1.000000
vn 0.000000 0.000000 1.000000
vn 0.000000 0.000000 1.000000
vn 0.000000 0.000000 1.000000
vn 0.000000 0.000000 1.000000
vn 0.000000 0.000000 1.000000
vn 0.000000 0.000000 1.000000
vn 0.000000 0.000000 1.000000
vn 0.000000 0.000000 1.000000
vn 0.000000 0.000000 1.000000
vn 0.000000 0.000000 1.000000
vn 0.000000 0.000000 1.000000
vn 0.000000 0.000000 1.000000
vn 0.000000 0.000000 1.000000
vn 0.000000 0.000000 1.000000
vn 0.000000 0.000000 1.000000
vn 0.000000 0.000000 1.000000
vn 0.000000 0.000000 1.000000
vn 0.000000 0.000000 1.000000
vn 0.000000 0.000000 1.000000
vn 0.000000 0.000000 1.000000
vn 0.000000 0.000000 1.000000
vn 0.000000 0.000000 1.000000
vn 0.000000 0.000000 1.000000
vn 0.000000 0.000000 1.000000
vn 0.000000 0.000000 1.000000
vn 0.000000 0.000000 1.000000
vn 0.000000 0.000000 1.000000
vn 0.000000 0.000000 1.000000
vn 0.000000 0.000000 1.000000
vn 0.000000 0.000000 1.000000
vn 0.000000 0.000000 1.000000
vn 0.000000 0.000000 1.000000
vn 0.000000 0.000000 1.000000
vn 0.000000 0.000000 1.000000
vn 0.000000 0.000000 1.000000
vn 0.000000 0.000000 1.000000
vn 0.000000 0.000000 1.000000
vn 0.000000 0.000000 1.000000
vn 0.000000 0.000000 1.000000
vn 0.000000 0.000000 1.000000
vn 0.000000 0.000000 1.000000
vn 0.000000 0.000000 1.000000
vn 0.000000 0.000000 1.000000
vn 0.000000 0.000000 1.000000
vn 0.000000 0.000000 1.000000
vn 0.000000 0.000000 1.000000
vn 0.000000 0.000000 1.000000
vn 0.000000 0.000000 1.000000
vn 0.000000 0.000000 1.000000
vn 0.000000 0.000000 1.000000
vn 0.000000 0.000000 1.000000
vn 0.000000 0.000000 1.000000
vn 0.000000 0.000000 1.000000
vn 0.000000 0.000000 1.000000
vn 0.000000 0.000000 1.000000
vn 0.000000 0.000000 1.000000
vn 0.000000 0.000000 1.000000
vn 0.000000 0.000000 1.000000
vn 0.000000 0.000000 1.000000
vn 0.000000 0.000000 1.000000
vn 0.000000 0.000000 1.000000
vn 0.000000 0.000000 1.000000
vn 0.000000 0.000000 1.000000
vn 0.000000 0.000000 1.000000
vn 0.000000 0.000000 1.000000
vn 0.000000 0.000000 1.000000
vn 0.000000 0.000000 1.000000
vn 0.000000 0.000000 1.000000
vn 0.000000 0.000000 1.000000
vn 0.000000 0.000000 1.000000
vn 0.000000 0.000000 1.000000
vn 0.000000 0.000000 1.000000
vn 0.000000 0.000000 1.000000
vn 0.000000 0.000000 1.000000
vn 0.000000 0.000000 1.000000
vn 0.000000 0.000000 1.000000
vn 0.000000 0.000000 1.000000
vn 0.000000 0.000000 1.000000
vn 0.000000 0.000000 1.000000
vn 0.000000 0.000000 1.000000
vn 0.000000 0.000000 1.000000
vn 0.000000 0.000000 1.000000
vn 0.000000 0.000000 1.000000
vn 0.000000 0.000000 1.000000
vn 0.000000 0.000000 1.000000
vn 0.000000 0.000000 1.000000
vn 0.000000 0.000000 1.000000
vn 0.000000 0.000000 1.000000
vn 0.000000 0.000000 1.000000
vn 0.000000 0.000000 1.000000
vn 0.000000 0.000000 1.000000
vn 0.000000 0.000000 1.000000
vn 0.000000 0.000000 1.000000
vn 0.000000 0.000000 1.000000
vn 0.000000 0.000000 1.000000
vn 0.000000 0.000000 1.000000
vn 0.000000 0.000000 1.000000
vn 0.000000 0.000000 1.000000
vn 0.000000 0.000000 1.000000
vn 0.000000 0.000000 1.000000
vn 0.000000 0.000000 1.000000
vn 0.000000 0.000000 1.000000
vn 0.000000 0.000000 1.000000
vn 0.000000 0.000000 1.000000
vn 0.000000 0.000000 1.000000
vn 0.000000 0.000000 1.000000
vn 0.000000 0.000000 1.000000
vn 0.000000 0.000000 1.000000
vn 0.000000 0.000000 1.000000
vn 0.000000 0.000000 1.000000
vn 0.000000 0.000000 1.000000
vn 0.000000 0.000000 1.000000
vn 0.000000 0.000000 1.000000
vn 0.000000 0.000000 1.000000
vn 0.000000 0.000000 1.000000
vn 0.000000 0.000000 1.000000
vn 0.000000 0.000000 1.000000
vn 0.000000 0.000000 1.000000
vn 0.000000 0.000000 1.000000
vn 0.000000 0.000000 1.000000
vn 0.000000 0.000000 1.000000
vn 0.000000 0.000000 1.000000
vn 0.000000 0.000000 1.000000
vn 0.000000 0.000000 1.000000
vn 0.000000 0.000000 1.000000
vn 0.000000 0.000000 1.000000
vn 0.000000 0.000000 1.000000
vn 0.000000 0.000000 1.000000
vn 0.000000 0.000000 1.000000
vn 0.000000 0.000000 1.000000
vn 0.000000 0.000000 1.000000
vn 0.000000 0.000000 1.000000
vn 0.000000 0.000000 1.000000
vn 0.000000 0.000000 1.000000
vn 0.000000 0.000000 1.000000
vn 0.000000 0.000000 1.000000
vn 0.000000 0.000000 1.000000
vn 0.000000 0.000000 1.000000
vn -1.000000 -0.000000 0.000000
vn -1.000000 0.000000 0.000000
vn 0.000000 -1.000000 0.000000
vn 0.000000 -1.000000 0.000000
vn 1.000000 -0.000000 0.000000
vn 1.000000 0.000000 0.000000
vn 0.000000 1.000000 0.000000
vn 0.000000 1.000000 -0.000000
vn 1.000000 0.000000 0.000000
vn 1.000000 0.000000 0.000000
vn 0.334980 -0.942225 0.000000
vn 0.334980 -0.942225 0.000000
vn 0.430682 -0.902504 0.000000
vn 0.430682 -0.902504 0.000000
vn 0.521760 -0.853093 0.000000
vn 0.521760 -0.853093 0.000000
vn 0.607235 -0.794522 0.000000
vn 0.607235 -0.794522 0.000000
vn 0.686192 -0.727421 0.000000
vn 0.686192 -0.727421 0.000000
vn 0.757780 -0.652510 0.000000
vn 0.821233 -0.570593 0.000000
vn 0.757780 -0.652510 0.000000
vn 0.821233 -0.570593 0.000000
vn 0.875869 -0.482550 0.000000
vn 0.875869 -0.482550 0.000000
vn 0.921100 -0.389325 0.000000
vn 0.956442 -0.291922 0.000000
vn 0.921100 -0.389325 0.000000
vn 0.981515 -0.191383 0.000000
vn 0.956442 -0.291922 0.000000
vn 0.981515 -0.191383 0.000000
vn 0.996050 -0.088790 0.000000
vn 0.999891 0.014757 0.000000
vn 0.996050 -0.088790 0.000000
vn 0.999891 0.014757 0.000000
vn 0.992996 0.118146 0.000000
vn 0.992996 0.118146 -0.000000
vn 0.975440 0.220265 0.000000
vn 0.975440 0.220265 -0.000000
vn 0.947411 0.320019 0.000000
vn 0.909210 0.416338 0.000000
vn 0.947411 0.320019 -0.000000
vn 0.909210 0.416338 0.000000
vn 0.861247 0.508187 0.000000
vn 0.861247 0.508187 -0.000000
vn 0.804037 0.594579 0.000000
vn 0.804037 0.594579 -0.000000
vn 0.738194 0.674588 0.000000
vn 0.738194 0.674588 -0.000000
vn 0.664426 0.747354 0.000000
vn 0.583524 0.812096 0.000000
vn 0.664426 0.747354 -0.000000
vn 0.583524 0.812096 0.000000
vn 0.496357 0.868119 -0.000000
vn 0.496357 0.868119 0.000000
vn 0.403861 0.914821 -0.000000
vn 0.403861 0.914821 0.000000
vn 0.307028 0.951700 0.000000
vn 0.307028 0.951700 0.000000
vn 0.206900 0.978362 -0.000000
vn 0.206900 0.978362 0.000000
vn 0.104549 0.994520 -0.000000
vn 0.104549 0.994520 0.000000
vn 0.001076 0.999999 0.000000
vn 0.001076 0.999999 0.000000
vn -0.102408 0.994742 0.000000
vn -0.102408 0.994742 0.000000
vn -0.204793 0.978805 0.000000
vn -0.304978 0.952359 0.000000
vn -0.204793 0.978805 0.000000
vn -0.304978 0.952359 0.000000
vn -0.401890 0.915688 0.000000
vn -0.401890 0.915688 0.000000
vn -0.494487 0.869185 0.000000
vn -0.494487 0.869185 0.000000
vn -0.581775 0.813350 0.000000
vn -0.581775 0.813350 0.000000
vn -0.662816 0.748783 0.000000
vn -0.662816 0.748783 0.000000
vn -0.736740 0.676176 0.000000
vn -0.736740 0.676176 0.000000
vn -0.802755 0.596309 0.000000
vn -0.802755 0.596309 0.000000
vn -0.860151 0.510039 0.000000
vn -0.860151 0.510039 0.000000
vn -0.908311 0.418295 0.000000
vn -0.946720 0.322058 0.000000
vn -0.908311 0.418295 0.000000
vn -0.946720 0.322058 0.000000
vn -0.974964 0.222363 0.000000
vn -0.974964 0.222363 0.000000
vn -0.992740 0.120282 0.000000
vn -0.999857 0.016910 0.000000
vn -0.992740 0.120282 0.000000
vn -0.999857 0.016910 0.000000
vn -0.996239 -0.086646 0.000000
vn -0.996239 -0.086646 0.000000
vn -0.981925 -0.189270 0.000000
vn -0.981925 -0.189270 0.000000
vn -0.957069 -0.289861 0.000000
vn -0.957069 -0.289861 0.000000
vn -0.921936 -0.387342 0.000000
vn -0.921936 -0.387342 0.000000
vn -0.876905 -0.480663 0.000000
vn -0.876905 -0.480663 0.000000
vn -0.822459 -0.568824 -0.000000
vn -0.822459 -0.568824 0.000000
vn -0.759183 -0.650877 0.000000
vn -0.759183 -0.650877 0.000000
vn -0.687756 -0.725942 0.000000
vn -0.687756 -0.725942 0.000000
vn -0.608944 -0.793213 0.000000
vn -0.608944 -0.793213 0.000000
vn -0.523594 -0.851968 0.000000
vn -0.523594 -0.851968 0.000000
vn -0.432624 -0.901575 0.000000
vn -0.432624 -0.901575 0.000000
vn -0.337007 -0.941502 -0.000000
vn -0.337007 -0.941502 0.000000
vn -1.000000 0.000000 0.000000
vn -1.000000 -0.000000 0.000000
vn 0.000000 1.000000 -0.000000
vn 0.000000 1.000000 0.000000
vn -0.992709 -0.120534 0.000000
vn -0.992709 -0.120534 0.000000
vn -0.935017 -0.354604 0.000000
vn -0.935017 -0.354604 0.000000
vn -0.822982 -0.568068 0.000000
vn -0.822982 -0.568068 0.000000
vn -0.663123 -0.748510 0.000000
vn -0.464723 -0.885456 0.000000
vn -0.663123 -0.748510 0.000000
vn -0.464723 -0.885456 0.000000
vn -0.239317 -0.970941 0.000000
vn 0.000000 -1.000000 0.000000
vn -0.239317 -0.970941 0.000000
vn 0.000000 -1.000000 0.000000
vn 0.239317 -0.970941 0.000000
vn 0.464723 -0.885456 0.000000
vn 0.239317 -0.970941 0.000000
vn 0.464723 -0.885456 0.000000
vn 0.663121 -0.748512 0.000000
vn 0.822984 -0.568065 0.000000
vn 0.663121 -0.748512 0.000000
vn 0.822984 -0.568065 0.000000
vn 0.935017 -0.354604 0.000000
vn 0.935017 -0.354604 0.000000
vn 0.992709 -0.120538 0.000000
vn 0.992709 -0.120538 0.000000
vn 0.992709 0.120538 -0.000000
vn 0.992709 0.120538 0.000000
vn 0.935016 0.354605 -0.000000
vn 0.935016 0.354605 0.000000
vn 0.822985 0.568063 -0.000000
vn 0.822985 0.568063 -0.000000
vn 0.663121 0.748512 -0.000000
vn 0.663121 0.748512 0.000000
vn 0.464723 0.885456 -0.000000
vn 0.464723 0.885456 0.000000
vn 0.239317 0.970941 -0.000000
vn 0.000000 1.000000 0.000000
vn 0.239317 0.970941 0.000000
vn 0.000000 1.000000 -0.000000
vn -0.239317 0.970941 0.000000
vn -0.464723 0.885456 0.000000
vn -0.239317 0.970941 0.000000
vn -0.464723 0.885456 0.000000
vn -0.663123 0.748510 0.000000
vn -0.663123 0.748510 0.000000
vn -0.822983 0.568066 0.000000
vn -0.822983 0.568066 0.000000
vn -0.935016 0.354605 0.000000
vn -0.935016 0.354605 0.000000
vn -0.992709 0.120534 0.000000
vn -0.992709 0.120534 0.000000
vn -0.992709 -0.120534 0.000000
vn -0.992709 -0.120534 0.000000
vn -0.935015 -0.354608 0.000000
vn -0.935015 -0.354608 0.000000
vn -0.822985 -0.568063 0.000000
vn -0.822985 -0.568063 0.000000
vn -0.663123 -0.748510 0.000000
vn -0.464723 -0.885456 0.000000
vn -0.663123 -0.748510 0.000000
vn -0.464723 -0.885456 0.000000
vn -0.239317 -0.970941 0.000000
vn 0.000000 -1.000000 0.000000
vn -0.239317 -0.970941 0.000000
vn 0.000000 -1.000000 0.000000
vn 0.239316 -0.970942 0.000000
vn 0.464725 -0.885455 0.000000
vn 0.239316 -0.970942 0.000000
vn 0.464725 -0.885455 0.000000
vn 0.663121 -0.748512 0.000000
vn 0.822985 -0.568063 0.000000
vn 0.663121 -0.748512 0.000000
vn 0.822985 -0.568063 0.000000
vn 0.935016 -0.354605 0.000000
vn 0.935016 -0.354605 0.000000
vn 0.992709 -0.120538 0.000000
vn 0.992709 -0.120538 0.000000
vn 0.992709 0.120538 -0.000000
vn 0.992709 0.120538 0.000000
vn 0.935017 0.354604 -0.000000
vn 0.935017 0.354604 0.000000
vn 0.822984 0.568065 -0.000000
vn 0.822984 0.568065 -0.000000
vn 0.663121 0.748512 -0.000000
vn 0.663121 0.748512 0.000000
vn 0.464725 0.885455 -0.000000
vn 0.464725 0.885455 0.000000
vn 0.239316 0.970942 -0.000000
vn 0.000000 1.000000 0.000000
vn 0.239316 0.970942 0.000000
vn 0.000000 1.000000 -0.000000
vn -0.239317 0.970941 0.000000
vn -0.464723 0.885456 0.000000
vn -0.239317 0.970941 0.000000
vn -0.464723 0.885456 0.000000
vn -0.663123 0.748510 0.000000
vn -0.663123 0.748510 0.000000
vn -0.822984 0.568065 0.000000
vn -0.822984 0.568065 0.000000
vn -0.935015 0.354607 0.000000
vn -0.935015 0.354607 0.000000
vn -0.992709 0.120534 0.000000
vn -0.992709 0.120534 0.000000
vn 0.000000 -0.000000 -1.000000
vn 0.000000 0.000000 -1.000000
vn 0.000000 0.000000 -1.000000
vn 0.000000 -0.000000 -1.000000
vn 0.000000 0.000000 -1.000000
vn 0.000000 0.000000 -1.000000
vn 0.000000 -0.000000 -1.000000
vn 0.000000 0.000000 -1.000000
vn 0.000000 -0.000000 -1.000000
vn 0.000000 0.000000 -1.000000
vn 0.000000 -0.000000 -1.000000
vn 0.000000 0.000000 -1.000000
vn 0.000000 0.000000 -1.000000
vn 0.000000 0.000000 -1.000000
vn 0.000000 0.000000 -1.000000
vn 0.000000 0.000000 -1.000000
vn 0.000000 0.000000 -1.000000
vn 0.000000 0.000000 -1.000000
vn 0.000000 0.000000 -1.000000
vn 0.000000 0.000000 -1.000000
vn 0.000000 0.000000 -1.000000
vn 0.000000 0.000000 -1.000000
vn 0.000000 0.000000 -1.000000
vn 0.000000 0.000000 -1.000000
vn 0.000000 0.000000 -1.000000
vn 0.000000 0.000000 -1.000000
vn 0.000000 -0.000000 -1.000000
vn 0.000000 0.000000 -1.000000
vn 0.000000 0.000000 -1.000000
vn 0.000000 0.000000 -1.000000
vn 0.000000 0.000000 -1.000000
vn 0.000000 0.000000 -1.000000
vn 0.000000 0.000000 -1.000000
vn 0.000000 0.000000 -1.000000
vn 0.000000 0.000000 -1.000000
vn 0.000000 0.000000 -1.000000
vn 0.000000 0.000000 -1.000000
vn 0.000000 0.000000 -1.000000
vn 0.000000 0.000000 -1.000000
vn 0.000000 0.000000 -1.000000
vn 0.000000 -0.000000 -1.000000
vn 0.000000 0.000000 -1.000000
vn 0.000000 0.000000 -1.000000
vn 0.000000 0.000000 -1.000000
vn 0.000000 0.000000 -1.000000
vn 0.000000 0.000000 -1.000000
vn 0.000000 0.000000 -1.000000
vn 0.000000 -0.000000 -1.000000
vn 0.000000 -0.000000 -1.000000
vn 0.000000 -0.000000 -1.000000
vn 0.000000 -0.000000 -1.000000
vn 0.000000 -0.000000 -1.000000
vn 0.000000 -0.000000 -1.000000
vn 0.000000 -0.000000 -1.000000
vn 0.000000 -0.000000 -1.000000
vn 0.000000 0.000000 -1.000000
vn 0.000000 0.000000 -1.000000
vn 0.000000 0.000000 -1.000000
vn 0.000000 0.000000 -1.000000
vn 0.000000 0.000000 -1.000000
vn 0.000000 0.000000 -1.000000
vn 0.000000 0.000000 -1.000000
vn 0.000000 0.000000 -1.000000
vn 0.000000 0.000000 -1.000000
vn 0.000000 -0.000000 -1.000000
vn 0.000000 0.000000 -1.000000
vn 0.000000 -0.000000 -1.000000
vn 0.000000 0.000000 -1.000000
vn 0.000000 -0.000000 -1.000000
vn 0.000000 0.000000 -1.000000
vn 0.000000 0.000000 -1.000000
vn 0.000000 0.000000 -1.000000
vn 0.000000 0.000000 -1.000000
vn 0.000000 0.000000 -1.000000
vn 0.000000 -0.000000 -1.000000
vn 0.000000 0.000000 -1.000000
vn 0.000000 -0.000000 -1.000000
vn 0.000000 0.000000 -1.000000
vn 0.000000 -0.000000 -1.000000
vn 0.000000 0.000000 -1.000000
vn 0.000000 0.000000 -1.000000
vn 0.000000 0.000000 -1.000000
vn 0.000000 -0.000000 -1.000000
vn 0.000000 0.000000 -1.000000
vn 0.000000 0.000000 -1.000000
vn 0.000000 -0.000000 -1.000000
vn 0.000000 0.000000 -1.000000
vn 0.000000 0.000000 -1.000000
vn 0.000000 -0.000000 -1.000000
vn 0.000000 0.000000 -1.000000
vn 0.000000 0.000000 -1.000000
vn 0.000000 0.000000 -1.000000
vn 0.000000 0.000000 -1.000000
vn 0.000000 -0.000000 -1.000000
vn 0.000000 0.000000 -1.000000
vn 0.000000 0.000000 -1.000000
vn 0.000000 0.000000 -1.000000
vn 0.000000 0.000000 -1.000000
vn 0.000000 0.000000 -1.000000
vn 0.000000 0.000000 -1.000000
vn 0.000000 -0.000000 -1.000000
vn 0.000000 -0.000000 -1.000000
vn 0.000000 0.000000 -1.000000
vn 0.000000 0.000000 -1.000000
vn 0.000000 0.000000 -1.000000
vn 0.000000 0.000000 -1.000000
vn 0.000000 0.000000 -1.000000
vn 0.000000 0.000000 -1.000000
vn 0.000000 0.000000 -1.000000
vn 0.000000 -0.000000 -1.000000
vn 0.000000 -0.000000 -1.000000
vn 0.000000 0.000000 -1.000000
vn 0.000000 0.000000 -1.000000
vn 0.000000 0.000000 -1.000000
vn 0.000000 0.000000 -1.000000
vn 0.000000 0.000000 -1.000000
vn 0.000000 0.000000 1.000000
vn 0.000000 0.000000 1.000000
vn 0.000000 0.000000 1.000000
vn 0.000000 0.000000 1.000000
vn 0.000000 0.000000 1.000000
vn 0.000000 0.000000 1.000000
vn 0.000000 0.000000 1.000000
vn 0.000000 0.000000 1.000000
vn 0.000000 0.000000 1.000000
vn 0.000000 0.000000 1.000000
vn 0.000000 0.000000 1.000000
vn 0.000000 0.000000 1.000000
vn 0.000000 0.000000 1.000000
vn 0.000000 0.000000 1.000000
vn 0.000000 0.000000 1.000000
vn 0.000000 0.000000 1.000000
vn 0.000000 0.000000 1.000000
vn 0.000000 0.000000 1.000000
vn 0.000000 0.000000 1.000000
vn 0.000000 0.000000 1.000000
vn 0.000000 0.000000 1.000000
vn 0.000000 0.000000 1.000000
vn 0.000000 0.000000 1.000000
vn 0.000000 0.000000 1.000000
vn 0.000000 0.000000 1.000000
vn 0.000000 0.000000 1.000000
vn 0.000000 0.000000 1.000000
vn 0.000000 0.000000 1.000000
vn 0.000000 0.000000 1.000000
vn 0.000000 0.000000 1.000000
vn 0.000000 0.000000 1.000000
vn 0.000000 0.000000 1.000000
vn 0.000000 0.000000 1.000000
vn 0.000000 0.000000 1.000000
vn 0.000000 0.000000 1.000000
vn 0.000000 0.000000 1.000000
vn 0.000000 0.000000 1.000000
vn 0.000000 0.000000 1.000000
vn 0.000000 0.000000 1.000000
vn 0.000000 0.000000 1.000000
vn 0.000000 0.000000 1.000000
vn 0.000000 0.000000 1.000000
vn 0.000000 0.000000 1.000000
vn 0.000000 0.000000 1.000000
vn 0.000000 0.000000 1.000000
vn 0.000000 0.000000 1.000000
vn 0.000000 0.000000 1.000000
vn 0.000000 0.000000 1.000000
vn 0.000000 0.000000 1.000000
vn 0.000000 0.000000 1.000000
vn 0.000000 0.000000 1.000000
vn 0.000000 0.000000 1.000000
vn 0.000000 0.000000 1.000000
vn 0.000000 0.000000 1.000000
vn 0.000000 0.000000 1.000000
vn 0.000000 0.000000 1.000000
vn 0.000000 0.000000 1.000000
vn 0.000000 0.000000 1.000000
vn 0.000000 0.000000 1.000000
vn 0.000000 0.000000 1.000000
vn 0.000000 0.000000 1.000000
vn 0.000000 0.000000 1.000000
vn 0.000000 0.000000 1.000000
vn 0.000000 0.000000 1.000000
vn 0.000000 0.000000 1.000000
vn 0.000000 0.000000 1.000000
vn 0.000000 0.000000 1.000000
vn 0.000000 0.000000 1.000000
vn 0.000000 0.000000 1.000000
vn 0.000000 0.000000 1.000000
vn 0.000000 0.000000 1.000000
vn 0.000000 0.000000 1.000000
vn 0.000000 0.000000 1.000000
vn 0.000000 0.000000 1.000000
vn 0.000000 0.000000 1.000000
vn 0.000000 0.000000 1.000000
vn 0.000000 0.000000 1.000000
vn 0.000000 0.000000 1.000000
vn 0.000000 0.000000 1.000000
vn 0.000000 0.000000 1.000000
vn 0.000000 0.000000 1.000000
vn 0.000000 0.000000 1.000000
vn 0.000000 0.000000 1.000000
vn 0.000000 0.000000 1.000000
vn 0.000000 0.000000 1.000000
vn 0.000000 0.000000 1.000000
vn 0.000000 0.000000 1.000000
vn 0.000000 0.000000 1.000000
vn 0.000000 0.000000 1.000000
vn 0.000000 0.000000 1.000000
vn 0.000000 0.000000 1.000000
vn 0.000000 0.000000 1.000000
vn 0.000000 0.000000 1.000000
vn 0.000000 0.000000 1.000000
vn 0.000000 0.000000 1.000000
vn 0.000000 0.000000 1.000000
vn 0.000000 0.000000 1.000000
vn 0.000000 0.000000 1.000000
vn 0.000000 0.000000 1.000000
vn 0.000000 0.000000 1.000000
vn 0.000000 0.000000 1.000000
vn 0.000000 0.000000 1.000000
vn 0.000000 0.000000 1.000000
vn 0.000000 0.000000 1.000000
vn 0.000000 0.000000 1.000000
vn 0.000000 0.000000 1.000000
vn 0.000000 0.000000 1.000000
vn 0.000000 0.000000 1.000000
vn 0.000000 0.000000 1.000000
vn 0.000000 0.000000 1.000000
vn 0.000000 0.000000 1.000000
vn 0.000000 0.000000 1.000000
vn 0.000000 0.000000 1.000000
vn 0.000000 0.000000 1.000000
vn 0.000000 0.000000 1.000000
vn 0.000000 0.000000 1.000000
g \ubab8\ud1b5011
f 1//1 2//1 3//1
f 3//2 2//2 4//2
f 4//3 5//3 6//3
f 2//4 5//4 4//4
f 6//5 7//5 8//5
f 5//6 7//6 6//6
f 8//7 9//7 10//7
f 7//8 9//8 8//8
f 10//9 11//9 12//9
f 12//10 11//10 13//10
f 9//11 11//11 10//11
f 11//12 14//12 13//12
f 13//13 15//13 16//13
f 14//14 15//14 13//14
f 16//15 17//15 18//15
f 18//16 17//16 19//16
f 15//17 17//17 16//17
f 17//18 20//18 19//18
f 19//19 21//19 22//19
f 22//20 21//20 23//20
f 20//21 21//21 19//21
f 21//22 24//22 23//22
f 23//23 25//23 26//23
f 24//24 25//24 23//24
f 26//25 27//25 28//25
f 28//26 27//26 29//26
f 25//27 27//27 26//27
f 27//28 30//28 29//28
f 29//29 31//29 32//29
f 30//30 31//30 29//30
f 32//31 33//31 34//31
f 31//32 33//32 32//32
f 34//33 35//33 36//33
f 33//34 35//34 34//34
f 36//35 37//35 38//35
f 35//36 37//36 36//36
f 38//37 39//37 40//37
f 37//38 39//38 38//38
f 39//39 41//39 40//39
f 40//40 41//40 42//40
f 41//41 43//41 42//41
f 42//42 43//42 44//42
f 43//43 45//43 44//43
f 44//44 45//44 46//44
f 45//45 47//45 46//45
f 46//46 47//46 48//46
f 48//47 47//47 49//47
f 47//48 50//48 49//48
f 50//49 51//49 49//49
f 49//50 51//50 52//50
f 52//51 51//51 53//51
f 51//52 54//52 53//52
f 53//53 55//53 56//53
f 54//54 55//54 53//54
f 56//55 57//55 58//55
f 58//56 57//56 59//56
f 55//57 57//57 56//57
f 57//58 60//58 59//58
f 59//59 61//59 62//59
f 60//60 61//60 59//60
f 62//61 63//61 64//61
f 61//62 63//62 62//62
f 64//63 65//63 66//63
f 66//64 65//64 67//64
f 63//65 65//65 64//65
f 65//66 68//66 67//66
f 67//67 69//67 70//67
f 68//68 69//68 67//68
f 70//69 71//69 72//69
f 69//70 71//70 70//70
f 72//71 73//71 74//71
f 74//72 73//72 75//72
f 71//73 73//73 72//73
f 73//74 76//74 75//74
f 75//75 77//75 78//75
f 76//76 77//76 75//76
f 78//77 79//77 80//77
f 77//78 79//78 78//78
f 80//79 81//79 82//79
f 79//80 81//80 80//80
f 82//81 83//81 84//81
f 81//82 83//82 82//82
f 84//83 85//83 86//83
f 83//84 85//84 84//84
f 86//85 87//85 88//85
f 85//86 87//86 86//86
f 87//87 89//87 88//87
f 88//88 89//88 90//88
f 90//89 89//89 91//89
f 89//90 92//90 91//90
f 92//91 93//91 91//91
f 91//92 93//92 94//92
f 93//93 95//93 94//93
f 94//94 95//94 96//94
f 95//95 97//95 96//95
f 96//96 97//96 98//96
f 97//97 99//97 98//97
f 98//98 99//98 100//98
f 99//99 101//99 100//99
f 100//100 101//100 102//100
f 101//101 103//101 102//101
f 102//102 103//102 104//102
f 103//103 105//103 104//103
f 104//104 105//104 106//104
f 105//105 107//105 106//105
f 106//106 107//106 108//106
f 107//107 109//107 108//107
f 108//108 109//108 110//108
f 110//109 109//109 111//109
f 109//110 112//110 111//110
f 112//111 113//111 111//111
f 111//112 113//112 114//112
f 113//113 115//113 114//113
f 114//114 115//114 116//114
f 115//115 117//115 116//115
f 116//116 117//116 118//116
f 118//117 117//117 119//117
f 117//118 120//118 119//118
f 119//119 1//119 3//119
f 120//120 1//120 119//120
f 121//121 122//121 123//121
f 121//122 123//122 124//122
f 125//123 124//123 126//123
f 125//124 121//124 124//124
f 127//125 126//125 128//125
f 127//126 125//126 126//126
f 129//127 128//127 130//127
f 129//128 130//128 131//128
f 129//129 127//129 128//129
f 132//130 129//130 131//130
f 133//131 131//131 134//131
f 133//132 132//132 131//132
f 135//133 134//133 136//133
f 135//134 133//134 134//134
f 137//135 136//135 138//135
f 137//136 138//136 139//136
f 137//137 135//137 136//137
f 140//138 137//138 139//138
f 141//139 140//139 139//139
f 141//140 139//140 142//140
f 143//141 141//141 142//141
f 143//142 142//142 144//142
f 145//143 144//143 146//143
f 145//144 143//144 144//144
f 145//145 146//145 147//145
f 148//146 145//146 147//146
f 149//147 147//147 150//147
f 149//148 148//148 147//148
f 151//149 150//149 152//149
f 151//150 149//150 150//150
f 153//151 152//151 154//151
f 153//152 151//152 152//152
f 155//153 154//153 156//153
f 155//154 153//154 154//154
f 157//155 156//155 158//155
f 157//156 155//156 156//156
f 159//157 158//157 160//157
f 159//158 157//158 158//158
f 161//159 160//159 162//159
f 161//160 159//160 160//160
f 163//161 162//161 164//161
f 163//162 161//162 162//162
f 165//163 164//163 166//163
f 165//164 163//164 164//164
f 167//165 166//165 168//165
f 167//166 165//166 166//166
f 169//167 168//167 170//167
f 169//168 170//168 171//168
f 169//169 167//169 168//169
f 172//170 169//170 171//170
f 173//171 171//171 174//171
f 173//172 172//172 171//172
f 175//173 174//173 176//173
f 175//174 173//174 174//174
f 177//175 176//175 178//175
f 177//176 175//176 176//176
f 179//177 178//177 180//177
f 179//178 177//178 178//178
f 122//179 180//179 123//179
f 122//180 179//180 180//180
f 181//181 182//181 183//181
f 181//182 183//182 184//182
f 185//183 184//183 186//183
f 185//184 181//184 184//184
f 187//185 186//185 188//185
f 187//186 185//186 186//186
f 189//187 188//187 190//187
f 189//188 190//188 191//188
f 189//189 187//189 188//189
f 192//190 189//190 191//190
f 193//191 191//191 194//191
f 193//192 194//192 195//192
f 193//193 192//193 191//193
f 196//194 193//194 195//194
f 197//195 195//195 198//195
f 197//196 196//196 195//196
f 199//197 198//197 200//197
f 199//198 197//198 198//198
f 201//199 200//199 202//199
f 201//200 199//200 200//200
f 203//201 202//201 204//201
f 203//202 201//202 202//202
f 205//203 203//203 204//203
f 205//204 204//204 206//204
f 205//205 206//205 207//205
f 208//206 205//206 207//206
f 209//207 207//207 210//207
f 209//208 208//208 207//208
f 211//209 210//209 212//209
f 211//210 209//210 210//210
f 213//211 212//211 214//211
f 213//212 211//212 212//212
f 215//213 214//213 216//213
f 215//214 213//214 214//214
f 217//215 216//215 218//215
f 217//216 215//216 216//216
f 219//217 218//217 220//217
f 219//218 217//218 218//218
f 221//219 220//219 222//219
f 221//220 219//220 220//220
f 223//221 222//221 224//221
f 223//222 221//222 222//222
f 225//223 224//223 226//223
f 225//224 223//224 224//224
f 227//225 226//225 228//225
f 227//226 225//226 226//226
f 229//227 228//227 230//227
f 229//228 227//228 228//228
f 231//229 230//229 232//229
f 231//230 229//230 230//230
f 182//231 232//231 183//231
f 182//232 231//232 232//232
f 233//233 234//233 235//233
f 233//234 235//234 236//234
f 237//235 236//235 238//235
f 237//236 233//236 236//236
f 239//237 238//237 240//237
f 239//238 237//238 238//238
f 241//239 240//239 242//239
f 241//240 242//240 243//240
f 241//241 239//241 240//241
f 244//242 241//242 243//242
f 245//243 243//243 246//243
f 245//244 246//244 247//244
f 245//245 244//245 243//245
f 248//246 245//246 247//246
f 249//247 247//247 250//247
f 249//248 248//248 247//248
f 251//249 250//249 252//249
f 251//250 249//250 250//250
f 253//251 252//251 254//251
f 253//252 251//252 252//252
f 255//253 254//253 256//253
f 255//254 253//254 254//254
f 257//255 255//255 256//255
f 257//256 256//256 258//256
f 257//257 258//257 259//257
f 260//258 257//258 259//258
f 261//259 259//259 262//259
f 261//260 260//260 259//260
f 263//261 262//261 264//261
f 263//262 261//262 262//262
f 265//263 264//263 266//263
f 265//264 263//264 264//264
f 267//265 266//265 268//265
f 267//266 265//266 266//266
f 269//267 268//267 270//267
f 269//268 267//268 268//268
f 271//269 270//269 272//269
f 271//270 269//270 270//270
f 273//271 272//271 274//271
f 273//272 271//272 272//272
f 275//273 274//273 276//273
f 275//274 273//274 274//274
f 277//275 276//275 278//275
f 277//276 275//276 276//276
f 279//277 278//277 280//277
f 279//278 277//278 278//278
f 281//279 280//279 282//279
f 281//280 279//280 280//280
f 283//281 282//281 284//281
f 283//282 281//282 282//282
f 234//283 284//283 235//283
f 234//284 283//284 284//284
f 76//285 265//285 77//285
f 265//286 267//286 77//286
f 76//287 263//287 265//287
f 267//288 269//288 77//288
f 76//289 261//289 263//289
f 269//290 271//290 77//290
f 73//291 260//291 76//291
f 76//292 260//292 261//292
f 77//293 273//293 79//293
f 271//294 273//294 77//294
f 73//295 257//295 260//295
f 273//296 275//296 79//296
f 73//297 255//297 257//297
f 275//298 277//298 79//298
f 71//299 253//299 73//299
f 73//300 253//300 255//300
f 79//301 279//301 81//301
f 277//302 279//302 79//302
f 71//303 251//303 253//303
f 81//304 281//304 83//304
f 279//305 281//305 81//305
f 69//306 249//306 71//306
f 71//307 249//307 251//307
f 83//308 283//308 85//308
f 281//309 283//309 83//309
f 69//310 248//310 249//310
f 68//311 248//311 69//311
f 283//312 234//312 85//312
f 68//313 245//313 248//313
f 239//314 159//314 237//314
f 241//315 159//315 239//315
f 244//316 157//316 241//316
f 241//317 157//317 159//317
f 159//318 161//318 237//318
f 237//319 161//319 233//319
f 244//320 155//320 157//320
f 245//321 155//321 244//321
f 234//322 163//322 85//322
f 233//323 163//323 234//323
f 85//324 163//324 87//324
f 161//325 163//325 233//325
f 68//326 153//326 245//326
f 63//327 153//327 65//327
f 65//328 153//328 68//328
f 245//329 153//329 155//329
f 163//330 165//330 87//330
f 87//331 165//331 89//331
f 89//332 165//332 92//332
f 63//333 151//333 153//333
f 60//334 151//334 61//334
f 61//335 151//335 63//335
f 92//336 167//336 93//336
f 93//337 167//337 95//337
f 165//338 167//338 92//338
f 60//339 149//339 151//339
f 55//340 149//340 57//340
f 57//341 149//341 60//341
f 167//342 169//342 95//342
f 95//343 169//343 97//343
f 97//344 169//344 99//344
f 51//345 148//345 54//345
f 54//346 148//346 55//346
f 55//347 148//347 149//347
f 169//348 172//348 99//348
f 99//349 172//349 101//349
f 101//350 172//350 103//350
f 47//351 145//351 50//351
f 50//352 145//352 51//352
f 51//353 145//353 148//353
f 103//354 173//354 105//354
f 172//355 173//355 103//355
f 47//356 143//356 145//356
f 173//357 107//357 105//357
f 175//358 107//358 173//358
f 47//359 45//359 143//359
f 175//360 109//360 107//360
f 143//361 43//361 141//361
f 45//362 43//362 143//362
f 175//363 112//363 109//363
f 177//364 112//364 175//364
f 43//365 41//365 141//365
f 177//366 113//366 112//366
f 41//367 39//367 141//367
f 141//368 39//368 140//368
f 179//369 115//369 177//369
f 177//370 115//370 113//370
f 39//371 37//371 140//371
f 179//372 117//372 115//372
f 37//373 35//373 140//373
f 140//374 35//374 137//374
f 179//375 120//375 117//375
f 122//376 120//376 179//376
f 35//377 33//377 137//377
f 33//378 31//378 137//378
f 137//379 31//379 135//379
f 122//380 1//380 120//380
f 122//381 2//381 1//381
f 121//382 2//382 122//382
f 31//383 30//383 135//383
f 213//384 215//384 129//384
f 129//385 215//385 127//385
f 129//386 211//386 213//386
f 132//387 211//387 129//387
f 215//388 217//388 127//388
f 127//389 217//389 125//389
f 132//390 209//390 211//390
f 133//391 209//391 132//391
f 217//392 219//392 125//392
f 125//393 219//393 121//393
f 133//394 208//394 209//394
f 30//395 27//395 135//395
f 135//396 27//396 133//396
f 121//397 5//397 2//397
f 221//398 7//398 219//398
f 121//399 7//399 5//399
f 219//400 7//400 121//400
f 208//401 25//401 205//401
f 133//402 25//402 208//402
f 27//403 25//403 133//403
f 223//404 9//404 221//404
f 221//405 9//405 7//405
f 205//406 24//406 203//406
f 25//407 24//407 205//407
f 203//408 21//408 201//408
f 24//409 21//409 203//409
f 225//410 11//410 223//410
f 227//411 11//411 225//411
f 223//412 11//412 9//412
f 21//413 20//413 201//413
f 197//414 20//414 196//414
f 199//415 20//415 197//415
f 201//416 20//416 199//416
f 227//417 14//417 11//417
f 229//418 14//418 227//418
f 231//419 14//419 229//419
f 182//420 14//420 231//420
f 182//421 15//421 14//421
f 181//422 15//422 182//422
f 185//423 15//423 181//423
f 187//424 15//424 185//424
f 20//425 17//425 196//425
f 187//426 17//426 15//426
f 189//427 17//427 187//427
f 192//428 17//428 189//428
f 193//429 17//429 192//429
f 196//430 17//430 193//430
f 266//431 75//431 78//431
f 268//432 266//432 78//432
f 264//433 75//433 266//433
f 270//434 268//434 78//434
f 262//435 75//435 264//435
f 272//436 270//436 78//436
f 259//437 74//437 75//437
f 259//438 75//438 262//438
f 274//439 78//439 80//439
f 274//440 272//440 78//440
f 258//441 74//441 259//441
f 276//442 274//442 80//442
f 256//443 74//443 258//443
f 278//444 276//444 80//444
f 254//445 72//445 74//445
f 254//446 74//446 256//446
f 280//447 80//447 82//447
f 280//448 278//448 80//448
f 252//449 72//449 254//449
f 282//450 82//450 84//450
f 282//451 280//451 82//451
f 250//452 70//452 72//452
f 250//453 72//453 252//453
f 284//454 84//454 86//454
f 284//455 282//455 84//455
f 247//456 70//456 250//456
f 247//457 67//457 70//457
f 235//458 284//458 86//458
f 246//459 67//459 247//459
f 160//460 240//460 238//460
f 160//461 242//461 240//461
f 158//462 243//462 242//462
f 158//463 242//463 160//463
f 162//464 160//464 238//464
f 162//465 238//465 236//465
f 156//466 243//466 158//466
f 156//467 246//467 243//467
f 164//468 235//468 86//468
f 164//469 236//469 235//469
f 164//470 86//470 88//470
f 164//471 162//471 236//471
f 154//472 67//472 246//472
f 154//473 64//473 66//473
f 154//474 66//474 67//474
f 154//475 246//475 156//475
f 166//476 164//476 88//476
f 166//477 88//477 90//477
f 166//478 90//478 91//478
f 152//479 64//479 154//479
f 152//480 59//480 62//480
f 152//481 62//481 64//481
f 168//482 91//482 94//482
f 168//483 94//483 96//483
f 168//484 166//484 91//484
f 150//485 59//485 152//485
f 150//486 56//486 58//486
f 150//487 58//487 59//487
f 170//488 168//488 96//488
f 170//489 96//489 98//489
f 170//490 98//490 100//490
f 147//491 52//491 53//491
f 147//492 53//492 56//492
f 147//493 56//493 150//493
f 171//494 170//494 100//494
f 171//495 100//495 102//495
f 171//496 102//496 104//496
f 146//497 48//497 49//497
f 146//498 49//498 52//498
f 146//499 52//499 147//499
f 174//500 104//500 106//500
f 174//501 171//501 104//501
f 144//502 48//502 146//502
f 108//503 174//503 106//503
f 108//504 176//504 174//504
f 46//505 48//505 144//505
f 110//506 176//506 108//506
f 44//507 144//507 142//507
f 44//508 46//508 144//508
f 111//509 176//509 110//509
f 111//510 178//510 176//510
f 42//511 44//511 142//511
f 114//512 178//512 111//512
f 40//513 42//513 142//513
f 40//514 142//514 139//514
f 116//515 180//515 178//515
f 116//516 178//516 114//516
f 38//517 40//517 139//517
f 118//518 180//518 116//518
f 36//519 38//519 139//519
f 36//520 139//520 138//520
f 119//521 180//521 118//521
f 119//522 123//522 180//522
f 34//523 36//523 138//523
f 32//524 34//524 138//524
f 32//525 138//525 136//525
f 3//526 123//526 119//526
f 4//527 123//527 3//527
f 4//528 124//528 123//528
f 29//529 32//529 136//529
f 216//530 214//530 130//530
f 216//531 130//531 128//531
f 212//532 130//532 214//532
f 212//533 131//533 130//533
f 218//534 216//534 128//534
f 218//535 128//535 126//535
f 210//536 131//536 212//536
f 210//537 134//537 131//537
f 220//538 218//538 126//538
f 220//539 126//539 124//539
f 207//540 134//540 210//540
f 28//541 29//541 136//541
f 28//542 136//542 134//542
f 6//543 124//543 4//543
f 8//544 222//544 220//544
f 8//545 124//545 6//545
f 8//546 220//546 124//546
f 26//547 207//547 206//547
f 26//548 134//548 207//548
f 26//549 28//549 134//549
f 10//550 224//550 222//550
f 10//551 222//551 8//551
f 23//552 206//552 204//552
f 23//553 26//553 206//553
f 22//554 204//554 202//554
f 22//555 23//555 204//555
f 12//556 226//556 224//556
f 12//557 228//557 226//557
f 12//558 224//558 10//558
f 19//559 22//559 202//559
f 19//560 198//560 195//560
f 19//561 200//561 198//561
f 19//562 202//562 200//562
f 13//563 228//563 12//563
f 13//564 230//564 228//564
f 13//565 232//565 230//565
f 13//566 183//566 232//566
f 16//567 183//567 13//567
f 16//568 184//568 183//568
f 16//569 186//569 184//569
f 16//570 188//570 186//570
f 18//571 19//571 195//571
f 18//572 188//572 16//572
f 18//573 190//573 188//573
f 18//574 191//574 190//574
f 18//575 194//575 191//575
f 18//576 195//576 194//576
g \ubab8\ud1b5010
f 285//577 286//577 287//577
f 288//578 286//578 285//578
f 289//579 288//579 285//579
f 289//580 285//580 290//580
f 291//581 289//581 290//581
f 292//582 289//582 291//582
f 293//583 292//583 291//583
f 293//584 291//584 294//584
f 295//585 293//585 294//585
f 295//586 294//586 296//586
f 297//587 298//587 299//587
f 299//588 298//588 300//588
f 300//589 301//589 302//589
f 298//590 301//590 300//590
f 302//591 303//591 304//591
f 301//592 303//592 302//592
f 304//593 305//593 306//593
f 303//594 305//594 304//594
f 306//595 307//595 308//595
f 305//596 307//596 306//596
f 308//597 309//597 310//597
f 310//598 309//598 311//598
f 307//599 309//599 308//599
f 309//600 312//600 311//600
f 311//601 313//601 314//601
f 312//602 313//602 311//602
f 314//603 315//603 316//603
f 316//604 315//604 317//604
f 313//605 315//605 314//605
f 317//606 318//606 319//606
f 315//607 318//607 317//607
f 318//608 320//608 319//608
f 319//609 321//609 322//609
f 322//610 321//610 323//610
f 320//611 321//611 319//611
f 321//612 324//612 323//612
f 323//613 325//613 326//613
f 324//614 325//614 323//614
f 326//615 327//615 328//615
f 325//616 327//616 326//616
f 328//617 329//617 330//617
f 330//618 329//618 331//618
f 327//619 329//619 328//619
f 329//620 332//620 331//620
f 331//621 333//621 334//621
f 332//622 333//622 331//622
f 334//623 335//623 336//623
f 333//624 335//624 334//624
f 336//625 337//625 338//625
f 335//626 337//626 336//626
f 338//627 339//627 340//627
f 340//628 339//628 341//628
f 337//629 339//629 338//629
f 339//630 342//630 341//630
f 342//631 343//631 341//631
f 341//632 343//632 344//632
f 343//633 345//633 344//633
f 344//634 345//634 346//634
f 346//635 345//635 347//635
f 345//636 348//636 347//636
f 348//637 349//637 347//637
f 347//638 349//638 350//638
f 349//639 351//639 350//639
f 350//640 351//640 352//640
f 352//641 351//641 353//641
f 351//642 354//642 353//642
f 353//643 355//643 356//643
f 354//644 355//644 353//644
f 356//645 357//645 358//645
f 358//646 357//646 359//646
f 355//647 357//647 356//647
f 357//648 360//648 359//648
f 359//649 361//649 362//649
f 360//650 361//650 359//650
f 362//651 363//651 364//651
f 361//652 363//652 362//652
f 364//653 365//653 366//653
f 363//654 365//654 364//654
f 366//655 367//655 368//655
f 365//656 367//656 366//656
f 368//657 369//657 370//657
f 367//658 369//658 368//658
f 370//659 371//659 372//659
f 369//660 371//660 370//660
f 372//661 373//661 374//661
f 371//662 373//662 372//662
f 374//663 375//663 376//663
f 376//664 375//664 377//664
f 373//665 375//665 374//665
f 375//666 378//666 377//666
f 377//667 379//667 380//667
f 378//668 379//668 377//668
f 380//669 381//669 382//669
f 382//670 381//670 383//670
f 379//671 381//671 380//671
f 381//672 384//672 383//672
f 383//673 385//673 386//673
f 384//674 385//674 383//674
f 386//675 387//675 388//675
f 385//676 387//676 386//676
f 388//677 389//677 390//677
f 387//678 389//678 388//678
f 389//679 391//679 390//679
f 390//680 391//680 392//680
f 391//681 393//681 392//681
f 392//682 393//682 394//682
f 394//683 393//683 395//683
f 393//684 396//684 395//684
f 396//685 397//685 395//685
f 395//686 397//686 398//686
f 397//687 399//687 398//687
f 398//688 399//688 400//688
f 399//689 401//689 400//689
f 400//690 401//690 402//690
f 401//691 403//691 402//691
f 402//692 403//692 404//692
f 403//693 405//693 404//693
f 404//694 405//694 406//694
f 406//695 405//695 296//695
f 405//696 295//696 296//696
f 407//697 297//697 408//697
f 408//698 297//698 299//698
f 286//699 407//699 287//699
f 287//700 407//700 408//700
f 409//701 410//701 411//701
f 409//702 411//702 412//702
f 413//703 412//703 414//703
f 413//704 409//704 412//704
f 415//705 414//705 416//705
f 415//706 413//706 414//706
f 417//707 416//707 418//707
f 417//708 418//708 419//708
f 417//709 415//709 416//709
f 420//710 417//710 419//710
f 421//711 419//711 422//711
f 421//712 422//712 423//712
f 421//713 420//713 419//713
f 424//714 421//714 423//714
f 425//715 423//715 426//715
f 425//716 426//716 427//716
f 425//717 424//717 423//717
f 428//718 425//718 427//718
f 429//719 427//719 430//719
f 429//720 430//720 431//720
f 429//721 428//721 427//721
f 432//722 429//722 431//722
f 433//723 432//723 431//723
f 433//724 431//724 434//724
f 435//725 433//725 434//725
f 435//726 434//726 436//726
f 437//727 436//727 438//727
f 437//728 435//728 436//728
f 439//729 438//729 440//729
f 439//730 437//730 438//730
f 439//731 440//731 441//731
f 442//732 439//732 441//732
f 443//733 441//733 444//733
f 443//734 442//734 441//734
f 445//735 444//735 446//735
f 445//736 443//736 444//736
f 447//737 446//737 448//737
f 447//738 448//738 449//738
f 447//739 445//739 446//739
f 450//740 447//740 449//740
f 451//741 449//741 452//741
f 451//742 452//742 453//742
f 451//743 450//743 449//743
f 454//744 451//744 453//744
f 455//745 453//745 456//745
f 455//746 454//746 453//746
f 457//747 456//747 458//747
f 457//748 455//748 456//748
f 459//749 458//749 460//749
f 459//750 457//750 458//750
f 410//751 460//751 411//751
f 410//752 459//752 460//752
f 461//753 462//753 463//753
f 461//754 463//754 464//754
f 465//755 464//755 466//755
f 465//756 461//756 464//756
f 467//757 466//757 468//757
f 467//758 465//758 466//758
f 469//759 468//759 470//759
f 469//760 470//760 471//760
f 469//761 467//761 468//761
f 472//762 469//762 471//762
f 473//763 471//763 474//763
f 473//764 474//764 475//764
f 473//765 472//765 471//765
f 476//766 473//766 475//766
f 477//767 475//767 478//767
f 477//768 478//768 479//768
f 477//769 476//769 475//769
f 480//770 477//770 479//770
f 481//771 479//771 482//771
f 481//772 482//772 483//772
f 481//773 480//773 479//773
f 484//774 481//774 483//774
f 485//775 484//775 483//775
f 485//776 483//776 486//776
f 487//777 485//777 486//777
f 487//778 486//778 488//778
f 489//779 488//779 490//779
f 489//780 487//780 488//780
f 491//781 490//781 492//781
f 491//782 489//782 490//782
f 491//783 492//783 493//783
f 494//784 491//784 493//784
f 495//785 493//785 496//785
f 495//786 494//786 493//786
f 497//787 496//787 498//787
f 497//788 495//788 496//788
f 499//789 498//789 500//789
f 499//790 500//790 501//790
f 499//791 497//791 498//791
f 502//792 499//792 501//792
f 503//793 501//793 504//793
f 503//794 504//794 505//794
f 503//795 502//795 501//795
f 506//796 503//796 505//796
f 507//797 505//797 508//797
f 507//798 506//798 505//798
f 509//799 508//799 510//799
f 509//800 507//800 508//800
f 511//801 510//801 512//801
f 511//802 509//802 510//802
f 462//803 512//803 463//803
f 462//804 511//804 512//804
f 494//805 495//805 397//805
f 397//806 495//806 399//806
f 397//807 491//807 494//807
f 495//808 497//808 399//808
f 397//809 489//809 491//809
f 396//810 489//810 397//810
f 497//811 499//811 399//811
f 396//812 487//812 489//812
f 499//813 502//813 399//813
f 396//814 485//814 487//814
f 502//815 503//815 399//815
f 399//816 503//816 401//816
f 396//817 484//817 485//817
f 393//818 484//818 396//818
f 503//819 506//819 401//819
f 393//820 481//820 484//820
f 401//821 507//821 403//821
f 506//822 507//822 401//822
f 391//823 480//823 393//823
f 393//824 480//824 481//824
f 507//825 509//825 403//825
f 391//826 477//826 480//826
f 509//827 511//827 403//827
f 403//828 511//828 405//828
f 391//829 476//829 477//829
f 389//830 476//830 391//830
f 462//831 292//831 511//831
f 384//832 292//832 385//832
f 385//833 292//833 387//833
f 387//834 292//834 389//834
f 389//835 292//835 476//835
f 461//836 292//836 462//836
f 465//837 292//837 461//837
f 467//838 292//838 465//838
f 469//839 292//839 467//839
f 472//840 292//840 469//840
f 473//841 292//841 472//841
f 476//842 292//842 473//842
f 405//843 293//843 295//843
f 511//844 293//844 405//844
f 292//845 293//845 511//845
f 297//846 407//846 298//846
f 298//847 407//847 301//847
f 301//848 286//848 303//848
f 303//849 286//849 305//849
f 407//850 286//850 301//850
f 286//851 307//851 305//851
f 367//852 289//852 369//852
f 369//853 289//853 371//853
f 371//854 289//854 373//854
f 373//855 289//855 375//855
f 375//856 289//856 378//856
f 378//857 289//857 379//857
f 379//858 289//858 381//858
f 381//859 289//859 384//859
f 384//860 289//860 292//860
f 367//861 365//861 289//861
f 286//862 309//862 307//862
f 365//863 363//863 289//863
f 286//864 312//864 309//864
f 363//865 361//865 289//865
f 286//866 313//866 312//866
f 361//867 360//867 289//867
f 286//868 315//868 313//868
f 360//869 357//869 289//869
f 286//870 318//870 315//870
f 357//871 355//871 289//871
f 286//872 320//872 318//872
f 355//873 354//873 289//873
f 289//874 354//874 288//874
f 286//875 321//875 320//875
f 288//876 321//876 286//876
f 354//877 351//877 288//877
f 288//878 324//878 321//878
f 442//879 443//879 288//879
f 288//880 439//880 442//880
f 443//881 445//881 288//881
f 288//882 437//882 439//882
f 445//883 447//883 288//883
f 351//884 349//884 288//884
f 288//885 435//885 437//885
f 288//886 325//886 324//886
f 447//887 450//887 288//887
f 288//888 433//888 435//888
f 349//889 348//889 288//889
f 450//890 327//890 288//890
f 288//891 327//891 325//891
f 348//892 345//892 288//892
f 451//893 329//893 450//893
f 450//894 329//894 327//894
f 345//895 343//895 288//895
f 433//896 343//896 432//896
f 288//897 343//897 433//897
f 454//898 332//898 451//898
f 451//899 332//899 329//899
f 343//900 342//900 432//900
f 428//901 342//901 425//901
f 429//902 342//902 428//902
f 432//903 342//903 429//903
f 454//904 333//904 332//904
f 455//905 333//905 454//905
f 457//906 333//906 455//906
f 342//907 339//907 425//907
f 421//908 339//908 420//908
f 424//909 339//909 421//909
f 425//910 339//910 424//910
f 457//911 335//911 333//911
f 409//912 335//912 410//912
f 413//913 335//913 409//913
f 459//914 335//914 457//914
f 410//915 335//915 459//915
f 413//916 337//916 335//916
f 415//917 337//917 413//917
f 417//918 337//918 415//918
f 420//919 337//919 417//919
f 339//920 337//920 420//920
f 496//921 493//921 398//921
f 496//922 398//922 400//922
f 492//923 398//923 493//923
f 498//924 496//924 400//924
f 490//925 398//925 492//925
f 490//926 395//926 398//926
f 500//927 498//927 400//927
f 488//928 395//928 490//928
f 501//929 500//929 400//929
f 486//930 395//930 488//930
f 504//931 501//931 400//931
f 504//932 400//932 402//932
f 483//933 395//933 486//933
f 483//934 394//934 395//934
f 505//935 504//935 402//935
f 482//936 394//936 483//936
f 508//937 402//937 404//937
f 508//938 505//938 402//938
f 479//939 392//939 394//939
f 479//940 394//940 482//940
f 510//941 508//941 404//941
f 478//942 392//942 479//942
f 512//943 510//943 404//943
f 512//944 404//944 406//944
f 475//945 392//945 478//945
f 475//946 390//946 392//946
f 291//947 463//947 512//947
f 291//948 383//948 386//948
f 291//949 386//949 388//949
f 291//950 388//950 390//950
f 291//951 390//951 475//951
f 291//952 464//952 463//952
f 291//953 466//953 464//953
f 291//954 468//954 466//954
f 291//955 470//955 468//955
f 291//956 471//956 470//956
f 291//957 474//957 471//957
f 291//958 475//958 474//958
f 294//959 406//959 296//959
f 294//960 512//960 406//960
f 294//961 291//961 512//961
f 408//962 299//962 300//962
f 408//963 300//963 302//963
f 287//964 302//964 304//964
f 287//965 304//965 306//965
f 287//966 408//966 302//966
f 308//967 287//967 306//967
f 290//968 368//968 370//968
f 290//969 370//969 372//969
f 290//970 372//970 374//970
f 290//971 374//971 376//971
f 290//972 376//972 377//972
f 290//973 377//973 380//973
f 290//974 380//974 382//974
f 290//975 382//975 383//975
f 290//976 383//976 291//976
f 366//977 368//977 290//977
f 310//978 287//978 308//978
f 364//979 366//979 290//979
f 311//980 287//980 310//980
f 362//981 364//981 290//981
f 314//982 287//982 311//982
f 359//983 362//983 290//983
f 316//984 287//984 314//984
f 358//985 359//985 290//985
f 317//986 287//986 316//986
f 356//987 358//987 290//987
f 319//988 287//988 317//988
f 353//989 356//989 290//989
f 353//990 290//990 285//990
f 322//991 287//991 319//991
f 322//992 285//992 287//992
f 352//993 353//993 285//993
f 323//994 285//994 322//994
f 444//995 441//995 285//995
f 440//996 285//996 441//996
f 446//997 444//997 285//997
f 438//998 285//998 440//998
f 448//999 446//999 285//999
f 350//1000 352//1000 285//1000
f 436//1001 285//1001 438//1001
f 326//1002 285//1002 323//1002
f 449//1003 448//1003 285//1003
f 434//1004 285//1004 436//1004
f 347//1005 350//1005 285//1005
f 328//1006 449//1006 285//1006
f 328//1007 285//1007 326//1007
f 346//1008 347//1008 285//1008
f 330//1009 452//1009 449//1009
f 330//1010 449//1010 328//1010
f 344//1011 346//1011 285//1011
f 344//1012 434//1012 431//1012
f 344//1013 285//1013 434//1013
f 331//1014 453//1014 452//1014
f 331//1015 452//1015 330//1015
f 341//1016 344//1016 431//1016
f 341//1017 427//1017 426//1017
f 341//1018 430//1018 427//1018
f 341//1019 431//1019 430//1019
f 334//1020 453//1020 331//1020
f 334//1021 456//1021 453//1021
f 334//1022 458//1022 456//1022
f 340//1023 341//1023 426//1023
f 340//1024 422//1024 419//1024
f 340//1025 423//1025 422//1025
f 340//1026 426//1026 423//1026
f 336//1027 458//1027 334//1027
f 336//1028 412//1028 411//1028
f 336//1029 414//1029 412//1029
f 336//1030 460//1030 458//1030
f 336//1031 411//1031 460//1031
f 338//1032 414//1032 336//1032
f 338//1033 416//1033 414//1033
f 338//1034 418//1034 416//1034
f 338//1035 419//1035 418//1035
f 338//1036 340//1036 419//1036
