# Created by FreeCAD <https://www.freecad.org>
v 2.250000 0.000000 0.000000
v 2.215817 0.390708 0.000000
v 2.250000 0.000000 17.500000
v 2.215817 0.390708 17.500000
v 2.114308 0.769545 0.000000
v 2.114308 0.769545 17.500000
v 1.948557 1.125000 17.500000
v 1.948557 1.125000 0.000000
v 1.723600 1.446272 17.500000
v 1.723600 1.446272 0.000000
v 1.446272 1.723600 0.000000
v 1.446272 1.723600 17.500000
v 1.125000 1.948557 0.000000
v 1.125000 1.948557 17.500000
v 0.769545 2.114308 17.500000
v 0.769545 2.114308 0.000000
v 0.390708 2.215817 17.500000
v 0.390708 2.215817 0.000000
v 0.000000 2.250000 0.000000
v 0.000000 2.250000 17.500000
v -0.390708 2.215817 17.500000
v -0.390708 2.215817 0.000000
v -0.769545 2.114308 0.000000
v -0.769545 2.114308 17.500000
v -1.125000 1.948557 17.500000
v -1.125000 1.948557 0.000000
v -1.446272 1.723600 17.500000
v -1.446272 1.723600 0.000000
v -1.723600 1.446272 0.000000
v -1.723600 1.446272 17.500000
v -1.948557 1.125000 0.000000
v -1.948557 1.125000 17.500000
v -2.114308 0.769545 0.000000
v -2.114308 0.769545 17.500000
v -2.215817 0.390708 17.500000
v -2.215817 0.390708 0.000000
v -2.250000 0.000000 0.000000
v -2.250000 0.000000 17.500000
v -2.215817 -0.390708 17.500000
v -2.215817 -0.390708 0.000000
v -2.114308 -0.769545 0.000000
v -2.114308 -0.769545 17.500000
v -1.948557 -1.125000 0.000000
v -1.948557 -1.125000 17.500000
v -1.723600 -1.446272 0.000000
v -1.723600 -1.446272 17.500000
v -1.446272 -1.723600 0.000000
v -1.446272 -1.723600 17.500000
v -1.125000 -1.948557 0.000000
v -1.125000 -1.948557 17.500000
v -0.769545 -2.114308 0.000000
v -0.769545 -2.114308 17.500000
v -0.390708 -2.215817 17.500000
v -0.390708 -2.215817 0.000000
v -0.000000 -2.250000 0.000000
v -0.000000 -2.250000 17.500000
v 0.390708 -2.215817 0.000000
v 0.390708 -2.215817 17.500000
v 0.769545 -2.114308 0.000000
v 0.769545 -2.114308 17.500000
v 1.125000 -1.948557 0.000000
v 1.125000 -1.948557 17.500000
v 1.446272 -1.723600 17.500000
v 1.446272 -1.723600 0.000000
v 1.723600 -1.446272 0.000000
v 1.723600 -1.446272 17.500000
v 1.948557 -1.125000 0.000000
v 1.948557 -1.125000 17.500000
v 2.114308 -0.769545 0.000000
v 2.114308 -0.769545 17.500000
v 2.215817 -0.390708 17.500000
v 2.215817 -0.390708 0.000000
v 4.250000 0.000000 -2.000000
v 4.225086 0.459506 -2.000000
v 4.250000 0.000000 0.000000
v 4.225086 0.459506 0.000000
v 4.150637 0.913624 -2.000000
v 4.150637 0.913624 0.000000
v 4.027526 1.357031 -2.000000
v 4.027526 1.357031 0.000000
v 3.857196 1.784529 -2.000000
v 3.857196 1.784529 0.000000
v 3.641643 2.191104 -2.000000
v 3.641643 2.191104 0.000000
v 3.383395 2.571990 -2.000000
v 3.383395 2.571990 0.000000
v 3.085481 2.922723 -2.000000
v 3.085481 2.922723 0.000000
v 2.751392 3.239189 0.000000
v 2.751392 3.239189 -2.000000
v 2.385045 3.517678 -2.000000
v 2.385045 3.517678 0.000000
v 1.990736 3.754926 -2.000000
v 1.990736 3.754926 0.000000
v 1.573087 3.948151 -2.000000
v 1.573087 3.948151 0.000000
v 1.136995 4.095088 0.000000
v 1.136995 4.095088 -2.000000
v 0.687573 4.194013 -2.000000
v 0.687573 4.194013 0.000000
v 0.230090 4.243767 -2.000000
v 0.230090 4.243767 0.000000
v -0.230090 4.243767 -2.000000
v -0.230090 4.243767 0.000000
v -0.687573 4.194013 0.000000
v -0.687573 4.194013 -2.000000
v -1.136995 4.095088 -2.000000
v -1.136995 4.095088 0.000000
v -1.573087 3.948151 -2.000000
v -1.573087 3.948151 0.000000
v -1.990736 3.754926 -2.000000
v -1.990736 3.754926 0.000000
v -2.385045 3.517678 -2.000000
v -2.385045 3.517678 0.000000
v -2.751392 3.239189 -2.000000
v -2.751392 3.239189 0.000000
v -3.085481 2.922723 -2.000000
v -3.085481 2.922723 0.000000
v -3.383395 2.571990 -2.000000
v -3.383395 2.571990 0.000000
v -3.641643 2.191104 0.000000
v -3.641643 2.191104 -2.000000
v -3.857196 1.784529 -2.000000
v -3.857196 1.784529 0.000000
v -4.027526 1.357031 -2.000000
v -4.027526 1.357031 0.000000
v -4.150637 0.913624 -2.000000
v -4.150637 0.913624 0.000000
v -4.225086 0.459506 0.000000
v -4.225086 0.459506 -2.000000
v -4.250000 -0.000000 -2.000000
v -4.250000 -0.000000 0.000000
v -4.225086 -0.459506 -2.000000
v -4.225086 -0.459506 0.000000
v -4.150637 -0.913624 -2.000000
v -4.150637 -0.913624 0.000000
v -4.027526 -1.357031 -2.000000
v -4.027526 -1.357031 0.000000
v -3.857196 -1.784529 -2.000000
v -3.857196 -1.784529 0.000000
v -3.641643 -2.191104 0.000000
v -3.641643 -2.191104 -2.000000
v -3.383395 -2.571990 -2.000000
v -3.383395 -2.571990 0.000000
v -3.085481 -2.922723 0.000000
v -3.085481 -2.922723 -2.000000
v -2.751392 -3.239189 -2.000000
v -2.751392 -3.239189 0.000000
v -2.385045 -3.517678 -2.000000
v -2.385045 -3.517678 0.000000
v -1.990736 -3.754926 -2.000000
v -1.990736 -3.754926 0.000000
v -1.573087 -3.948151 -2.000000
v -1.573087 -3.948151 0.000000
v -1.136995 -4.095088 -2.000000
v -1.136995 -4.095088 0.000000
v -0.687573 -4.194013 -2.000000
v -0.687573 -4.194013 0.000000
v -0.230090 -4.243767 -2.000000
v -0.230090 -4.243767 0.000000
v 0.230090 -4.243767 -2.000000
v 0.230090 -4.243767 0.000000
v 0.687573 -4.194013 -2.000000
v 0.687573 -4.194013 0.000000
v 1.136995 -4.095088 0.000000
v 1.136995 -4.095088 -2.000000
v 1.573087 -3.948151 -2.000000
v 1.573087 -3.948151 0.000000
v 1.990736 -3.754926 -2.000000
v 1.990736 -3.754926 0.000000
v 2.385045 -3.517678 -2.000000
v 2.385045 -3.517678 0.000000
v 2.751392 -3.239189 0.000000
v 2.751392 -3.239189 -2.000000
v 3.085481 -2.922723 -2.000000
v 3.085481 -2.922723 0.000000
v 3.383395 -2.571990 -2.000000
v 3.383395 -2.571990 0.000000
v 3.641643 -2.191104 0.000000
v 3.641643 -2.191104 -2.000000
v 3.857196 -1.784529 -2.000000
v 3.857196 -1.784529 0.000000
v 4.027526 -1.357031 0.000000
v 4.027526 -1.357031 -2.000000
v 4.150637 -0.913624 -2.000000
v 4.150637 -0.913624 0.000000
v 4.225086 -0.459506 -2.000000
v 4.225086 -0.459506 0.000000
v 4.250000 0.000000 -4.000000
v 4.225086 0.459506 -4.000000
v 4.250000 0.000000 -2.000000
v 4.225086 0.459506 -2.000000
v 4.150637 0.913624 -4.000000
v 4.150637 0.913624 -2.000000
v 4.027526 1.357031 -4.000000
v 4.027526 1.357031 -2.000000
v 3.857196 1.784529 -4.000000
v 3.857196 1.784529 -2.000000
v 3.641643 2.191104 -4.000000
v 3.641643 2.191104 -2.000000
v 3.383395 2.571990 -4.000000
v 3.383395 2.571990 -2.000000
v 3.085481 2.922723 -4.000000
v 3.085481 2.922723 -2.000000
v 2.751392 3.239189 -2.000000
v 2.751392 3.239189 -4.000000
v 2.385045 3.517678 -4.000000
v 2.385045 3.517678 -2.000000
v 1.990736 3.754926 -4.000000
v 1.990736 3.754926 -2.000000
v 1.573087 3.948151 -4.000000
v 1.573087 3.948151 -2.000000
v 1.136995 4.095088 -2.000000
v 1.136995 4.095088 -4.000000
v 0.687573 4.194013 -4.000000
v 0.687573 4.194013 -2.000000
v 0.230090 4.243767 -4.000000
v 0.230090 4.243767 -2.000000
v -0.230090 4.243767 -4.000000
v -0.230090 4.243767 -2.000000
v -0.687573 4.194013 -2.000000
v -0.687573 4.194013 -4.000000
v -1.136995 4.095088 -4.000000
v -1.136995 4.095088 -2.000000
v -1.573087 3.948151 -4.000000
v -1.573087 3.948151 -2.000000
v -1.990736 3.754926 -4.000000
v -1.990736 3.754926 -2.000000
v -2.385045 3.517678 -4.000000
v -2.385045 3.517678 -2.000000
v -2.751392 3.239189 -4.000000
v -2.751392 3.239189 -2.000000
v -3.085481 2.922723 -4.000000
v -3.085481 2.922723 -2.000000
v -3.383395 2.571990 -4.000000
v -3.383395 2.571990 -2.000000
v -3.641643 2.191104 -2.000000
v -3.641643 2.191104 -4.000000
v -3.857196 1.784529 -4.000000
v -3.857196 1.784529 -2.000000
v -4.027526 1.357031 -4.000000
v -4.027526 1.357031 -2.000000
v -4.150637 0.913624 -4.000000
v -4.150637 0.913624 -2.000000
v -4.225086 0.459506 -2.000000
v -4.225086 0.459506 -4.000000
v -4.250000 -0.000000 -4.000000
v -4.250000 -0.000000 -2.000000
v -4.225086 -0.459506 -4.000000
v -4.225086 -0.459506 -2.000000
v -4.150637 -0.913624 -4.000000
v -4.150637 -0.913624 -2.000000
v -4.027526 -1.357031 -4.000000
v -4.027526 -1.357031 -2.000000
v -3.857196 -1.784529 -4.000000
v -3.857196 -1.784529 -2.000000
v -3.641643 -2.191104 -2.000000
v -3.641643 -2.191104 -4.000000
v -3.383395 -2.571990 -4.000000
v -3.383395 -2.571990 -2.000000
v -3.085481 -2.922723 -2.000000
v -3.085481 -2.922723 -4.000000
v -2.751392 -3.239189 -4.000000
v -2.751392 -3.239189 -2.000000
v -2.385045 -3.517678 -4.000000
v -2.385045 -3.517678 -2.000000
v -1.990736 -3.754926 -4.000000
v -1.990736 -3.754926 -2.000000
v -1.573087 -3.948151 -4.000000
v -1.573087 -3.948151 -2.000000
v -1.136995 -4.095088 -4.000000
v -1.136995 -4.095088 -2.000000
v -0.687573 -4.194013 -4.000000
v -0.687573 -4.194013 -2.000000
v -0.230090 -4.243767 -4.000000
v -0.230090 -4.243767 -2.000000
v 0.230090 -4.243767 -4.000000
v 0.230090 -4.243767 -2.000000
v 0.687573 -4.194013 -4.000000
v 0.687573 -4.194013 -2.000000
v 1.136995 -4.095088 -2.000000
v 1.136995 -4.095088 -4.000000
v 1.573087 -3.948151 -4.000000
v 1.573087 -3.948151 -2.000000
v 1.990736 -3.754926 -4.000000
v 1.990736 -3.754926 -2.000000
v 2.385045 -3.517678 -4.000000
v 2.385045 -3.517678 -2.000000
v 2.751392 -3.239189 -2.000000
v 2.751392 -3.239189 -4.000000
v 3.085481 -2.922723 -4.000000
v 3.085481 -2.922723 -2.000000
v 3.383395 -2.571990 -4.000000
v 3.383395 -2.571990 -2.000000
v 3.641643 -2.191104 -2.000000
v 3.641643 -2.191104 -4.000000
v 3.857196 -1.784529 -4.000000
v 3.857196 -1.784529 -2.000000
v 4.027526 -1.357031 -2.000000
v 4.027526 -1.357031 -4.000000
v 4.150637 -0.913624 -4.000000
v 4.150637 -0.913624 -2.000000
v 4.225086 -0.459506 -4.000000
v 4.225086 -0.459506 -2.000000
v 2.975370 0.383631 -4.000000
v 3.000000 0.000000 -4.000000
v 3.000000 0.000000 -2.000000
v 2.975370 0.383631 -2.000000
v 2.901885 0.760964 -4.000000
v 2.901885 0.760964 -2.000000
v 2.780750 1.125801 -4.000000
v 2.780750 1.125801 -2.000000
v 2.613956 1.472153 -4.000000
v 2.613956 1.472153 -2.000000
v 2.404241 1.794332 -4.000000
v 2.404241 1.794332 -2.000000
v 2.155048 2.087048 -4.000000
v 2.155048 2.087048 -2.000000
v 1.870469 2.345495 -4.000000
v 1.870469 2.345495 -2.000000
v 1.555178 2.565428 -4.000000
v 1.555178 2.565428 -2.000000
v 1.214350 2.743238 -4.000000
v 1.214350 2.743238 -2.000000
v 0.853583 2.876004 -4.000000
v 0.853583 2.876004 -2.000000
v 0.478800 2.961545 -4.000000
v 0.478800 2.961545 -2.000000
v 0.096155 2.998459 -2.000000
v 0.096155 2.998459 -4.000000
v -0.288069 2.986137 -4.000000
v -0.288069 2.986137 -2.000000
v -0.667563 2.924784 -4.000000
v -0.667563 2.924784 -2.000000
v -1.036095 2.815405 -4.000000
v -1.036095 2.815405 -2.000000
v -1.387615 2.659798 -2.000000
v -1.387615 2.659798 -4.000000
v -1.716350 2.460517 -2.000000
v -1.716350 2.460517 -4.000000
v -2.016903 2.220834 -4.000000
v -2.016903 2.220834 -2.000000
v -2.284338 1.944685 -2.000000
v -2.284338 1.944685 -4.000000
v -2.514264 1.636605 -4.000000
v -2.514264 1.636605 -2.000000
v -2.702907 1.301651 -4.000000
v -2.702907 1.301651 -2.000000
v -2.847167 0.945325 -4.000000
v -2.847167 0.945325 -2.000000
v -2.944677 0.573476 -4.000000
v -2.944677 0.573476 -2.000000
v -2.993836 0.192211 -4.000000
v -2.993836 0.192211 -2.000000
v -2.993836 -0.192211 -4.000000
v -2.993836 -0.192211 -2.000000
v -2.944677 -0.573476 -4.000000
v -2.944677 -0.573476 -2.000000
v -2.847167 -0.945325 -2.000000
v -2.847167 -0.945325 -4.000000
v -2.702907 -1.301651 -4.000000
v -2.702907 -1.301651 -2.000000
v -2.514264 -1.636605 -2.000000
v -2.514264 -1.636605 -4.000000
v -2.284338 -1.944685 -4.000000
v -2.284338 -1.944685 -2.000000
v -2.016903 -2.220834 -2.000000
v -2.016903 -2.220834 -4.000000
v -1.716350 -2.460517 -2.000000
v -1.716350 -2.460517 -4.000000
v -1.387615 -2.659798 -4.000000
v -1.387615 -2.659798 -2.000000
v -1.036095 -2.815405 -4.000000
v -1.036095 -2.815405 -2.000000
v -0.667563 -2.924784 -2.000000
v -0.667563 -2.924784 -4.000000
v -0.288069 -2.986137 -4.000000
v -0.288069 -2.986137 -2.000000
v 0.096155 -2.998459 -4.000000
v 0.096155 -2.998459 -2.000000
v 0.478800 -2.961545 -2.000000
v 0.478800 -2.961545 -4.000000
v 0.853583 -2.876004 -4.000000
v 0.853583 -2.876004 -2.000000
v 1.214350 -2.743238 -2.000000
v 1.214350 -2.743238 -4.000000
v 1.555178 -2.565428 -4.000000
v 1.555178 -2.565428 -2.000000
v 1.870469 -2.345495 -4.000000
v 1.870469 -2.345495 -2.000000
v 2.155048 -2.087048 -2.000000
v 2.155048 -2.087048 -4.000000
v 2.404241 -1.794332 -2.000000
v 2.404241 -1.794332 -4.000000
v 2.613956 -1.472153 -4.000000
v 2.613956 -1.472153 -2.000000
v 2.780750 -1.125801 -4.000000
v 2.780750 -1.125801 -2.000000
v 2.901885 -0.760964 -4.000000
v 2.901885 -0.760964 -2.000000
v 2.975370 -0.383631 -4.000000
v 2.975370 -0.383631 -2.000000
vn 0.996195 0.087156 -0.000000
vn 0.996195 0.087156 0.000000
vn 0.965926 0.258819 0.000000
vn 0.906308 0.422618 0.000000
vn 0.965926 0.258819 -0.000000
vn 0.819152 0.573576 0.000000
vn 0.906308 0.422618 0.000000
vn 0.819152 0.573576 0.000000
vn 0.707107 0.707107 0.000000
vn 0.707107 0.707107 -0.000000
vn 0.573576 0.819152 -0.000000
vn 0.573576 0.819152 0.000000
vn 0.422618 0.906308 0.000000
vn 0.422618 0.906308 0.000000
vn 0.258819 0.965926 0.000000
vn 0.258819 0.965926 0.000000
vn 0.087156 0.996195 -0.000000
vn 0.087156 0.996195 0.000000
vn -0.087156 0.996195 0.000000
vn -0.087156 0.996195 0.000000
vn -0.258819 0.965926 0.000000
vn -0.422618 0.906308 0.000000
vn -0.258819 0.965926 0.000000
vn -0.573576 0.819152 0.000000
vn -0.422618 0.906308 0.000000
vn -0.573576 0.819152 0.000000
vn -0.707107 0.707107 0.000000
vn -0.707107 0.707107 0.000000
vn -0.819152 0.573576 0.000000
vn -0.819152 0.573576 0.000000
vn -0.906308 0.422618 0.000000
vn -0.965926 0.258819 0.000000
vn -0.906308 0.422618 0.000000
vn -0.965926 0.258819 0.000000
vn -0.996195 0.087156 0.000000
vn -0.996195 -0.087156 -0.000000
vn -0.996195 0.087156 0.000000
vn -0.996195 -0.087156 0.000000
vn -0.965926 -0.258819 0.000000
vn -0.965926 -0.258819 0.000000
vn -0.906308 -0.422618 0.000000
vn -0.906308 -0.422618 0.000000
vn -0.819152 -0.573576 0.000000
vn -0.819152 -0.573576 0.000000
vn -0.707107 -0.707107 0.000000
vn -0.707107 -0.707107 0.000000
vn -0.573576 -0.819152 0.000000
vn -0.573576 -0.819152 0.000000
vn -0.422618 -0.906308 0.000000
vn -0.258819 -0.965926 -0.000000
vn -0.422618 -0.906308 0.000000
vn -0.258819 -0.965926 0.000000
vn -0.087156 -0.996195 0.000000
vn -0.087156 -0.996195 0.000000
vn 0.087156 -0.996195 0.000000
vn 0.087156 -0.996195 0.000000
vn 0.258819 -0.965926 0.000000
vn 0.258819 -0.965926 0.000000
vn 0.422618 -0.906308 0.000000
vn 0.573576 -0.819152 0.000000
vn 0.422618 -0.906308 0.000000
vn 0.573576 -0.819152 0.000000
vn 0.707107 -0.707107 0.000000
vn 0.707107 -0.707107 0.000000
vn 0.819152 -0.573576 0.000000
vn 0.819152 -0.573576 0.000000
vn 0.906308 -0.422618 0.000000
vn 0.906308 -0.422618 0.000000
vn 0.965926 -0.258819 0.000000
vn 0.965926 -0.258819 0.000000
vn 0.996195 -0.087156 0.000000
vn 0.996195 -0.087156 0.000000
vn 0.000000 0.000000 -1.000000
vn 0.000000 0.000000 -1.000000
vn 0.000000 0.000000 -1.000000
vn 0.000000 0.000000 -1.000000
vn 0.000000 -0.000000 -1.000000
vn 0.000000 -0.000000 -1.000000
vn 0.000000 -0.000000 -1.000000
vn 0.000000 0.000000 -1.000000
vn 0.000000 0.000000 -1.000000
vn 0.000000 0.000000 -1.000000
vn 0.000000 0.000000 -1.000000
vn 0.000000 -0.000000 -1.000000
vn 0.000000 0.000000 -1.000000
vn 0.000000 -0.000000 -1.000000
vn 0.000000 0.000000 -1.000000
vn 0.000000 0.000000 -1.000000
vn 0.000000 0.000000 -1.000000
vn 0.000000 0.000000 -1.000000
vn 0.000000 -0.000000 -1.000000
vn 0.000000 -0.000000 -1.000000
vn 0.000000 -0.000000 -1.000000
vn 0.000000 0.000000 -1.000000
vn 0.000000 0.000000 -1.000000
vn 0.000000 0.000000 -1.000000
vn 0.000000 -0.000000 -1.000000
vn 0.000000 0.000000 -1.000000
vn 0.000000 0.000000 -1.000000
vn -0.000000 -0.000000 -1.000000
vn 0.000000 0.000000 -1.000000
vn -0.000000 -0.000000 -1.000000
vn 0.000000 0.000000 -1.000000
vn 0.000000 0.000000 -1.000000
vn -0.000000 -0.000000 -1.000000
vn 0.000000 0.000000 -1.000000
vn 0.000000 0.000000 1.000000
vn 0.000000 0.000000 1.000000
vn 0.000000 0.000000 1.000000
vn 0.000000 0.000000 1.000000
vn 0.000000 0.000000 1.000000
vn 0.000000 0.000000 1.000000
vn 0.000000 0.000000 1.000000
vn 0.000000 0.000000 1.000000
vn 0.000000 0.000000 1.000000
vn 0.000000 0.000000 1.000000
vn 0.000000 0.000000 1.000000
vn 0.000000 0.000000 1.000000
vn 0.000000 0.000000 1.000000
vn 0.000000 0.000000 1.000000
vn 0.000000 0.000000 1.000000
vn 0.000000 0.000000 1.000000
vn 0.000000 0.000000 1.000000
vn 0.000000 0.000000 1.000000
vn 0.000000 0.000000 1.000000
vn 0.000000 0.000000 1.000000
vn 0.000000 0.000000 1.000000
vn 0.000000 0.000000 1.000000
vn 0.000000 0.000000 1.000000
vn 0.000000 0.000000 1.000000
vn 0.000000 0.000000 1.000000
vn 0.000000 0.000000 1.000000
vn 0.000000 0.000000 1.000000
vn 0.000000 0.000000 1.000000
vn 0.000000 0.000000 1.000000
vn 0.000000 0.000000 1.000000
vn 0.000000 0.000000 1.000000
vn 0.000000 0.000000 1.000000
vn 0.000000 0.000000 1.000000
vn 0.000000 0.000000 1.000000
vn 0.998533 0.054139 -0.000000
vn 0.998533 0.054139 0.000000
vn 0.986826 0.161782 0.000000
vn 0.986826 0.161782 -0.000000
vn 0.963550 0.267528 0.000000
vn 0.963550 0.267528 -0.000000
vn 0.928977 0.370138 0.000000
vn 0.928977 0.370138 -0.000000
vn 0.883512 0.468408 0.000000
vn 0.883512 0.468408 -0.000000
vn 0.827689 0.561187 0.000000
vn 0.827689 0.561187 -0.000000
vn 0.762162 0.647386 0.000000
vn 0.687699 0.725996 0.000000
vn 0.762162 0.647386 -0.000000
vn 0.687699 0.725996 0.000000
vn 0.605174 0.796093 0.000000
vn 0.605174 0.796093 -0.000000
vn 0.515554 0.856857 0.000000
vn 0.515554 0.856857 -0.000000
vn 0.419889 0.907575 0.000000
vn 0.319301 0.947653 0.000000
vn 0.419889 0.907575 -0.000000
vn 0.319301 0.947653 0.000000
vn 0.214970 0.976621 0.000000
vn 0.214970 0.976621 -0.000000
vn 0.108119 0.994138 0.000000
vn 0.108119 0.994138 -0.000000
vn 0.000000 1.000000 0.000000
vn -0.108119 0.994138 0.000000
vn 0.000000 1.000000 -0.000000
vn -0.108119 0.994138 0.000000
vn -0.214970 0.976621 0.000000
vn -0.214970 0.976621 0.000000
vn -0.319301 0.947653 0.000000
vn -0.319301 0.947653 0.000000
vn -0.419889 0.907575 0.000000
vn -0.419889 0.907575 0.000000
vn -0.515554 0.856857 0.000000
vn -0.515554 0.856857 0.000000
vn -0.605174 0.796093 0.000000
vn -0.605174 0.796093 0.000000
vn -0.687699 0.725996 0.000000
vn -0.687699 0.725996 0.000000
vn -0.762162 0.647386 0.000000
vn -0.762162 0.647386 0.000000
vn -0.827689 0.561187 0.000000
vn -0.827689 0.561187 0.000000
vn -0.883512 0.468408 0.000000
vn -0.883512 0.468408 0.000000
vn -0.928977 0.370138 0.000000
vn -0.928977 0.370138 0.000000
vn -0.963550 0.267528 0.000000
vn -0.963550 0.267528 0.000000
vn -0.986826 0.161782 0.000000
vn -0.986826 0.161782 0.000000
vn -0.998533 0.054139 0.000000
vn -0.998533 0.054139 0.000000
vn -0.998533 -0.054139 0.000000
vn -0.998533 -0.054139 0.000000
vn -0.986826 -0.161782 0.000000
vn -0.986826 -0.161782 0.000000
vn -0.963550 -0.267528 0.000000
vn -0.963550 -0.267528 0.000000
vn -0.928977 -0.370138 0.000000
vn -0.883512 -0.468408 -0.000000
vn -0.928977 -0.370138 0.000000
vn -0.883512 -0.468408 0.000000
vn -0.827689 -0.561187 0.000000
vn -0.762162 -0.647386 -0.000000
vn -0.827689 -0.561187 0.000000
vn -0.762162 -0.647386 0.000000
vn -0.687699 -0.725996 0.000000
vn -0.687699 -0.725996 0.000000
vn -0.605174 -0.796093 0.000000
vn -0.605174 -0.796093 0.000000
vn -0.515554 -0.856857 0.000000
vn -0.515554 -0.856857 0.000000
vn -0.419889 -0.907575 0.000000
vn -0.419889 -0.907575 0.000000
vn -0.319301 -0.947653 0.000000
vn -0.319301 -0.947653 0.000000
vn -0.214970 -0.976621 0.000000
vn -0.214970 -0.976621 0.000000
vn -0.108119 -0.994138 0.000000
vn -0.108119 -0.994138 0.000000
vn 0.000000 -1.000000 0.000000
vn 0.000000 -1.000000 0.000000
vn 0.108119 -0.994138 0.000000
vn 0.108119 -0.994138 0.000000
vn 0.214970 -0.976621 0.000000
vn 0.214970 -0.976621 0.000000
vn 0.319301 -0.947653 0.000000
vn 0.319301 -0.947653 0.000000
vn 0.419889 -0.907575 0.000000
vn 0.419889 -0.907575 0.000000
vn 0.515554 -0.856857 0.000000
vn 0.515554 -0.856857 0.000000
vn 0.605174 -0.796093 0.000000
vn 0.605174 -0.796093 0.000000
vn 0.687699 -0.725996 0.000000
vn 0.687699 -0.725996 0.000000
vn 0.762162 -0.647386 0.000000
vn 0.762162 -0.647386 0.000000
vn 0.827689 -0.561187 0.000000
vn 0.827689 -0.561187 0.000000
vn 0.883512 -0.468408 0.000000
vn 0.883512 -0.468408 0.000000
vn 0.928977 -0.370138 0.000000
vn 0.928977 -0.370138 0.000000
vn 0.963550 -0.267528 0.000000
vn 0.963550 -0.267528 0.000000
vn 0.986826 -0.161782 0.000000
vn 0.986826 -0.161782 0.000000
vn 0.998533 -0.054139 0.000000
vn 0.998533 -0.054139 0.000000
vn 0.000000 0.000000 -1.000000
vn 0.000000 0.000000 -1.000000
vn 0.000000 0.000000 -1.000000
vn 0.000000 0.000000 -1.000000
vn 0.000000 0.000000 -1.000000
vn 0.000000 0.000000 -1.000000
vn 0.000000 0.000000 -1.000000
vn 0.000000 0.000000 -1.000000
vn 0.000000 0.000000 -1.000000
vn 0.000000 0.000000 -1.000000
vn 0.000000 0.000000 -1.000000
vn 0.000000 0.000000 -1.000000
vn 0.000000 -0.000000 -1.000000
vn 0.000000 -0.000000 -1.000000
vn 0.000000 -0.000000 -1.000000
vn 0.000000 0.000000 -1.000000
vn 0.000000 0.000000 -1.000000
vn 0.000000 0.000000 -1.000000
vn 0.000000 0.000000 -1.000000
vn 0.000000 0.000000 -1.000000
vn 0.000000 -0.000000 -1.000000
vn 0.000000 -0.000000 -1.000000
vn 0.000000 -0.000000 -1.000000
vn 0.000000 0.000000 -1.000000
vn 0.000000 -0.000000 -1.000000
vn 0.000000 0.000000 -1.000000
vn 0.000000 0.000000 -1.000000
vn 0.000000 -0.000000 -1.000000
vn 0.000000 0.000000 -1.000000
vn 0.000000 -0.000000 -1.000000
vn 0.000000 -0.000000 -1.000000
vn 0.000000 -0.000000 -1.000000
vn 0.000000 0.000000 -1.000000
vn 0.000000 0.000000 -1.000000
vn 0.000000 0.000000 -1.000000
vn 0.000000 -0.000000 -1.000000
vn 0.000000 0.000000 -1.000000
vn 0.000000 0.000000 -1.000000
vn -0.000000 -0.000000 -1.000000
vn 0.000000 0.000000 -1.000000
vn 0.000000 -0.000000 -1.000000
vn -0.000000 -0.000000 -1.000000
vn -0.000000 -0.000000 -1.000000
vn 0.000000 0.000000 -1.000000
vn 0.000000 0.000000 -1.000000
vn 0.000000 0.000000 -1.000000
vn -0.000000 -0.000000 -1.000000
vn 0.000000 0.000000 -1.000000
vn 0.000000 0.000000 -1.000000
vn 0.000000 -0.000000 -1.000000
vn 0.000000 -0.000000 -1.000000
vn 0.000000 0.000000 -1.000000
vn -0.000000 -0.000000 -1.000000
vn 0.000000 0.000000 -1.000000
vn -0.000000 -0.000000 -1.000000
vn 0.000000 0.000000 -1.000000
vn 0.000000 0.000000 1.000000
vn 0.000000 0.000000 1.000000
vn 0.000000 0.000000 1.000000
vn 0.000000 0.000000 1.000000
vn 0.000000 0.000000 1.000000
vn 0.000000 0.000000 1.000000
vn 0.000000 0.000000 1.000000
vn 0.000000 0.000000 1.000000
vn 0.000000 0.000000 1.000000
vn 0.000000 0.000000 1.000000
vn 0.000000 0.000000 1.000000
vn 0.000000 0.000000 1.000000
vn 0.000000 0.000000 1.000000
vn 0.000000 0.000000 1.000000
vn 0.000000 0.000000 1.000000
vn 0.000000 0.000000 1.000000
vn 0.000000 0.000000 1.000000
vn 0.000000 0.000000 1.000000
vn 0.000000 0.000000 1.000000
vn 0.000000 0.000000 1.000000
vn 0.000000 0.000000 1.000000
vn 0.000000 0.000000 1.000000
vn 0.000000 0.000000 1.000000
vn 0.000000 0.000000 1.000000
vn 0.000000 0.000000 1.000000
vn 0.000000 0.000000 1.000000
vn 0.000000 0.000000 1.000000
vn 0.000000 0.000000 1.000000
vn 0.000000 0.000000 1.000000
vn 0.000000 0.000000 1.000000
vn 0.000000 0.000000 1.000000
vn 0.000000 0.000000 1.000000
vn 0.000000 0.000000 1.000000
vn 0.000000 0.000000 1.000000
vn 0.000000 0.000000 1.000000
vn 0.000000 0.000000 1.000000
vn 0.000000 0.000000 1.000000
vn 0.000000 0.000000 1.000000
vn 0.000000 0.000000 1.000000
vn 0.000000 0.000000 1.000000
vn 0.000000 0.000000 1.000000
vn 0.000000 0.000000 1.000000
vn 0.000000 0.000000 1.000000
vn 0.000000 0.000000 1.000000
vn 0.000000 0.000000 1.000000
vn 0.000000 0.000000 1.000000
vn 0.000000 0.000000 1.000000
vn 0.000000 0.000000 1.000000
vn 0.000000 0.000000 1.000000
vn 0.000000 0.000000 1.000000
vn 0.000000 0.000000 1.000000
vn 0.000000 0.000000 1.000000
vn 0.000000 0.000000 1.000000
vn 0.000000 0.000000 1.000000
vn 0.000000 0.000000 1.000000
vn 0.000000 0.000000 1.000000
vn 0.998533 0.054139 -0.000000
vn 0.998533 0.054139 0.000000
vn 0.986826 0.161782 0.000000
vn 0.986826 0.161782 -0.000000
vn 0.963550 0.267528 0.000000
vn 0.963550 0.267528 -0.000000
vn 0.928977 0.370138 0.000000
vn 0.928977 0.370138 -0.000000
vn 0.883512 0.468408 0.000000
vn 0.883512 0.468408 -0.000000
vn 0.827689 0.561187 0.000000
vn 0.827689 0.561187 -0.000000
vn 0.762162 0.647386 0.000000
vn 0.687699 0.725996 0.000000
vn 0.762162 0.647386 -0.000000
vn 0.687699 0.725996 0.000000
vn 0.605174 0.796093 0.000000
vn 0.605174 0.796093 -0.000000
vn 0.515554 0.856857 0.000000
vn 0.515554 0.856857 -0.000000
vn 0.419889 0.907575 0.000000
vn 0.319301 0.947653 0.000000
vn 0.419889 0.907575 -0.000000
vn 0.319301 0.947653 0.000000
vn 0.214970 0.976621 0.000000
vn 0.214970 0.976621 -0.000000
vn 0.108119 0.994138 0.000000
vn 0.108119 0.994138 -0.000000
vn 0.000000 1.000000 0.000000
vn -0.108119 0.994138 0.000000
vn 0.000000 1.000000 -0.000000
vn -0.108119 0.994138 0.000000
vn -0.214970 0.976621 0.000000
vn -0.214970 0.976621 0.000000
vn -0.319301 0.947653 0.000000
vn -0.319301 0.947653 0.000000
vn -0.419889 0.907575 0.000000
vn -0.419889 0.907575 0.000000
vn -0.515554 0.856857 0.000000
vn -0.515554 0.856857 0.000000
vn -0.605174 0.796093 0.000000
vn -0.605174 0.796093 0.000000
vn -0.687699 0.725996 0.000000
vn -0.687699 0.725996 0.000000
vn -0.762162 0.647386 0.000000
vn -0.762162 0.647386 0.000000
vn -0.827689 0.561187 0.000000
vn -0.827689 0.561187 0.000000
vn -0.883512 0.468408 0.000000
vn -0.883512 0.468408 0.000000
vn -0.928977 0.370138 0.000000
vn -0.928977 0.370138 0.000000
vn -0.963550 0.267528 0.000000
vn -0.963550 0.267528 0.000000
vn -0.986826 0.161782 0.000000
vn -0.986826 0.161782 0.000000
vn -0.998533 0.054139 0.000000
vn -0.998533 0.054139 0.000000
vn -0.998533 -0.054139 0.000000
vn -0.998533 -0.054139 0.000000
vn -0.986826 -0.161782 0.000000
vn -0.986826 -0.161782 0.000000
vn -0.963550 -0.267528 0.000000
vn -0.963550 -0.267528 0.000000
vn -0.928977 -0.370138 0.000000
vn -0.883512 -0.468408 -0.000000
vn -0.928977 -0.370138 0.000000
vn -0.883512 -0.468408 0.000000
vn -0.827689 -0.561187 0.000000
vn -0.762162 -0.647386 -0.000000
vn -0.827689 -0.561187 0.000000
vn -0.762162 -0.647386 0.000000
vn -0.687699 -0.725996 0.000000
vn -0.687699 -0.725996 0.000000
vn -0.605174 -0.796093 0.000000
vn -0.605174 -0.796093 0.000000
vn -0.515554 -0.856857 0.000000
vn -0.515554 -0.856857 0.000000
vn -0.419889 -0.907575 0.000000
vn -0.419889 -0.907575 0.000000
vn -0.319301 -0.947653 0.000000
vn -0.319301 -0.947653 0.000000
vn -0.214970 -0.976621 0.000000
vn -0.214970 -0.976621 0.000000
vn -0.108119 -0.994138 0.000000
vn -0.108119 -0.994138 0.000000
vn 0.000000 -1.000000 0.000000
vn 0.000000 -1.000000 0.000000
vn 0.108119 -0.994138 0.000000
vn 0.108119 -0.994138 0.000000
vn 0.214970 -0.976621 0.000000
vn 0.214970 -0.976621 0.000000
vn 0.319301 -0.947653 0.000000
vn 0.319301 -0.947653 0.000000
vn 0.419889 -0.907575 0.000000
vn 0.419889 -0.907575 0.000000
vn 0.515554 -0.856857 0.000000
vn 0.515554 -0.856857 0.000000
vn 0.605174 -0.796093 0.000000
vn 0.605174 -0.796093 0.000000
vn 0.687699 -0.725996 0.000000
vn 0.687699 -0.725996 0.000000
vn 0.762162 -0.647386 0.000000
vn 0.762162 -0.647386 0.000000
vn 0.827689 -0.561187 0.000000
vn 0.827689 -0.561187 0.000000
vn 0.883512 -0.468408 0.000000
vn 0.883512 -0.468408 0.000000
vn 0.928977 -0.370138 0.000000
vn 0.928977 -0.370138 0.000000
vn 0.963550 -0.267528 0.000000
vn 0.963550 -0.267528 0.000000
vn 0.986826 -0.161782 0.000000
vn 0.986826 -0.161782 0.000000
vn 0.998533 -0.054139 0.000000
vn 0.998533 -0.054139 0.000000
vn -0.997945 -0.064071 0.000000
vn -0.997945 -0.064071 0.000000
vn -0.981559 -0.191158 0.000000
vn -0.981559 -0.191158 0.000000
vn -0.949056 -0.315108 0.000000
vn -0.949056 -0.315108 0.000000
vn -0.900969 -0.433883 0.000000
vn -0.900969 -0.433883 0.000000
vn -0.838088 -0.545535 0.000000
vn -0.838088 -0.545535 0.000000
vn -0.761446 -0.648228 0.000000
vn -0.761446 -0.648228 0.000000
vn -0.672301 -0.740278 0.000000
vn -0.672301 -0.740278 0.000000
vn -0.572116 -0.820172 0.000000
vn -0.572116 -0.820172 0.000000
vn -0.462539 -0.886599 0.000000
vn -0.462539 -0.886599 0.000000
vn -0.345365 -0.938469 0.000000
vn -0.345365 -0.938469 0.000000
vn -0.222521 -0.974928 0.000000
vn -0.096023 -0.995379 0.000000
vn -0.222521 -0.974928 0.000000
vn -0.096023 -0.995379 0.000000
vn 0.032051 -0.999486 0.000000
vn 0.032051 -0.999486 0.000000
vn 0.159600 -0.987182 0.000000
vn 0.159600 -0.987182 0.000000
vn 0.284527 -0.958668 0.000000
vn 0.404784 -0.914413 0.000000
vn 0.284527 -0.958668 0.000000
vn 0.518393 -0.855143 0.000000
vn 0.404784 -0.914413 0.000000
vn 0.518393 -0.855143 0.000000
vn 0.623490 -0.781832 0.000000
vn 0.718350 -0.695682 0.000000
vn 0.623490 -0.781832 0.000000
vn 0.718350 -0.695682 0.000000
vn 0.801414 -0.598111 0.000000
vn 0.801414 -0.598111 0.000000
vn 0.871319 -0.490718 0.000000
vn 0.871319 -0.490718 0.000000
vn 0.926917 -0.375267 0.000000
vn 0.926917 -0.375267 0.000000
vn 0.967295 -0.253654 0.000000
vn 0.967295 -0.253654 0.000000
vn 0.991790 -0.127877 0.000000
vn 0.991790 -0.127877 0.000000
vn 1.000000 0.000000 0.000000
vn 1.000000 0.000000 0.000000
vn 0.991790 0.127877 0.000000
vn 0.991790 0.127877 -0.000000
vn 0.967295 0.253654 -0.000000
vn 0.967295 0.253654 -0.000000
vn 0.926917 0.375267 0.000000
vn 0.926917 0.375267 -0.000000
vn 0.871319 0.490718 -0.000000
vn 0.871319 0.490718 -0.000000
vn 0.801414 0.598111 0.000000
vn 0.801414 0.598111 -0.000000
vn 0.718350 0.695682 -0.000000
vn 0.718350 0.695682 -0.000000
vn 0.623490 0.781832 -0.000000
vn 0.623490 0.781832 -0.000000
vn 0.518393 0.855143 -0.000000
vn 0.518393 0.855143 0.000000
vn 0.404784 0.914413 -0.000000
vn 0.284527 0.958668 -0.000000
vn 0.404784 0.914413 0.000000
vn 0.284527 0.958668 -0.000000
vn 0.159600 0.987182 -0.000000
vn 0.159600 0.987182 0.000000
vn 0.032051 0.999486 -0.000000
vn -0.096023 0.995379 0.000000
vn 0.032051 0.999486 0.000000
vn -0.096023 0.995379 0.000000
vn -0.222521 0.974928 0.000000
vn -0.345365 0.938469 0.000000
vn -0.222521 0.974928 0.000000
vn -0.345365 0.938469 0.000000
vn -0.462539 0.886599 0.000000
vn -0.462539 0.886599 0.000000
vn -0.572116 0.820172 0.000000
vn -0.672301 0.740278 0.000000
vn -0.572116 0.820172 0.000000
vn -0.761446 0.648228 0.000000
vn -0.672301 0.740278 0.000000
vn -0.761446 0.648228 0.000000
vn -0.838088 0.545535 0.000000
vn -0.838088 0.545535 0.000000
vn -0.900969 0.433883 0.000000
vn -0.900969 0.433883 0.000000
vn -0.949056 0.315108 0.000000
vn -0.949056 0.315108 0.000000
vn -0.981559 0.191158 0.000000
vn -0.981559 0.191158 0.000000
vn -0.997945 0.064071 0.000000
vn -0.997945 0.064071 0.000000
vn 0.000000 0.000000 -1.000000
vn 0.000000 0.000000 -1.000000
vn 0.000000 0.000000 -1.000000
vn 0.000000 -0.000000 -1.000000
vn 0.000000 0.000000 -1.000000
vn 0.000000 0.000000 -1.000000
vn 0.000000 0.000000 -1.000000
vn 0.000000 0.000000 -1.000000
vn 0.000000 0.000000 -1.000000
vn 0.000000 -0.000000 -1.000000
vn 0.000000 0.000000 -1.000000
vn 0.000000 0.000000 -1.000000
vn 0.000000 -0.000000 -1.000000
vn 0.000000 0.000000 -1.000000
vn 0.000000 0.000000 -1.000000
vn 0.000000 0.000000 -1.000000
vn 0.000000 0.000000 -1.000000
vn 0.000000 0.000000 -1.000000
vn 0.000000 -0.000000 -1.000000
vn 0.000000 0.000000 -1.000000
vn 0.000000 0.000000 -1.000000
vn 0.000000 -0.000000 -1.000000
vn 0.000000 0.000000 -1.000000
vn 0.000000 0.000000 -1.000000
vn 0.000000 0.000000 -1.000000
vn 0.000000 0.000000 -1.000000
vn 0.000000 0.000000 -1.000000
vn 0.000000 -0.000000 -1.000000
vn 0.000000 0.000000 -1.000000
vn 0.000000 0.000000 -1.000000
vn 0.000000 0.000000 -1.000000
vn 0.000000 0.000000 -1.000000
vn 0.000000 -0.000000 -1.000000
vn 0.000000 0.000000 -1.000000
vn 0.000000 0.000000 -1.000000
vn 0.000000 0.000000 -1.000000
vn 0.000000 -0.000000 -1.000000
vn 0.000000 -0.000000 -1.000000
vn 0.000000 0.000000 -1.000000
vn 0.000000 0.000000 -1.000000
vn 0.000000 0.000000 -1.000000
vn 0.000000 -0.000000 -1.000000
vn 0.000000 0.000000 -1.000000
vn 0.000000 0.000000 -1.000000
vn 0.000000 0.000000 -1.000000
vn 0.000000 0.000000 -1.000000
vn 0.000000 0.000000 -1.000000
vn 0.000000 0.000000 -1.000000
vn 0.000000 0.000000 -1.000000
vn 0.000000 0.000000 -1.000000
vn 0.000000 0.000000 -1.000000
vn 0.000000 0.000000 -1.000000
vn 0.000000 0.000000 -1.000000
vn 0.000000 0.000000 -1.000000
vn 0.000000 0.000000 -1.000000
vn 0.000000 0.000000 -1.000000
vn 0.000000 0.000000 -1.000000
vn 0.000000 0.000000 -1.000000
vn 0.000000 0.000000 -1.000000
vn 0.000000 0.000000 -1.000000
vn 0.000000 -0.000000 -1.000000
vn 0.000000 0.000000 -1.000000
vn 0.000000 0.000000 -1.000000
vn 0.000000 -0.000000 -1.000000
vn 0.000000 0.000000 -1.000000
vn 0.000000 0.000000 -1.000000
vn 0.000000 0.000000 -1.000000
vn 0.000000 -0.000000 -1.000000
vn 0.000000 0.000000 -1.000000
vn 0.000000 0.000000 -1.000000
vn 0.000000 0.000000 -1.000000
vn 0.000000 -0.000000 -1.000000
vn 0.000000 0.000000 -1.000000
vn 0.000000 0.000000 -1.000000
vn 0.000000 0.000000 -1.000000
vn 0.000000 -0.000000 -1.000000
vn 0.000000 0.000000 -1.000000
vn 0.000000 0.000000 -1.000000
vn 0.000000 0.000000 -1.000000
vn 0.000000 0.000000 -1.000000
vn 0.000000 0.000000 -1.000000
vn 0.000000 0.000000 -1.000000
vn 0.000000 0.000000 -1.000000
vn 0.000000 0.000000 -1.000000
vn 0.000000 0.000000 -1.000000
vn 0.000000 0.000000 -1.000000
vn 0.000000 0.000000 -1.000000
vn 0.000000 0.000000 -1.000000
vn 0.000000 -0.000000 -1.000000
vn 0.000000 0.000000 -1.000000
vn 0.000000 0.000000 -1.000000
vn 0.000000 -0.000000 -1.000000
vn 0.000000 0.000000 -1.000000
vn 0.000000 0.000000 -1.000000
vn 0.000000 0.000000 -1.000000
vn 0.000000 -0.000000 -1.000000
vn 0.000000 0.000000 -1.000000
vn 0.000000 0.000000 -1.000000
vn 0.000000 0.000000 -1.000000
vn 0.000000 -0.000000 -1.000000
vn 0.000000 0.000000 -1.000000
vn 0.000000 0.000000 -1.000000
vn 0.000000 -0.000000 -1.000000
vn 0.000000 0.000000 -1.000000
vn 0.000000 0.000000 -1.000000
vn 0.000000 -0.000000 -1.000000
vn 0.000000 0.000000 -1.000000
vn 0.000000 0.000000 1.000000
vn 0.000000 0.000000 1.000000
vn 0.000000 0.000000 1.000000
vn 0.000000 0.000000 1.000000
vn 0.000000 0.000000 1.000000
vn 0.000000 0.000000 1.000000
vn 0.000000 0.000000 1.000000
vn 0.000000 0.000000 1.000000
vn 0.000000 0.000000 1.000000
vn 0.000000 0.000000 1.000000
vn 0.000000 0.000000 1.000000
vn 0.000000 0.000000 1.000000
vn 0.000000 0.000000 1.000000
vn 0.000000 0.000000 1.000000
vn 0.000000 0.000000 1.000000
vn 0.000000 0.000000 1.000000
vn 0.000000 0.000000 1.000000
vn 0.000000 0.000000 1.000000
vn 0.000000 0.000000 1.000000
vn 0.000000 0.000000 1.000000
vn 0.000000 0.000000 1.000000
vn 0.000000 0.000000 1.000000
vn 0.000000 0.000000 1.000000
vn 0.000000 0.000000 1.000000
vn 0.000000 0.000000 1.000000
vn 0.000000 0.000000 1.000000
vn 0.000000 0.000000 1.000000
vn 0.000000 0.000000 1.000000
vn 0.000000 0.000000 1.000000
vn 0.000000 0.000000 1.000000
vn 0.000000 0.000000 1.000000
vn 0.000000 0.000000 1.000000
vn 0.000000 0.000000 1.000000
vn 0.000000 0.000000 1.000000
vn 0.000000 0.000000 1.000000
vn 0.000000 0.000000 1.000000
vn 0.000000 0.000000 1.000000
vn 0.000000 0.000000 1.000000
vn 0.000000 0.000000 1.000000
vn 0.000000 0.000000 1.000000
vn 0.000000 0.000000 1.000000
vn 0.000000 0.000000 1.000000
vn 0.000000 0.000000 1.000000
vn 0.000000 0.000000 1.000000
vn 0.000000 0.000000 1.000000
vn 0.000000 0.000000 1.000000
vn 0.000000 0.000000 1.000000
vn 0.000000 0.000000 1.000000
vn 0.000000 0.000000 1.000000
vn 0.000000 0.000000 1.000000
vn 0.000000 0.000000 1.000000
vn 0.000000 0.000000 1.000000
vn 0.000000 0.000000 1.000000
vn 0.000000 0.000000 1.000000
vn 0.000000 0.000000 1.000000
vn 0.000000 0.000000 1.000000
vn 0.000000 0.000000 1.000000
vn 0.000000 0.000000 1.000000
vn 0.000000 0.000000 1.000000
vn 0.000000 0.000000 1.000000
vn 0.000000 0.000000 1.000000
vn 0.000000 0.000000 1.000000
vn 0.000000 0.000000 1.000000
vn 0.000000 0.000000 1.000000
vn 0.000000 0.000000 1.000000
vn 0.000000 0.000000 1.000000
vn 0.000000 0.000000 1.000000
vn 0.000000 0.000000 1.000000
vn 0.000000 0.000000 1.000000
vn 0.000000 0.000000 1.000000
vn 0.000000 0.000000 1.000000
vn 0.000000 0.000000 1.000000
vn 0.000000 0.000000 1.000000
vn 0.000000 0.000000 1.000000
vn 0.000000 0.000000 1.000000
vn 0.000000 0.000000 1.000000
vn 0.000000 0.000000 1.000000
vn 0.000000 0.000000 1.000000
vn 0.000000 0.000000 1.000000
vn 0.000000 0.000000 1.000000
vn 0.000000 0.000000 1.000000
vn 0.000000 0.000000 1.000000
vn 0.000000 0.000000 1.000000
vn 0.000000 0.000000 1.000000
vn 0.000000 0.000000 1.000000
vn 0.000000 0.000000 1.000000
vn 0.000000 0.000000 1.000000
vn 0.000000 0.000000 1.000000
vn 0.000000 0.000000 1.000000
vn 0.000000 0.000000 1.000000
vn 0.000000 0.000000 1.000000
vn 0.000000 0.000000 1.000000
vn 0.000000 0.000000 1.000000
vn 0.000000 0.000000 1.000000
vn 0.000000 0.000000 1.000000
vn 0.000000 0.000000 1.000000
vn 0.000000 0.000000 1.000000
vn 0.000000 0.000000 1.000000
vn 0.000000 0.000000 1.000000
vn 0.000000 0.000000 1.000000
vn 0.000000 0.000000 1.000000
vn 0.000000 0.000000 1.000000
vn 0.000000 0.000000 1.000000
vn 0.000000 0.000000 1.000000
vn 0.000000 0.000000 1.000000
vn 0.000000 0.000000 1.000000
vn 0.000000 0.000000 1.000000
g \ubab8\ud1b5006
f 1//1 2//1 3//1
f 3//2 2//2 4//2
f 4//3 5//3 6//3
f 6//4 5//4 7//4
f 2//5 5//5 4//5
f 7//6 8//6 9//6
f 5//7 8//7 7//7
f 8//8 10//8 9//8
f 9//9 11//9 12//9
f 10//10 11//10 9//10
f 11//11 13//11 12//11
f 12//12 13//12 14//12
f 14//13 13//13 15//13
f 13//14 16//14 15//14
f 15//15 16//15 17//15
f 16//16 18//16 17//16
f 18//17 19//17 17//17
f 17//18 19//18 20//18
f 20//19 19//19 21//19
f 19//20 22//20 21//20
f 21//21 23//21 24//21
f 24//22 23//22 25//22
f 22//23 23//23 21//23
f 25//24 26//24 27//24
f 23//25 26//25 25//25
f 26//26 28//26 27//26
f 27//27 29//27 30//27
f 28//28 29//28 27//28
f 30//29 31//29 32//29
f 29//30 31//30 30//30
f 32//31 33//31 34//31
f 34//32 33//32 35//32
f 31//33 33//33 32//33
f 33//34 36//34 35//34
f 35//35 37//35 38//35
f 38//36 37//36 39//36
f 36//37 37//37 35//37
f 37//38 40//38 39//38
f 39//39 41//39 42//39
f 40//40 41//40 39//40
f 42//41 43//41 44//41
f 41//42 43//42 42//42
f 44//43 45//43 46//43
f 43//44 45//44 44//44
f 46//45 47//45 48//45
f 45//46 47//46 46//46
f 48//47 49//47 50//47
f 47//48 49//48 48//48
f 50//49 51//49 52//49
f 52//50 51//50 53//50
f 49//51 51//51 50//51
f 51//52 54//52 53//52
f 53//53 55//53 56//53
f 54//54 55//54 53//54
f 56//55 57//55 58//55
f 55//56 57//56 56//56
f 58//57 59//57 60//57
f 57//58 59//58 58//58
f 60//59 61//59 62//59
f 62//60 61//60 63//60
f 59//61 61//61 60//61
f 61//62 64//62 63//62
f 64//63 65//63 63//63
f 63//64 65//64 66//64
f 65//65 67//65 66//65
f 66//66 67//66 68//66
f 67//67 69//67 68//67
f 68//68 69//68 70//68
f 70//69 69//69 71//69
f 69//70 72//70 71//70
f 72//71 1//71 71//71
f 71//72 1//72 3//72
f 49//73 59//73 51//73
f 51//74 59//74 54//74
f 54//75 59//75 55//75
f 55//76 59//76 57//76
f 31//77 29//77 33//77
f 33//78 29//78 36//78
f 36//79 29//79 37//79
f 37//80 29//80 40//80
f 59//81 67//81 61//81
f 61//82 67//82 64//82
f 64//83 67//83 65//83
f 28//84 26//84 29//84
f 59//85 69//85 67//85
f 23//86 22//86 26//86
f 40//87 22//87 41//87
f 41//88 22//88 43//88
f 43//89 22//89 45//89
f 45//90 22//90 47//90
f 29//91 22//91 40//91
f 26//92 22//92 29//92
f 19//93 18//93 22//93
f 47//94 2//94 49//94
f 69//95 2//95 72//95
f 72//96 2//96 1//96
f 22//97 2//97 47//97
f 49//98 2//98 59//98
f 59//99 2//99 69//99
f 18//100 2//100 22//100
f 2//101 8//101 5//101
f 16//102 13//102 18//102
f 2//103 11//103 8//103
f 8//104 11//104 10//104
f 13//105 11//105 18//105
f 18//106 11//106 2//106
f 60//107 50//107 52//107
f 60//108 52//108 53//108
f 60//109 53//109 56//109
f 60//110 56//110 58//110
f 30//111 32//111 34//111
f 30//112 34//112 35//112
f 30//113 35//113 38//113
f 30//114 38//114 39//114
f 68//115 60//115 62//115
f 68//116 62//116 63//116
f 68//117 63//117 66//117
f 25//118 27//118 30//118
f 70//119 60//119 68//119
f 21//120 24//120 25//120
f 21//121 39//121 42//121
f 21//122 42//122 44//122
f 21//123 44//123 46//123
f 21//124 46//124 48//124
f 21//125 30//125 39//125
f 21//126 25//126 30//126
f 17//127 20//127 21//127
f 4//128 48//128 50//128
f 4//129 70//129 71//129
f 4//130 71//130 3//130
f 4//131 21//131 48//131
f 4//132 50//132 60//132
f 4//133 60//133 70//133
f 4//134 17//134 21//134
f 7//135 4//135 6//135
f 14//136 15//136 17//136
f 12//137 4//137 7//137
f 12//138 7//138 9//138
f 12//139 14//139 17//139
f 12//140 17//140 4//140
g \ubab8\ud1b5005
f 73//141 74//141 75//141
f 75//142 74//142 76//142
f 76//143 77//143 78//143
f 74//144 77//144 76//144
f 78//145 79//145 80//145
f 77//146 79//146 78//146
f 80//147 81//147 82//147
f 79//148 81//148 80//148
f 82//149 83//149 84//149
f 81//150 83//150 82//150
f 84//151 85//151 86//151
f 83//152 85//152 84//152
f 86//153 87//153 88//153
f 88//154 87//154 89//154
f 85//155 87//155 86//155
f 87//156 90//156 89//156
f 89//157 91//157 92//157
f 90//158 91//158 89//158
f 92//159 93//159 94//159
f 91//160 93//160 92//160
f 94//161 95//161 96//161
f 96//162 95//162 97//162
f 93//163 95//163 94//163
f 95//164 98//164 97//164
f 97//165 99//165 100//165
f 98//166 99//166 97//166
f 100//167 101//167 102//167
f 99//168 101//168 100//168
f 102//169 103//169 104//169
f 104//170 103//170 105//170
f 101//171 103//171 102//171
f 103//172 106//172 105//172
f 105//173 107//173 108//173
f 106//174 107//174 105//174
f 108//175 109//175 110//175
f 107//176 109//176 108//176
f 110//177 111//177 112//177
f 109//178 111//178 110//178
f 112//179 113//179 114//179
f 111//180 113//180 112//180
f 113//181 115//181 114//181
f 114//182 115//182 116//182
f 115//183 117//183 116//183
f 116//184 117//184 118//184
f 117//185 119//185 118//185
f 118//186 119//186 120//186
f 120//187 119//187 121//187
f 119//188 122//188 121//188
f 122//189 123//189 121//189
f 121//190 123//190 124//190
f 123//191 125//191 124//191
f 124//192 125//192 126//192
f 126//193 127//193 128//193
f 125//194 127//194 126//194
f 128//195 127//195 129//195
f 127//196 130//196 129//196
f 129//197 131//197 132//197
f 130//198 131//198 129//198
f 132//199 133//199 134//199
f 131//200 133//200 132//200
f 134//201 135//201 136//201
f 133//202 135//202 134//202
f 136//203 137//203 138//203
f 135//204 137//204 136//204
f 138//205 139//205 140//205
f 140//206 139//206 141//206
f 137//207 139//207 138//207
f 139//208 142//208 141//208
f 141//209 143//209 144//209
f 144//210 143//210 145//210
f 142//211 143//211 141//211
f 143//212 146//212 145//212
f 145//213 147//213 148//213
f 146//214 147//214 145//214
f 148//215 149//215 150//215
f 147//216 149//216 148//216
f 150//217 151//217 152//217
f 149//218 151//218 150//218
f 152//219 153//219 154//219
f 151//220 153//220 152//220
f 154//221 155//221 156//221
f 153//222 155//222 154//222
f 156//223 157//223 158//223
f 155//224 157//224 156//224
f 158//225 159//225 160//225
f 157//226 159//226 158//226
f 160//227 161//227 162//227
f 159//228 161//228 160//228
f 161//229 163//229 162//229
f 162//230 163//230 164//230
f 164//231 163//231 165//231
f 163//232 166//232 165//232
f 166//233 167//233 165//233
f 165//234 167//234 168//234
f 167//235 169//235 168//235
f 168//236 169//236 170//236
f 169//237 171//237 170//237
f 170//238 171//238 172//238
f 172//239 171//239 173//239
f 171//240 174//240 173//240
f 174//241 175//241 173//241
f 173//242 175//242 176//242
f 175//243 177//243 176//243
f 176//244 177//244 178//244
f 178//245 177//245 179//245
f 177//246 180//246 179//246
f 180//247 181//247 179//247
f 179//248 181//248 182//248
f 182//249 181//249 183//249
f 181//250 184//250 183//250
f 184//251 185//251 183//251
f 183//252 185//252 186//252
f 185//253 187//253 186//253
f 186//254 187//254 188//254
f 187//255 73//255 188//255
f 188//256 73//256 75//256
f 143//257 151//257 146//257
f 146//258 151//258 147//258
f 147//259 151//259 149//259
f 139//260 137//260 142//260
f 142//261 137//261 143//261
f 143//262 137//262 151//262
f 135//263 133//263 137//263
f 155//264 159//264 157//264
f 133//265 131//265 137//265
f 155//266 161//266 159//266
f 161//267 166//267 163//267
f 155//268 166//268 161//268
f 125//269 123//269 127//269
f 127//270 123//270 130//270
f 130//271 123//271 131//271
f 166//272 169//272 167//272
f 155//273 169//273 166//273
f 155//274 171//274 169//274
f 151//275 171//275 153//275
f 153//276 171//276 155//276
f 123//277 117//277 131//277
f 119//278 117//278 122//278
f 122//279 117//279 123//279
f 171//280 175//280 174//280
f 117//281 115//281 131//281
f 131//282 115//282 137//282
f 175//283 180//283 177//283
f 113//284 111//284 115//284
f 180//285 184//285 181//285
f 109//286 107//286 111//286
f 111//287 106//287 115//287
f 107//288 106//288 111//288
f 180//289 73//289 184//289
f 184//290 73//290 185//290
f 185//291 73//291 187//291
f 103//292 101//292 106//292
f 175//293 74//293 180//293
f 180//294 74//294 73//294
f 99//295 98//295 101//295
f 74//296 79//296 77//296
f 101//297 95//297 106//297
f 98//298 95//298 101//298
f 93//299 91//299 95//299
f 81//300 85//300 83//300
f 79//301 87//301 81//301
f 151//302 87//302 171//302
f 90//303 87//303 91//303
f 171//304 87//304 175//304
f 175//305 87//305 74//305
f 115//306 87//306 137//306
f 106//307 87//307 115//307
f 74//308 87//308 79//308
f 95//309 87//309 106//309
f 81//310 87//310 85//310
f 91//311 87//311 95//311
f 137//312 87//312 151//312
f 152//313 144//313 145//313
f 152//314 145//314 148//314
f 152//315 148//315 150//315
f 138//316 140//316 141//316
f 138//317 141//317 144//317
f 138//318 144//318 152//318
f 134//319 136//319 138//319
f 160//320 156//320 158//320
f 132//321 134//321 138//321
f 162//322 156//322 160//322
f 165//323 162//323 164//323
f 165//324 156//324 162//324
f 124//325 126//325 128//325
f 124//326 128//326 129//326
f 124//327 129//327 132//327
f 170//328 165//328 168//328
f 170//329 156//329 165//329
f 172//330 156//330 170//330
f 172//331 152//331 154//331
f 172//332 154//332 156//332
f 118//333 124//333 132//333
f 118//334 120//334 121//334
f 118//335 121//335 124//335
f 176//336 172//336 173//336
f 116//337 118//337 132//337
f 116//338 132//338 138//338
f 179//339 176//339 178//339
f 112//340 114//340 116//340
f 183//341 179//341 182//341
f 108//342 110//342 112//342
f 105//343 112//343 116//343
f 105//344 108//344 112//344
f 75//345 179//345 183//345
f 75//346 183//346 186//346
f 75//347 186//347 188//347
f 102//348 104//348 105//348
f 76//349 176//349 179//349
f 76//350 179//350 75//350
f 97//351 100//351 102//351
f 80//352 76//352 78//352
f 96//353 102//353 105//353
f 96//354 97//354 102//354
f 92//355 94//355 96//355
f 86//356 82//356 84//356
f 88//357 80//357 82//357
f 88//358 152//358 172//358
f 88//359 89//359 92//359
f 88//360 172//360 176//360
f 88//361 176//361 76//361
f 88//362 116//362 138//362
f 88//363 105//363 116//363
f 88//364 76//364 80//364
f 88//365 96//365 105//365
f 88//366 82//366 86//366
f 88//367 92//367 96//367
f 88//368 138//368 152//368
g \ubab8\ud1b5004
f 189//369 190//369 191//369
f 191//370 190//370 192//370
f 192//371 193//371 194//371
f 190//372 193//372 192//372
f 194//373 195//373 196//373
f 193//374 195//374 194//374
f 196//375 197//375 198//375
f 195//376 197//376 196//376
f 198//377 199//377 200//377
f 197//378 199//378 198//378
f 200//379 201//379 202//379
f 199//380 201//380 200//380
f 202//381 203//381 204//381
f 204//382 203//382 205//382
f 201//383 203//383 202//383
f 203//384 206//384 205//384
f 205//385 207//385 208//385
f 206//386 207//386 205//386
f 208//387 209//387 210//387
f 207//388 209//388 208//388
f 210//389 211//389 212//389
f 212//390 211//390 213//390
f 209//391 211//391 210//391
f 211//392 214//392 213//392
f 213//393 215//393 216//393
f 214//394 215//394 213//394
f 216//395 217//395 218//395
f 215//396 217//396 216//396
f 218//397 219//397 220//397
f 220//398 219//398 221//398
f 217//399 219//399 218//399
f 219//400 222//400 221//400
f 221//401 223//401 224//401
f 222//402 223//402 221//402
f 224//403 225//403 226//403
f 223//404 225//404 224//404
f 226//405 227//405 228//405
f 225//406 227//406 226//406
f 228//407 229//407 230//407
f 227//408 229//408 228//408
f 229//409 231//409 230//409
f 230//410 231//410 232//410
f 231//411 233//411 232//411
f 232//412 233//412 234//412
f 233//413 235//413 234//413
f 234//414 235//414 236//414
f 236//415 235//415 237//415
f 235//416 238//416 237//416
f 238//417 239//417 237//417
f 237//418 239//418 240//418
f 239//419 241//419 240//419
f 240//420 241//420 242//420
f 242//421 243//421 244//421
f 241//422 243//422 242//422
f 244//423 243//423 245//423
f 243//424 246//424 245//424
f 245//425 247//425 248//425
f 246//426 247//426 245//426
f 248//427 249//427 250//427
f 247//428 249//428 248//428
f 250//429 251//429 252//429
f 249//430 251//430 250//430
f 252//431 253//431 254//431
f 251//432 253//432 252//432
f 254//433 255//433 256//433
f 256//434 255//434 257//434
f 253//435 255//435 254//435
f 255//436 258//436 257//436
f 257//437 259//437 260//437
f 260//438 259//438 261//438
f 258//439 259//439 257//439
f 259//440 262//440 261//440
f 261//441 263//441 264//441
f 262//442 263//442 261//442
f 264//443 265//443 266//443
f 263//444 265//444 264//444
f 266//445 267//445 268//445
f 265//446 267//446 266//446
f 268//447 269//447 270//447
f 267//448 269//448 268//448
f 270//449 271//449 272//449
f 269//450 271//450 270//450
f 272//451 273//451 274//451
f 271//452 273//452 272//452
f 274//453 275//453 276//453
f 273//454 275//454 274//454
f 276//455 277//455 278//455
f 275//456 277//456 276//456
f 277//457 279//457 278//457
f 278//458 279//458 280//458
f 280//459 279//459 281//459
f 279//460 282//460 281//460
f 282//461 283//461 281//461
f 281//462 283//462 284//462
f 283//463 285//463 284//463
f 284//464 285//464 286//464
f 285//465 287//465 286//465
f 286//466 287//466 288//466
f 288//467 287//467 289//467
f 287//468 290//468 289//468
f 290//469 291//469 289//469
f 289//470 291//470 292//470
f 291//471 293//471 292//471
f 292//472 293//472 294//472
f 294//473 293//473 295//473
f 293//474 296//474 295//474
f 296//475 297//475 295//475
f 295//476 297//476 298//476
f 298//477 297//477 299//477
f 297//478 300//478 299//478
f 300//479 301//479 299//479
f 299//480 301//480 302//480
f 301//481 303//481 302//481
f 302//482 303//482 304//482
f 303//483 189//483 304//483
f 304//484 189//484 191//484
f 305//485 306//485 307//485
f 305//486 307//486 308//486
f 309//487 308//487 310//487
f 309//488 305//488 308//488
f 311//489 310//489 312//489
f 311//490 309//490 310//490
f 313//491 312//491 314//491
f 313//492 311//492 312//492
f 315//493 314//493 316//493
f 315//494 313//494 314//494
f 317//495 316//495 318//495
f 317//496 315//496 316//496
f 319//497 318//497 320//497
f 319//498 317//498 318//498
f 321//499 320//499 322//499
f 321//500 319//500 320//500
f 323//501 322//501 324//501
f 323//502 321//502 322//502
f 325//503 324//503 326//503
f 325//504 323//504 324//504
f 327//505 326//505 328//505
f 327//506 328//506 329//506
f 327//507 325//507 326//507
f 330//508 327//508 329//508
f 331//509 329//509 332//509
f 331//510 330//510 329//510
f 333//511 332//511 334//511
f 333//512 331//512 332//512
f 335//513 334//513 336//513
f 335//514 336//514 337//514
f 335//515 333//515 334//515
f 338//516 337//516 339//516
f 338//517 335//517 337//517
f 340//518 338//518 339//518
f 341//519 339//519 342//519
f 341//520 342//520 343//520
f 341//521 340//521 339//521
f 344//522 341//522 343//522
f 345//523 343//523 346//523
f 345//524 344//524 343//524
f 347//525 346//525 348//525
f 347//526 345//526 346//526
f 349//527 348//527 350//527
f 349//528 347//528 348//528
f 351//529 350//529 352//529
f 351//530 349//530 350//530
f 353//531 352//531 354//531
f 353//532 351//532 352//532
f 355//533 353//533 354//533
f 355//534 354//534 356//534
f 357//535 355//535 356//535
f 357//536 356//536 358//536
f 357//537 358//537 359//537
f 360//538 357//538 359//538
f 361//539 360//539 359//539
f 361//540 359//540 362//540
f 361//541 362//541 363//541
f 364//542 361//542 363//542
f 365//543 364//543 363//543
f 365//544 363//544 366//544
f 365//545 366//545 367//545
f 368//546 365//546 367//546
f 368//547 367//547 369//547
f 370//548 368//548 369//548
f 371//549 369//549 372//549
f 371//550 370//550 369//550
f 373//551 372//551 374//551
f 373//552 374//552 375//552
f 373//553 371//553 372//553
f 376//554 373//554 375//554
f 377//555 375//555 378//555
f 377//556 376//556 375//556
f 379//557 378//557 380//557
f 379//558 380//558 381//558
f 379//559 377//559 378//559
f 382//560 379//560 381//560
f 383//561 381//561 384//561
f 383//562 384//562 385//562
f 383//563 382//563 381//563
f 386//564 383//564 385//564
f 387//565 385//565 388//565
f 387//566 386//566 385//566
f 389//567 388//567 390//567
f 389//568 390//568 391//568
f 389//569 387//569 388//569
f 392//570 391//570 393//570
f 392//571 389//571 391//571
f 394//572 392//572 393//572
f 395//573 393//573 396//573
f 395//574 394//574 393//574
f 397//575 396//575 398//575
f 397//576 395//576 396//576
f 399//577 398//577 400//577
f 399//578 397//578 398//578
f 401//579 400//579 402//579
f 401//580 399//580 400//580
f 306//581 402//581 307//581
f 306//582 401//582 402//582
f 262//583 368//583 263//583
f 262//584 365//584 368//584
f 259//585 365//585 262//585
f 368//586 370//586 263//586
f 263//587 370//587 265//587
f 258//588 364//588 259//588
f 259//589 364//589 365//589
f 265//590 371//590 267//590
f 267//591 371//591 269//591
f 370//592 371//592 265//592
f 258//593 361//593 364//593
f 255//594 361//594 258//594
f 371//595 373//595 269//595
f 269//596 373//596 271//596
f 255//597 360//597 361//597
f 251//598 360//598 253//598
f 253//599 360//599 255//599
f 271//600 376//600 273//600
f 373//601 376//601 271//601
f 251//602 357//602 360//602
f 249//603 357//603 251//603
f 376//604 377//604 273//604
f 273//605 377//605 275//605
f 247//606 355//606 249//606
f 249//607 355//607 357//607
f 275//608 379//608 277//608
f 377//609 379//609 275//609
f 246//610 353//610 247//610
f 247//611 353//611 355//611
f 277//612 382//612 279//612
f 279//613 382//613 282//613
f 379//614 382//614 277//614
f 243//615 351//615 246//615
f 246//616 351//616 353//616
f 282//617 383//617 283//617
f 382//618 383//618 282//618
f 239//619 349//619 241//619
f 241//620 349//620 243//620
f 243//621 349//621 351//621
f 283//622 386//622 285//622
f 383//623 386//623 283//623
f 238//624 347//624 239//624
f 239//625 347//625 349//625
f 285//626 387//626 287//626
f 386//627 387//627 285//627
f 238//628 345//628 347//628
f 238//629 235//629 345//629
f 387//630 389//630 287//630
f 287//631 389//631 290//631
f 235//632 344//632 345//632
f 235//633 233//633 344//633
f 389//634 392//634 290//634
f 392//635 291//635 290//635
f 233//636 341//636 344//636
f 233//637 231//637 341//637
f 392//638 394//638 291//638
f 231//639 340//639 341//639
f 394//640 293//640 291//640
f 231//641 229//641 340//641
f 229//642 338//642 340//642
f 395//643 296//643 394//643
f 394//644 296//644 293//644
f 229//645 227//645 338//645
f 397//646 297//646 395//646
f 395//647 297//647 296//647
f 227//648 225//648 338//648
f 338//649 225//649 335//649
f 399//650 300//650 397//650
f 397//651 300//651 297//651
f 225//652 223//652 335//652
f 335//653 223//653 333//653
f 401//654 301//654 399//654
f 399//655 301//655 300//655
f 223//656 222//656 333//656
f 333//657 222//657 331//657
f 306//658 303//658 401//658
f 401//659 303//659 301//659
f 331//660 219//660 330//660
f 222//661 219//661 331//661
f 306//662 189//662 303//662
f 330//663 217//663 327//663
f 219//664 217//664 330//664
f 305//665 190//665 306//665
f 306//666 190//666 189//666
f 217//667 215//667 327//667
f 309//668 193//668 305//668
f 305//669 193//669 190//669
f 327//670 214//670 325//670
f 215//671 214//671 327//671
f 311//672 195//672 309//672
f 309//673 195//673 193//673
f 214//674 211//674 325//674
f 325//675 211//675 323//675
f 311//676 197//676 195//676
f 313//677 197//677 311//677
f 211//678 209//678 323//678
f 323//679 209//679 321//679
f 315//680 199//680 313//680
f 313//681 199//681 197//681
f 209//682 207//682 321//682
f 321//683 207//683 319//683
f 315//684 201//684 199//684
f 207//685 206//685 319//685
f 319//686 206//686 317//686
f 315//687 203//687 201//687
f 206//688 203//688 317//688
f 317//689 203//689 315//689
f 367//690 261//690 264//690
f 366//691 261//691 367//691
f 366//692 260//692 261//692
f 369//693 367//693 264//693
f 369//694 264//694 266//694
f 363//695 257//695 260//695
f 363//696 260//696 366//696
f 372//697 266//697 268//697
f 372//698 268//698 270//698
f 372//699 369//699 266//699
f 362//700 257//700 363//700
f 362//701 256//701 257//701
f 374//702 372//702 270//702
f 374//703 270//703 272//703
f 359//704 256//704 362//704
f 359//705 252//705 254//705
f 359//706 254//706 256//706
f 375//707 272//707 274//707
f 375//708 374//708 272//708
f 358//709 252//709 359//709
f 358//710 250//710 252//710
f 378//711 375//711 274//711
f 378//712 274//712 276//712
f 356//713 248//713 250//713
f 356//714 250//714 358//714
f 380//715 276//715 278//715
f 380//716 378//716 276//716
f 354//717 245//717 248//717
f 354//718 248//718 356//718
f 381//719 278//719 280//719
f 381//720 280//720 281//720
f 381//721 380//721 278//721
f 352//722 244//722 245//722
f 352//723 245//723 354//723
f 384//724 281//724 284//724
f 384//725 381//725 281//725
f 350//726 240//726 242//726
f 350//727 242//727 244//727
f 350//728 244//728 352//728
f 385//729 284//729 286//729
f 385//730 384//730 284//730
f 348//731 237//731 240//731
f 348//732 240//732 350//732
f 388//733 286//733 288//733
f 388//734 385//734 286//734
f 346//735 237//735 348//735
f 236//736 237//736 346//736
f 390//737 388//737 288//737
f 390//738 288//738 289//738
f 343//739 236//739 346//739
f 234//740 236//740 343//740
f 391//741 390//741 289//741
f 292//742 391//742 289//742
f 342//743 234//743 343//743
f 232//744 234//744 342//744
f 393//745 391//745 292//745
f 339//746 232//746 342//746
f 294//747 393//747 292//747
f 230//748 232//748 339//748
f 337//749 230//749 339//749
f 295//750 396//750 393//750
f 295//751 393//751 294//751
f 228//752 230//752 337//752
f 298//753 398//753 396//753
f 298//754 396//754 295//754
f 226//755 228//755 337//755
f 226//756 337//756 336//756
f 299//757 400//757 398//757
f 299//758 398//758 298//758
f 224//759 226//759 336//759
f 224//760 336//760 334//760
f 302//761 402//761 400//761
f 302//762 400//762 299//762
f 221//763 224//763 334//763
f 221//764 334//764 332//764
f 304//765 307//765 402//765
f 304//766 402//766 302//766
f 220//767 332//767 329//767
f 220//768 221//768 332//768
f 191//769 307//769 304//769
f 218//770 329//770 328//770
f 218//771 220//771 329//771
f 192//772 308//772 307//772
f 192//773 307//773 191//773
f 216//774 218//774 328//774
f 194//775 310//775 308//775
f 194//776 308//776 192//776
f 213//777 328//777 326//777
f 213//778 216//778 328//778
f 196//779 312//779 310//779
f 196//780 310//780 194//780
f 212//781 213//781 326//781
f 212//782 326//782 324//782
f 198//783 312//783 196//783
f 198//784 314//784 312//784
f 210//785 212//785 324//785
f 210//786 324//786 322//786
f 200//787 316//787 314//787
f 200//788 314//788 198//788
f 208//789 210//789 322//789
f 208//790 322//790 320//790
f 202//791 316//791 200//791
f 205//792 208//792 320//792
f 205//793 320//793 318//793
f 204//794 316//794 202//794
f 204//795 205//795 318//795
f 204//796 318//796 316//796
